<svg width="990" height="634" viewBox="0 0 990 634" fill="none" xmlns="http://www.w3.org/2000/svg">
<g clip-path="url(#clip0_110_1569)">
<rect width="47.1429" height="47.1429" stroke="#595959" stroke-opacity="0.3" stroke-width="0.942857"/>
<rect x="47.1428" y="-1.14441e-05" width="47.1429" height="47.1429" stroke="#595959" stroke-opacity="0.3" stroke-width="0.942857"/>
<rect x="94.2856" y="-1.14441e-05" width="47.1429" height="47.1429" stroke="#595959" stroke-opacity="0.3" stroke-width="0.942857"/>
<rect x="141.429" y="-1.14441e-05" width="47.1429" height="47.1429" stroke="#595959" stroke-opacity="0.3" stroke-width="0.942857"/>
<rect x="188.572" y="-1.14441e-05" width="47.1429" height="47.1429" stroke="#595959" stroke-opacity="0.3" stroke-width="0.942857"/>
<rect x="235.714" y="-1.14441e-05" width="47.1429" height="47.1429" stroke="#595959" stroke-opacity="0.3" stroke-width="0.942857"/>
<rect x="282.857" y="-1.14441e-05" width="47.1429" height="47.1429" stroke="#595959" stroke-opacity="0.3" stroke-width="0.942857"/>
<rect x="330" y="-1.14441e-05" width="47.1429" height="47.1429" stroke="#595959" stroke-opacity="0.3" stroke-width="0.942857"/>
<rect x="377.143" y="-1.14441e-05" width="47.1429" height="47.1429" stroke="#595959" stroke-opacity="0.3" stroke-width="0.942857"/>
<rect x="424.286" y="-1.14441e-05" width="47.1429" height="47.1429" stroke="#595959" stroke-opacity="0.3" stroke-width="0.942857"/>
<rect x="471.428" y="-1.14441e-05" width="47.1429" height="47.1429" stroke="#595959" stroke-opacity="0.3" stroke-width="0.942857"/>
<rect x="518.572" y="-1.14441e-05" width="47.1429" height="47.1429" stroke="#595959" stroke-opacity="0.3" stroke-width="0.942857"/>
<rect x="565.714" y="-1.14441e-05" width="47.1429" height="47.1429" stroke="#595959" stroke-opacity="0.3" stroke-width="0.942857"/>
<rect x="612.857" y="-1.14441e-05" width="47.1429" height="47.1429" stroke="#595959" stroke-opacity="0.3" stroke-width="0.942857"/>
<rect x="660" y="-1.14441e-05" width="47.1429" height="47.1429" stroke="#595959" stroke-opacity="0.3" stroke-width="0.942857"/>
<rect x="707.143" y="-1.14441e-05" width="47.1429" height="47.1429" stroke="#595959" stroke-opacity="0.3" stroke-width="0.942857"/>
<rect x="754.286" y="-1.14441e-05" width="47.1429" height="47.1429" stroke="#595959" stroke-opacity="0.3" stroke-width="0.942857"/>
<rect x="801.429" y="-1.14441e-05" width="47.1429" height="47.1429" stroke="#595959" stroke-opacity="0.3" stroke-width="0.942857"/>
<rect x="848.571" y="-1.14441e-05" width="47.1429" height="47.1429" stroke="#595959" stroke-opacity="0.3" stroke-width="0.942857"/>
<rect x="895.714" y="-1.14441e-05" width="47.1429" height="47.1429" stroke="#595959" stroke-opacity="0.3" stroke-width="0.942857"/>
<rect x="942.857" width="47.1429" height="47.1429" stroke="#595959" stroke-opacity="0.3" stroke-width="0.942857"/>
<rect y="47.1429" width="47.1429" height="47.1429" stroke="#595959" stroke-opacity="0.3" stroke-width="0.942857"/>
<rect x="47.1428" y="47.1429" width="47.1429" height="47.1429" stroke="#595959" stroke-opacity="0.3" stroke-width="0.942857"/>
<rect x="94.2856" y="47.1429" width="47.1429" height="47.1429" fill="#595959" fill-opacity="0.3" stroke="#595959" stroke-opacity="0.3" stroke-width="0.942857"/>
<rect x="141.429" y="47.1429" width="47.1429" height="47.1429" stroke="#595959" stroke-opacity="0.3" stroke-width="0.942857"/>
<rect x="188.572" y="47.1429" width="47.1429" height="47.1429" stroke="#595959" stroke-opacity="0.3" stroke-width="0.942857"/>
<rect x="235.714" y="47.1429" width="47.1429" height="47.1429" stroke="#595959" stroke-opacity="0.3" stroke-width="0.942857"/>
<rect x="282.857" y="47.1429" width="47.1429" height="47.1429" stroke="#595959" stroke-opacity="0.3" stroke-width="0.942857"/>
<rect x="330" y="47.1429" width="47.1429" height="47.1429" stroke="#595959" stroke-opacity="0.3" stroke-width="0.942857"/>
<rect x="377.143" y="47.1429" width="47.1429" height="47.1429" stroke="#595959" stroke-opacity="0.3" stroke-width="0.942857"/>
<rect x="424.286" y="47.1429" width="47.1429" height="47.1429" fill="#595959" fill-opacity="0.3" stroke="#595959" stroke-opacity="0.3" stroke-width="0.942857"/>
<rect x="471.428" y="47.1429" width="47.1429" height="47.1429" stroke="#595959" stroke-opacity="0.3" stroke-width="0.942857"/>
<rect x="518.572" y="47.1429" width="47.1429" height="47.1429" stroke="#595959" stroke-opacity="0.3" stroke-width="0.942857"/>
<rect x="565.714" y="47.1429" width="47.1429" height="47.1429" stroke="#595959" stroke-opacity="0.3" stroke-width="0.942857"/>
<rect x="612.857" y="47.1429" width="47.1429" height="47.1429" stroke="#595959" stroke-opacity="0.3" stroke-width="0.942857"/>
<rect x="660" y="47.1429" width="47.1429" height="47.1429" stroke="#595959" stroke-opacity="0.3" stroke-width="0.942857"/>
<rect x="707.143" y="47.1429" width="47.1429" height="47.1429" stroke="#595959" stroke-opacity="0.3" stroke-width="0.942857"/>
<rect x="754.286" y="47.1429" width="47.1429" height="47.1429" stroke="#595959" stroke-opacity="0.3" stroke-width="0.942857"/>
<rect x="801.429" y="47.1429" width="47.1429" height="47.1429" stroke="#595959" stroke-opacity="0.3" stroke-width="0.942857"/>
<rect x="848.571" y="47.1429" width="47.1429" height="47.1429" stroke="#595959" stroke-opacity="0.3" stroke-width="0.942857"/>
<rect x="895.714" y="47.1429" width="47.1429" height="47.1429" stroke="#595959" stroke-opacity="0.3" stroke-width="0.942857"/>
<rect x="942.857" y="47.1429" width="47.1429" height="47.1429" stroke="#595959" stroke-opacity="0.3" stroke-width="0.942857"/>
<rect y="94.2856" width="47.1429" height="47.1429" stroke="#595959" stroke-opacity="0.3" stroke-width="0.942857"/>
<rect x="47.1428" y="94.2856" width="47.1429" height="47.1429" stroke="#595959" stroke-opacity="0.3" stroke-width="0.942857"/>
<rect x="94.2856" y="94.2856" width="47.1429" height="47.1429" stroke="#595959" stroke-opacity="0.3" stroke-width="0.942857"/>
<rect x="141.429" y="94.2856" width="47.1429" height="47.1429" stroke="#595959" stroke-opacity="0.3" stroke-width="0.942857"/>
<rect x="188.572" y="94.2856" width="47.1429" height="47.1429" stroke="#595959" stroke-opacity="0.3" stroke-width="0.942857"/>
<rect x="235.714" y="94.2856" width="47.1429" height="47.1429" stroke="#595959" stroke-opacity="0.3" stroke-width="0.942857"/>
<rect x="282.857" y="94.2856" width="47.1429" height="47.1429" stroke="#595959" stroke-opacity="0.3" stroke-width="0.942857"/>
<rect x="330" y="94.2856" width="47.1429" height="47.1429" stroke="#595959" stroke-opacity="0.3" stroke-width="0.942857"/>
<rect x="377.143" y="94.2856" width="47.1429" height="47.1429" stroke="#595959" stroke-opacity="0.3" stroke-width="0.942857"/>
<rect x="424.286" y="94.2856" width="47.1429" height="47.1429" stroke="#595959" stroke-opacity="0.3" stroke-width="0.942857"/>
<rect x="471.428" y="94.2856" width="47.1429" height="47.1429" stroke="#595959" stroke-opacity="0.3" stroke-width="0.942857"/>
<rect x="518.572" y="94.2856" width="47.1429" height="47.1429" stroke="#595959" stroke-opacity="0.3" stroke-width="0.942857"/>
<rect x="565.714" y="94.2856" width="47.1429" height="47.1429" stroke="#595959" stroke-opacity="0.3" stroke-width="0.942857"/>
<rect x="612.857" y="94.2856" width="47.1429" height="47.1429" stroke="#595959" stroke-opacity="0.3" stroke-width="0.942857"/>
<rect x="660" y="94.2856" width="47.1429" height="47.1429" stroke="#595959" stroke-opacity="0.3" stroke-width="0.942857"/>
<rect x="707.143" y="94.2856" width="47.1429" height="47.1429" stroke="#595959" stroke-opacity="0.3" stroke-width="0.942857"/>
<rect x="754.286" y="94.2856" width="47.1429" height="47.1429" fill="#595959" fill-opacity="0.3" stroke="#595959" stroke-opacity="0.3" stroke-width="0.942857"/>
<rect x="801.429" y="94.2856" width="47.1429" height="47.1429" stroke="#595959" stroke-opacity="0.3" stroke-width="0.942857"/>
<rect x="848.571" y="94.2856" width="47.1429" height="47.1429" stroke="#595959" stroke-opacity="0.3" stroke-width="0.942857"/>
<rect x="895.714" y="94.2856" width="47.1429" height="47.1429" stroke="#595959" stroke-opacity="0.3" stroke-width="0.942857"/>
<rect x="942.857" y="94.2856" width="47.1429" height="47.1429" stroke="#595959" stroke-opacity="0.3" stroke-width="0.942857"/>
<rect y="141.429" width="47.1429" height="47.1429" stroke="#595959" stroke-opacity="0.3" stroke-width="0.942857"/>
<rect x="47.1428" y="141.429" width="47.1429" height="47.1429" stroke="#595959" stroke-opacity="0.3" stroke-width="0.942857"/>
<rect x="94.2856" y="141.429" width="47.1429" height="47.1429" stroke="#595959" stroke-opacity="0.3" stroke-width="0.942857"/>
<rect x="141.429" y="141.429" width="47.1429" height="47.1429" stroke="#595959" stroke-opacity="0.3" stroke-width="0.942857"/>
<rect x="188.572" y="141.429" width="47.1429" height="47.1429" stroke="#595959" stroke-opacity="0.3" stroke-width="0.942857"/>
<rect x="235.714" y="141.429" width="47.1429" height="47.1429" stroke="#595959" stroke-opacity="0.3" stroke-width="0.942857"/>
<rect x="282.857" y="141.429" width="47.1429" height="47.1429" stroke="#595959" stroke-opacity="0.3" stroke-width="0.942857"/>
<rect x="330" y="141.429" width="47.1429" height="47.1429" stroke="#595959" stroke-opacity="0.3" stroke-width="0.942857"/>
<rect x="377.143" y="141.429" width="47.1429" height="47.1429" stroke="#595959" stroke-opacity="0.3" stroke-width="0.942857"/>
<rect x="424.286" y="141.429" width="47.1429" height="47.1429" stroke="#595959" stroke-opacity="0.3" stroke-width="0.942857"/>
<rect x="471.428" y="141.429" width="47.1429" height="47.1429" stroke="#595959" stroke-opacity="0.3" stroke-width="0.942857"/>
<rect x="518.572" y="141.429" width="47.1429" height="47.1429" stroke="#595959" stroke-opacity="0.3" stroke-width="0.942857"/>
<rect x="565.714" y="141.429" width="47.1429" height="47.1429" stroke="#595959" stroke-opacity="0.3" stroke-width="0.942857"/>
<rect x="612.857" y="141.429" width="47.1429" height="47.1429" stroke="#595959" stroke-opacity="0.3" stroke-width="0.942857"/>
<rect x="660" y="141.429" width="47.1429" height="47.1429" stroke="#595959" stroke-opacity="0.3" stroke-width="0.942857"/>
<rect x="707.143" y="141.429" width="47.1429" height="47.1429" stroke="#595959" stroke-opacity="0.3" stroke-width="0.942857"/>
<rect x="754.286" y="141.429" width="47.1429" height="47.1429" stroke="#595959" stroke-opacity="0.3" stroke-width="0.942857"/>
<rect x="801.429" y="141.429" width="47.1429" height="47.1429" stroke="#595959" stroke-opacity="0.3" stroke-width="0.942857"/>
<rect x="848.571" y="141.429" width="47.1429" height="47.1429" stroke="#595959" stroke-opacity="0.3" stroke-width="0.942857"/>
<rect x="895.714" y="141.429" width="47.1429" height="47.1429" stroke="#595959" stroke-opacity="0.3" stroke-width="0.942857"/>
<rect x="942.857" y="141.429" width="47.1429" height="47.1429" stroke="#595959" stroke-opacity="0.3" stroke-width="0.942857"/>
<rect y="188.571" width="47.1429" height="47.1429" stroke="#595959" stroke-opacity="0.3" stroke-width="0.942857"/>
<rect x="47.1428" y="188.571" width="47.1429" height="47.1429" stroke="#595959" stroke-opacity="0.3" stroke-width="0.942857"/>
<rect x="94.2856" y="188.571" width="47.1429" height="47.1429" stroke="#595959" stroke-opacity="0.3" stroke-width="0.942857"/>
<rect x="141.429" y="188.571" width="47.1429" height="47.1429" fill="#595959" fill-opacity="0.3" stroke="#595959" stroke-opacity="0.3" stroke-width="0.942857"/>
<rect x="188.572" y="188.571" width="47.1429" height="47.1429" stroke="#595959" stroke-opacity="0.3" stroke-width="0.942857"/>
<rect x="235.714" y="188.571" width="47.1429" height="47.1429" stroke="#595959" stroke-opacity="0.3" stroke-width="0.942857"/>
<rect x="282.857" y="188.571" width="47.1429" height="47.1429" stroke="#595959" stroke-opacity="0.3" stroke-width="0.942857"/>
<rect x="330" y="188.571" width="47.1429" height="47.1429" stroke="#595959" stroke-opacity="0.3" stroke-width="0.942857"/>
<rect x="377.143" y="188.571" width="47.1429" height="47.1429" stroke="#595959" stroke-opacity="0.3" stroke-width="0.942857"/>
<rect x="424.286" y="188.571" width="47.1429" height="47.1429" stroke="#595959" stroke-opacity="0.3" stroke-width="0.942857"/>
<rect x="471.428" y="188.571" width="47.1429" height="47.1429" stroke="#595959" stroke-opacity="0.3" stroke-width="0.942857"/>
<rect x="518.572" y="188.571" width="47.1429" height="47.1429" stroke="#595959" stroke-opacity="0.3" stroke-width="0.942857"/>
<rect x="565.714" y="188.571" width="47.1429" height="47.1429" fill="#595959" fill-opacity="0.3" stroke="#595959" stroke-opacity="0.3" stroke-width="0.942857"/>
<rect x="612.857" y="188.571" width="47.1429" height="47.1429" stroke="#595959" stroke-opacity="0.3" stroke-width="0.942857"/>
<rect x="660" y="188.571" width="47.1429" height="47.1429" stroke="#595959" stroke-opacity="0.3" stroke-width="0.942857"/>
<rect x="707.143" y="188.571" width="47.1429" height="47.1429" stroke="#595959" stroke-opacity="0.3" stroke-width="0.942857"/>
<rect x="754.286" y="188.571" width="47.1429" height="47.1429" stroke="#595959" stroke-opacity="0.3" stroke-width="0.942857"/>
<rect x="801.429" y="188.571" width="47.1429" height="47.1429" stroke="#595959" stroke-opacity="0.3" stroke-width="0.942857"/>
<rect x="848.572" y="188.571" width="47.1429" height="47.1429" stroke="#595959" stroke-opacity="0.3" stroke-width="0.942857"/>
<rect x="895.714" y="188.571" width="47.1429" height="47.1429" stroke="#595959" stroke-opacity="0.3" stroke-width="0.942857"/>
<rect x="942.857" y="188.571" width="47.1429" height="47.1429" stroke="#595959" stroke-opacity="0.3" stroke-width="0.942857"/>
<rect y="235.714" width="47.1429" height="47.1429" stroke="#595959" stroke-opacity="0.3" stroke-width="0.942857"/>
<rect x="47.1428" y="235.714" width="47.1429" height="47.1429" stroke="#595959" stroke-opacity="0.3" stroke-width="0.942857"/>
<rect x="94.2856" y="235.714" width="47.1429" height="47.1429" stroke="#595959" stroke-opacity="0.3" stroke-width="0.942857"/>
<rect x="141.429" y="235.714" width="47.1429" height="47.1429" stroke="#595959" stroke-opacity="0.3" stroke-width="0.942857"/>
<rect x="188.572" y="235.714" width="47.1429" height="47.1429" stroke="#595959" stroke-opacity="0.3" stroke-width="0.942857"/>
<rect x="235.714" y="235.714" width="47.1429" height="47.1429" stroke="#595959" stroke-opacity="0.3" stroke-width="0.942857"/>
<rect x="282.857" y="235.714" width="47.1429" height="47.1429" stroke="#595959" stroke-opacity="0.3" stroke-width="0.942857"/>
<rect x="330" y="235.714" width="47.1429" height="47.1429" stroke="#595959" stroke-opacity="0.3" stroke-width="0.942857"/>
<rect x="377.143" y="235.714" width="47.1429" height="47.1429" stroke="#595959" stroke-opacity="0.3" stroke-width="0.942857"/>
<rect x="424.286" y="235.714" width="47.1429" height="47.1429" stroke="#595959" stroke-opacity="0.3" stroke-width="0.942857"/>
<rect x="471.428" y="235.714" width="47.1429" height="47.1429" stroke="#595959" stroke-opacity="0.3" stroke-width="0.942857"/>
<rect x="518.572" y="235.714" width="47.1429" height="47.1429" stroke="#595959" stroke-opacity="0.3" stroke-width="0.942857"/>
<rect x="565.714" y="235.714" width="47.1429" height="47.1429" stroke="#595959" stroke-opacity="0.3" stroke-width="0.942857"/>
<rect x="612.857" y="235.714" width="47.1429" height="47.1429" stroke="#595959" stroke-opacity="0.3" stroke-width="0.942857"/>
<rect x="660" y="235.714" width="47.1429" height="47.1429" stroke="#595959" stroke-opacity="0.3" stroke-width="0.942857"/>
<rect x="707.143" y="235.714" width="47.1429" height="47.1429" stroke="#595959" stroke-opacity="0.3" stroke-width="0.942857"/>
<rect x="754.286" y="235.714" width="47.1429" height="47.1429" stroke="#595959" stroke-opacity="0.3" stroke-width="0.942857"/>
<rect x="801.429" y="235.714" width="47.1429" height="47.1429" stroke="#595959" stroke-opacity="0.3" stroke-width="0.942857"/>
<rect x="848.571" y="235.714" width="47.1429" height="47.1429" fill="#595959" fill-opacity="0.3" stroke="#595959" stroke-opacity="0.3" stroke-width="0.942857"/>
<rect x="895.714" y="235.714" width="47.1429" height="47.1429" stroke="#595959" stroke-opacity="0.3" stroke-width="0.942857"/>
<rect x="942.857" y="235.714" width="47.1429" height="47.1429" stroke="#595959" stroke-opacity="0.3" stroke-width="0.942857"/>
<rect y="282.857" width="47.1429" height="47.1429" stroke="#595959" stroke-opacity="0.3" stroke-width="0.942857"/>
<rect x="47.1428" y="282.857" width="47.1429" height="47.1429" stroke="#595959" stroke-opacity="0.3" stroke-width="0.942857"/>
<rect x="94.2856" y="282.857" width="47.1429" height="47.1429" stroke="#595959" stroke-opacity="0.3" stroke-width="0.942857"/>
<rect x="141.429" y="282.857" width="47.1429" height="47.1429" stroke="#595959" stroke-opacity="0.3" stroke-width="0.942857"/>
<rect x="188.572" y="282.857" width="47.1429" height="47.1429" stroke="#595959" stroke-opacity="0.3" stroke-width="0.942857"/>
<rect x="235.714" y="282.857" width="47.1429" height="47.1429" stroke="#595959" stroke-opacity="0.3" stroke-width="0.942857"/>
<rect x="282.857" y="282.857" width="47.1429" height="47.1429" stroke="#595959" stroke-opacity="0.3" stroke-width="0.942857"/>
<rect x="330" y="282.857" width="47.1429" height="47.1429" stroke="#595959" stroke-opacity="0.3" stroke-width="0.942857"/>
<rect x="377.143" y="282.857" width="47.1429" height="47.1429" stroke="#595959" stroke-opacity="0.3" stroke-width="0.942857"/>
<rect x="424.286" y="282.857" width="47.1429" height="47.1429" stroke="#595959" stroke-opacity="0.3" stroke-width="0.942857"/>
<rect x="471.428" y="282.857" width="47.1429" height="47.1429" stroke="#595959" stroke-opacity="0.3" stroke-width="0.942857"/>
<rect x="518.572" y="282.857" width="47.1429" height="47.1429" stroke="#595959" stroke-opacity="0.3" stroke-width="0.942857"/>
<rect x="565.714" y="282.857" width="47.1429" height="47.1429" stroke="#595959" stroke-opacity="0.3" stroke-width="0.942857"/>
<rect x="612.857" y="282.857" width="47.1429" height="47.1429" stroke="#595959" stroke-opacity="0.3" stroke-width="0.942857"/>
<rect x="660" y="282.857" width="47.1429" height="47.1429" stroke="#595959" stroke-opacity="0.3" stroke-width="0.942857"/>
<rect x="707.143" y="282.857" width="47.1429" height="47.1429" stroke="#595959" stroke-opacity="0.3" stroke-width="0.942857"/>
<rect x="754.286" y="282.857" width="47.1429" height="47.1429" stroke="#595959" stroke-opacity="0.3" stroke-width="0.942857"/>
<rect x="801.429" y="282.857" width="47.1429" height="47.1429" stroke="#595959" stroke-opacity="0.3" stroke-width="0.942857"/>
<rect x="848.571" y="282.857" width="47.1429" height="47.1429" stroke="#595959" stroke-opacity="0.3" stroke-width="0.942857"/>
<rect x="895.714" y="282.857" width="47.1429" height="47.1429" stroke="#595959" stroke-opacity="0.3" stroke-width="0.942857"/>
<rect x="942.857" y="282.857" width="47.1429" height="47.1429" stroke="#595959" stroke-opacity="0.3" stroke-width="0.942857"/>
<rect y="330" width="47.1429" height="47.1429" stroke="#595959" stroke-opacity="0.3" stroke-width="0.942857"/>
<rect x="47.1428" y="330" width="47.1429" height="47.1429" stroke="#595959" stroke-opacity="0.3" stroke-width="0.942857"/>
<rect x="94.2856" y="330" width="47.1429" height="47.1429" stroke="#595959" stroke-opacity="0.3" stroke-width="0.942857"/>
<rect x="141.429" y="330" width="47.1429" height="47.1429" stroke="#595959" stroke-opacity="0.3" stroke-width="0.942857"/>
<rect x="188.572" y="330" width="47.1429" height="47.1429" stroke="#595959" stroke-opacity="0.3" stroke-width="0.942857"/>
<rect x="235.714" y="330" width="47.1429" height="47.1429" stroke="#595959" stroke-opacity="0.3" stroke-width="0.942857"/>
<rect x="282.857" y="330" width="47.1429" height="47.1429" stroke="#595959" stroke-opacity="0.3" stroke-width="0.942857"/>
<rect x="330" y="330" width="47.1429" height="47.1429" stroke="#595959" stroke-opacity="0.3" stroke-width="0.942857"/>
<rect x="377.143" y="330" width="47.1429" height="47.1429" fill="#595959" fill-opacity="0.3" stroke="#595959" stroke-opacity="0.3" stroke-width="0.942857"/>
<rect x="424.286" y="330" width="47.1429" height="47.1429" stroke="#595959" stroke-opacity="0.3" stroke-width="0.942857"/>
<rect x="471.428" y="330" width="47.1429" height="47.1429" stroke="#595959" stroke-opacity="0.3" stroke-width="0.942857"/>
<rect x="518.572" y="330" width="47.1429" height="47.1429" stroke="#595959" stroke-opacity="0.3" stroke-width="0.942857"/>
<rect x="565.714" y="330" width="47.1429" height="47.1429" stroke="#595959" stroke-opacity="0.3" stroke-width="0.942857"/>
<rect x="612.857" y="330" width="47.1429" height="47.1429" stroke="#595959" stroke-opacity="0.3" stroke-width="0.942857"/>
<rect x="660" y="330" width="47.1429" height="47.1429" stroke="#595959" stroke-opacity="0.3" stroke-width="0.942857"/>
<rect x="707.143" y="330" width="47.1429" height="47.1429" stroke="#595959" stroke-opacity="0.3" stroke-width="0.942857"/>
<rect x="754.286" y="330" width="47.1429" height="47.1429" stroke="#595959" stroke-opacity="0.3" stroke-width="0.942857"/>
<rect x="801.429" y="330" width="47.1429" height="47.1429" stroke="#595959" stroke-opacity="0.3" stroke-width="0.942857"/>
<rect x="848.572" y="330" width="47.1429" height="47.1429" stroke="#595959" stroke-opacity="0.3" stroke-width="0.942857"/>
<rect x="895.714" y="330" width="47.1429" height="47.1429" stroke="#595959" stroke-opacity="0.3" stroke-width="0.942857"/>
<rect x="942.857" y="330" width="47.1429" height="47.1429" stroke="#595959" stroke-opacity="0.3" stroke-width="0.942857"/>
<rect y="377.143" width="47.1429" height="47.1429" stroke="#595959" stroke-opacity="0.3" stroke-width="0.942857"/>
<rect x="47.1428" y="377.143" width="47.1429" height="47.1429" stroke="#595959" stroke-opacity="0.3" stroke-width="0.942857"/>
<rect x="94.2856" y="377.143" width="47.1429" height="47.1429" stroke="#595959" stroke-opacity="0.3" stroke-width="0.942857"/>
<rect x="141.429" y="377.143" width="47.1429" height="47.1429" stroke="#595959" stroke-opacity="0.3" stroke-width="0.942857"/>
<rect x="188.572" y="377.143" width="47.1429" height="47.1429" fill="#595959" fill-opacity="0.3" stroke="#595959" stroke-opacity="0.3" stroke-width="0.942857"/>
<rect x="235.714" y="377.143" width="47.1429" height="47.1429" stroke="#595959" stroke-opacity="0.3" stroke-width="0.942857"/>
<rect x="282.857" y="377.143" width="47.1429" height="47.1429" stroke="#595959" stroke-opacity="0.3" stroke-width="0.942857"/>
<rect x="330" y="377.143" width="47.1429" height="47.1429" stroke="#595959" stroke-opacity="0.3" stroke-width="0.942857"/>
<rect x="377.143" y="377.143" width="47.1429" height="47.1429" stroke="#595959" stroke-opacity="0.3" stroke-width="0.942857"/>
<rect x="424.286" y="377.143" width="47.1429" height="47.1429" stroke="#595959" stroke-opacity="0.3" stroke-width="0.942857"/>
<rect x="471.428" y="377.143" width="47.1429" height="47.1429" stroke="#595959" stroke-opacity="0.3" stroke-width="0.942857"/>
<rect x="518.572" y="377.143" width="47.1429" height="47.1429" stroke="#595959" stroke-opacity="0.3" stroke-width="0.942857"/>
<rect x="565.714" y="377.143" width="47.1429" height="47.1429" stroke="#595959" stroke-opacity="0.3" stroke-width="0.942857"/>
<rect x="612.857" y="377.143" width="47.1429" height="47.1429" stroke="#595959" stroke-opacity="0.3" stroke-width="0.942857"/>
<rect x="660" y="377.143" width="47.1429" height="47.1429" stroke="#595959" stroke-opacity="0.3" stroke-width="0.942857"/>
<rect x="707.143" y="377.143" width="47.1429" height="47.1429" stroke="#595959" stroke-opacity="0.3" stroke-width="0.942857"/>
<rect x="754.286" y="377.143" width="47.1429" height="47.1429" stroke="#595959" stroke-opacity="0.3" stroke-width="0.942857"/>
<rect x="801.429" y="377.143" width="47.1429" height="47.1429" stroke="#595959" stroke-opacity="0.3" stroke-width="0.942857"/>
<rect x="848.571" y="377.143" width="47.1429" height="47.1429" stroke="#595959" stroke-opacity="0.3" stroke-width="0.942857"/>
<rect x="895.714" y="377.143" width="47.1429" height="47.1429" stroke="#595959" stroke-opacity="0.3" stroke-width="0.942857"/>
<rect x="942.857" y="377.143" width="47.1429" height="47.1429" stroke="#595959" stroke-opacity="0.3" stroke-width="0.942857"/>
<rect y="424.286" width="47.1429" height="47.1429" stroke="#595959" stroke-opacity="0.3" stroke-width="0.942857"/>
<rect x="47.1428" y="424.286" width="47.1429" height="47.1429" stroke="#595959" stroke-opacity="0.3" stroke-width="0.942857"/>
<rect x="94.2856" y="424.286" width="47.1429" height="47.1429" stroke="#595959" stroke-opacity="0.3" stroke-width="0.942857"/>
<rect x="141.429" y="424.286" width="47.1429" height="47.1429" stroke="#595959" stroke-opacity="0.3" stroke-width="0.942857"/>
<rect x="188.572" y="424.286" width="47.1429" height="47.1429" stroke="#595959" stroke-opacity="0.3" stroke-width="0.942857"/>
<rect x="235.714" y="424.286" width="47.1429" height="47.1429" stroke="#595959" stroke-opacity="0.3" stroke-width="0.942857"/>
<rect x="282.857" y="424.286" width="47.1429" height="47.1429" stroke="#595959" stroke-opacity="0.3" stroke-width="0.942857"/>
<rect x="330" y="424.286" width="47.1429" height="47.1429" stroke="#595959" stroke-opacity="0.3" stroke-width="0.942857"/>
<rect x="377.143" y="424.286" width="47.1429" height="47.1429" stroke="#595959" stroke-opacity="0.3" stroke-width="0.942857"/>
<rect x="424.286" y="424.286" width="47.1429" height="47.1429" stroke="#595959" stroke-opacity="0.3" stroke-width="0.942857"/>
<rect x="471.428" y="424.286" width="47.1429" height="47.1429" stroke="#595959" stroke-opacity="0.3" stroke-width="0.942857"/>
<rect x="518.572" y="424.286" width="47.1429" height="47.1429" stroke="#595959" stroke-opacity="0.3" stroke-width="0.942857"/>
<rect x="565.714" y="424.286" width="47.1429" height="47.1429" stroke="#595959" stroke-opacity="0.3" stroke-width="0.942857"/>
<rect x="612.857" y="424.286" width="47.1429" height="47.1429" stroke="#595959" stroke-opacity="0.3" stroke-width="0.942857"/>
<rect x="660" y="424.286" width="47.1429" height="47.1429" stroke="#595959" stroke-opacity="0.3" stroke-width="0.942857"/>
<rect x="707.143" y="424.286" width="47.1429" height="47.1429" stroke="#595959" stroke-opacity="0.3" stroke-width="0.942857"/>
<rect x="754.286" y="424.286" width="47.1429" height="47.1429" stroke="#595959" stroke-opacity="0.3" stroke-width="0.942857"/>
<rect x="801.429" y="424.286" width="47.1429" height="47.1429" stroke="#595959" stroke-opacity="0.3" stroke-width="0.942857"/>
<rect x="848.571" y="424.286" width="47.1429" height="47.1429" stroke="#595959" stroke-opacity="0.3" stroke-width="0.942857"/>
<rect x="895.714" y="424.286" width="47.1429" height="47.1429" stroke="#595959" stroke-opacity="0.3" stroke-width="0.942857"/>
<rect x="942.857" y="424.286" width="47.1429" height="47.1429" stroke="#595959" stroke-opacity="0.3" stroke-width="0.942857"/>
<rect y="471.429" width="47.1429" height="47.1429" stroke="#595959" stroke-opacity="0.3" stroke-width="0.942857"/>
<rect x="47.1428" y="471.429" width="47.1429" height="47.1429" stroke="#595959" stroke-opacity="0.3" stroke-width="0.942857"/>
<rect x="94.2856" y="471.429" width="47.1429" height="47.1429" stroke="#595959" stroke-opacity="0.3" stroke-width="0.942857"/>
<rect x="141.429" y="471.429" width="47.1429" height="47.1429" stroke="#595959" stroke-opacity="0.3" stroke-width="0.942857"/>
<rect x="188.572" y="471.429" width="47.1429" height="47.1429" stroke="#595959" stroke-opacity="0.3" stroke-width="0.942857"/>
<rect x="235.714" y="471.429" width="47.1429" height="47.1429" stroke="#595959" stroke-opacity="0.3" stroke-width="0.942857"/>
<rect x="282.857" y="471.429" width="47.1429" height="47.1429" stroke="#595959" stroke-opacity="0.3" stroke-width="0.942857"/>
<rect x="330" y="471.429" width="47.1429" height="47.1429" stroke="#595959" stroke-opacity="0.3" stroke-width="0.942857"/>
<rect x="377.143" y="471.429" width="47.1429" height="47.1429" stroke="#595959" stroke-opacity="0.3" stroke-width="0.942857"/>
<rect x="424.286" y="471.429" width="47.1429" height="47.1429" stroke="#595959" stroke-opacity="0.3" stroke-width="0.942857"/>
<rect x="471.428" y="471.429" width="47.1429" height="47.1429" stroke="#595959" stroke-opacity="0.3" stroke-width="0.942857"/>
<rect x="518.572" y="471.429" width="47.1429" height="47.1429" stroke="#595959" stroke-opacity="0.3" stroke-width="0.942857"/>
<rect x="565.714" y="471.429" width="47.1429" height="47.1429" stroke="#595959" stroke-opacity="0.3" stroke-width="0.942857"/>
<rect x="612.857" y="471.429" width="47.1429" height="47.1429" stroke="#595959" stroke-opacity="0.3" stroke-width="0.942857"/>
<rect x="660" y="471.429" width="47.1429" height="47.1429" stroke="#595959" stroke-opacity="0.3" stroke-width="0.942857"/>
<rect x="707.143" y="471.429" width="47.1429" height="47.1429" stroke="#595959" stroke-opacity="0.3" stroke-width="0.942857"/>
<rect x="754.286" y="471.429" width="47.1429" height="47.1429" stroke="#595959" stroke-opacity="0.3" stroke-width="0.942857"/>
<rect x="801.429" y="471.429" width="47.1429" height="47.1429" stroke="#595959" stroke-opacity="0.3" stroke-width="0.942857"/>
<rect x="848.571" y="471.429" width="47.1429" height="47.1429" stroke="#595959" stroke-opacity="0.3" stroke-width="0.942857"/>
<rect x="895.714" y="471.429" width="47.1429" height="47.1429" stroke="#595959" stroke-opacity="0.3" stroke-width="0.942857"/>
<rect x="942.857" y="471.429" width="47.1429" height="47.1429" stroke="#595959" stroke-opacity="0.3" stroke-width="0.942857"/>
<rect y="518.571" width="47.1429" height="47.1429" stroke="#595959" stroke-opacity="0.3" stroke-width="0.942857"/>
<rect x="47.1428" y="518.571" width="47.1429" height="47.1429" stroke="#595959" stroke-opacity="0.3" stroke-width="0.942857"/>
<rect x="94.2856" y="518.571" width="47.1429" height="47.1429" stroke="#595959" stroke-opacity="0.3" stroke-width="0.942857"/>
<rect x="141.429" y="518.571" width="47.1429" height="47.1429" stroke="#595959" stroke-opacity="0.3" stroke-width="0.942857"/>
<rect x="188.572" y="518.571" width="47.1429" height="47.1429" stroke="#595959" stroke-opacity="0.3" stroke-width="0.942857"/>
<rect x="235.714" y="518.571" width="47.1429" height="47.1429" stroke="#595959" stroke-opacity="0.3" stroke-width="0.942857"/>
<rect x="282.857" y="518.571" width="47.1429" height="47.1429" stroke="#595959" stroke-opacity="0.3" stroke-width="0.942857"/>
<rect x="330" y="518.571" width="47.1429" height="47.1429" stroke="#595959" stroke-opacity="0.3" stroke-width="0.942857"/>
<rect x="377.143" y="518.571" width="47.1429" height="47.1429" stroke="#595959" stroke-opacity="0.3" stroke-width="0.942857"/>
<rect x="424.286" y="518.571" width="47.1429" height="47.1429" stroke="#595959" stroke-opacity="0.3" stroke-width="0.942857"/>
<rect x="471.428" y="518.571" width="47.1429" height="47.1429" stroke="#595959" stroke-opacity="0.3" stroke-width="0.942857"/>
<rect x="518.572" y="518.571" width="47.1429" height="47.1429" stroke="#595959" stroke-opacity="0.3" stroke-width="0.942857"/>
<rect x="565.714" y="518.571" width="47.1429" height="47.1429" stroke="#595959" stroke-opacity="0.3" stroke-width="0.942857"/>
<rect x="612.857" y="518.571" width="47.1429" height="47.1429" stroke="#595959" stroke-opacity="0.3" stroke-width="0.942857"/>
<rect x="660" y="518.571" width="47.1429" height="47.1429" stroke="#595959" stroke-opacity="0.3" stroke-width="0.942857"/>
<rect x="707.143" y="518.571" width="47.1429" height="47.1429" stroke="#595959" stroke-opacity="0.3" stroke-width="0.942857"/>
<rect x="754.286" y="518.571" width="47.1429" height="47.1429" stroke="#595959" stroke-opacity="0.3" stroke-width="0.942857"/>
<rect x="801.429" y="518.571" width="47.1429" height="47.1429" stroke="#595959" stroke-opacity="0.3" stroke-width="0.942857"/>
<rect x="848.571" y="518.571" width="47.1429" height="47.1429" stroke="#595959" stroke-opacity="0.3" stroke-width="0.942857"/>
<rect x="895.714" y="518.571" width="47.1429" height="47.1429" stroke="#595959" stroke-opacity="0.3" stroke-width="0.942857"/>
<rect x="942.857" y="518.571" width="47.1429" height="47.1429" stroke="#595959" stroke-opacity="0.3" stroke-width="0.942857"/>
<rect y="565.714" width="47.1429" height="47.1429" stroke="#595959" stroke-opacity="0.3" stroke-width="0.942857"/>
<rect x="47.1428" y="565.714" width="47.1429" height="47.1429" stroke="#595959" stroke-opacity="0.3" stroke-width="0.942857"/>
<rect x="94.2856" y="565.714" width="47.1429" height="47.1429" stroke="#595959" stroke-opacity="0.3" stroke-width="0.942857"/>
<rect x="141.429" y="565.714" width="47.1429" height="47.1429" stroke="#595959" stroke-opacity="0.3" stroke-width="0.942857"/>
<rect x="188.572" y="565.714" width="47.1429" height="47.1429" stroke="#595959" stroke-opacity="0.3" stroke-width="0.942857"/>
<rect x="235.714" y="565.714" width="47.1429" height="47.1429" stroke="#595959" stroke-opacity="0.3" stroke-width="0.942857"/>
<rect x="282.857" y="565.714" width="47.1429" height="47.1429" stroke="#595959" stroke-opacity="0.3" stroke-width="0.942857"/>
<rect x="330" y="565.714" width="47.1429" height="47.1429" stroke="#595959" stroke-opacity="0.3" stroke-width="0.942857"/>
<rect x="377.143" y="565.714" width="47.1429" height="47.1429" stroke="#595959" stroke-opacity="0.3" stroke-width="0.942857"/>
<rect x="424.286" y="565.714" width="47.1429" height="47.1429" stroke="#595959" stroke-opacity="0.3" stroke-width="0.942857"/>
<rect x="471.428" y="565.714" width="47.1429" height="47.1429" stroke="#595959" stroke-opacity="0.3" stroke-width="0.942857"/>
<rect x="518.572" y="565.714" width="47.1429" height="47.1429" stroke="#595959" stroke-opacity="0.3" stroke-width="0.942857"/>
<rect x="565.714" y="565.714" width="47.1429" height="47.1429" stroke="#595959" stroke-opacity="0.3" stroke-width="0.942857"/>
<rect x="612.857" y="565.714" width="47.1429" height="47.1429" stroke="#595959" stroke-opacity="0.3" stroke-width="0.942857"/>
<rect x="660" y="565.714" width="47.1429" height="47.1429" stroke="#595959" stroke-opacity="0.3" stroke-width="0.942857"/>
<rect x="707.143" y="565.714" width="47.1429" height="47.1429" stroke="#595959" stroke-opacity="0.3" stroke-width="0.942857"/>
<rect x="754.286" y="565.714" width="47.1429" height="47.1429" stroke="#595959" stroke-opacity="0.3" stroke-width="0.942857"/>
<rect x="801.429" y="565.714" width="47.1429" height="47.1429" stroke="#595959" stroke-opacity="0.3" stroke-width="0.942857"/>
<rect x="848.571" y="565.714" width="47.1429" height="47.1429" stroke="#595959" stroke-opacity="0.3" stroke-width="0.942857"/>
<rect x="895.714" y="565.714" width="47.1429" height="47.1429" stroke="#595959" stroke-opacity="0.3" stroke-width="0.942857"/>
<rect x="942.857" y="565.714" width="47.1429" height="47.1429" stroke="#595959" stroke-opacity="0.3" stroke-width="0.942857"/>
<g filter="url(#filter0_f_110_1569)">
<rect x="-80.1428" y="-664.793" width="1195.54" height="941.627" fill="url(#paint0_radial_110_1569)"/>
</g>
<rect x="-212.614" y="-220.769" width="1360.54" height="854.841" fill="url(#paint1_radial_110_1569)" stroke="#0A101F" stroke-width="0.942857"/>
</g>
<defs>
<filter id="filter0_f_110_1569" x="-363" y="-947.65" width="1761.26" height="1507.34" filterUnits="userSpaceOnUse" color-interpolation-filters="sRGB">
<feFlood flood-opacity="0" result="BackgroundImageFix"/>
<feBlend mode="normal" in="SourceGraphic" in2="BackgroundImageFix" result="shape"/>
<feGaussianBlur stdDeviation="141.429" result="effect1_foregroundBlur_110_1569"/>
</filter>
<radialGradient id="paint0_radial_110_1569" cx="0" cy="0" r="1" gradientUnits="userSpaceOnUse" gradientTransform="translate(517.629 -193.979) rotate(90) scale(470.814 597.771)">
<stop offset="0.015625" stop-color="#191919" stop-opacity="0.69"/>
<stop offset="0.223958" stop-color="#191919" stop-opacity="0.34"/>
<stop offset="0.911458" stop-color="#191919" stop-opacity="0"/>
</radialGradient>
<radialGradient id="paint1_radial_110_1569" cx="0" cy="0" r="1" gradientUnits="userSpaceOnUse" gradientTransform="translate(467.657 206.651) rotate(90) scale(426.949 679.8)">
<stop stop-color="#191919" stop-opacity="0"/>
<stop offset="0.833333" stop-color="#191919"/>
</radialGradient>
<clipPath id="clip0_110_1569">
<rect width="990" height="633.6" fill="white"/>
</clipPath>
</defs>
</svg>
