<svg width="32" height="32" viewBox="0 0 32 32" fill="none" xmlns="http://www.w3.org/2000/svg">
<rect width="32" height="32" fill="#0A0A0A"/>
<path d="M24.3274 12.7109H20.2834C20.2095 12.1877 20.0587 11.723 19.831 11.3168C19.6032 10.9044 19.3108 10.5535 18.9538 10.2642C18.5968 9.9749 18.1844 9.75331 17.7166 9.59943C17.255 9.44555 16.7533 9.36861 16.2116 9.36861C15.233 9.36861 14.3804 9.61174 13.6541 10.098C12.9278 10.5781 12.3646 11.2798 11.9645 12.2031C11.5644 13.1203 11.3643 14.2344 11.3643 15.5455C11.3643 16.8935 11.5644 18.026 11.9645 18.9432C12.3707 19.8603 12.937 20.5528 13.6634 21.0206C14.3897 21.4884 15.2299 21.7223 16.1839 21.7223C16.7195 21.7223 17.215 21.6515 17.6705 21.5099C18.1321 21.3684 18.5414 21.1622 18.8984 20.8913C19.2554 20.6143 19.5509 20.2789 19.7848 19.8849C20.0249 19.491 20.1911 19.0417 20.2834 18.5369L24.3274 18.5554C24.2228 19.4233 23.9612 20.2604 23.5426 21.0668C23.1302 21.867 22.5732 22.584 21.8714 23.218C21.1759 23.8459 20.3449 24.3445 19.3786 24.7138C18.4183 25.0769 17.3319 25.2585 16.1193 25.2585C14.4328 25.2585 12.9247 24.8769 11.5952 24.1136C10.2718 23.3504 9.22538 22.2455 8.45597 20.799C7.69271 19.3525 7.31108 17.6013 7.31108 15.5455C7.31108 13.4834 7.69886 11.7292 8.47443 10.2827C9.25 8.83617 10.3026 7.73437 11.6321 6.97727C12.9616 6.21401 14.4574 5.83239 16.1193 5.83239C17.215 5.83239 18.2306 5.98627 19.1662 6.29403C20.108 6.6018 20.942 7.05114 21.6683 7.64204C22.3946 8.2268 22.9856 8.94389 23.4411 9.79332C23.9027 10.6428 24.1982 11.6153 24.3274 12.7109Z" fill="#FAFAFA"/>
</svg>
