<svg width="180" height="65" viewBox="0 0 180 65" fill="none" xmlns="http://www.w3.org/2000/svg">
<path d="M17.9332 27.9825C17.8826 29.1674 17.8574 30.6677 17.8574 32.483C17.8574 34.2983 17.8826 35.811 17.9332 37.0212C17.9836 38.2063 18.0845 39.1517 18.236 39.8577C18.4127 40.5636 18.6525 41.0552 18.9554 41.3327C19.2836 41.6099 19.7127 41.7487 20.2428 41.7487C20.7729 41.7487 21.1894 41.6099 21.4923 41.3327C21.8205 41.0552 22.0603 40.5636 22.2118 39.8577C22.3884 39.1517 22.502 38.2063 22.5525 37.0212C22.6031 35.811 22.6283 34.2983 22.6283 32.483C22.6283 30.6677 22.6031 29.1674 22.5525 27.9825C22.502 26.7722 22.3884 25.8141 22.2118 25.1082C22.0603 24.4022 21.8205 23.9106 21.4923 23.6333C21.1894 23.3559 20.7729 23.2172 20.2428 23.2172C19.7127 23.2172 19.2836 23.3559 18.9554 23.6333C18.6525 23.9106 18.4127 24.4022 18.236 25.1082C18.0845 25.8141 17.9836 26.7722 17.9332 27.9825Z" fill="#BBBBBB"/>
<path fill-rule="evenodd" clip-rule="evenodd" d="M19.2746 4.3886C10.1447 4.58373 2.88767 12.1088 3.03416 21.2287L3.21416 32.4342L3.03416 43.6396C2.88767 52.7597 10.1447 60.2847 19.2746 60.4797L30.495 60.7195L41.7153 60.4797C50.8452 60.2847 58.1024 52.7597 57.9559 43.6396L57.7759 32.4342L57.9559 21.2287C58.1024 12.1088 50.8452 4.58373 41.7153 4.3886L30.495 4.14893L19.2746 4.3886ZM30.8827 46.7029L26.6419 50.3714L22.7797 46.2113C22.4768 46.2617 22.1738 46.2996 21.871 46.3248C21.5933 46.3751 21.2777 46.4004 20.9244 46.4004H20.2429C18.4506 46.4004 16.936 46.1609 15.6991 45.6819C14.4622 45.2028 13.4652 44.4085 12.7079 43.2993C11.9507 42.1647 11.4079 40.7149 11.0797 38.9501C10.7516 37.1599 10.5875 35.0041 10.5875 32.483C10.5875 29.9617 10.7516 27.8186 11.0797 26.0536C11.4079 24.2635 11.9507 22.8139 12.7079 21.7045C13.4652 20.5699 14.4622 19.7504 15.6991 19.2462C16.936 18.7167 18.4506 18.452 20.2429 18.452C22.0351 18.452 23.5496 18.7167 24.7865 19.2462C26.0233 19.7504 27.0205 20.5699 27.7778 21.7045C28.535 22.8139 29.0778 24.2635 29.406 26.0536C29.7341 27.8186 29.8982 29.9617 29.8982 32.483C29.8982 35.0798 29.7215 37.2733 29.368 39.0635C29.0147 40.8536 28.4341 42.316 27.6263 43.4506L30.8827 46.7029ZM42.8349 28.7009V27.1882C42.8349 25.6502 42.6835 24.6039 42.3805 24.0493C42.0777 23.4946 41.5855 23.2172 40.9038 23.2172C40.3738 23.2172 39.9447 23.3559 39.6165 23.6333C39.3136 23.9106 39.0738 24.4022 38.8971 25.1082C38.7456 25.8141 38.6447 26.7722 38.5941 27.9825C38.5436 29.1674 38.5184 30.6677 38.5184 32.483C38.5184 34.2983 38.5436 35.811 38.5941 37.0212C38.6447 38.2063 38.7456 39.1517 38.8971 39.8577C39.0738 40.5636 39.3136 41.0552 39.6165 41.3327C39.9447 41.6099 40.3738 41.7487 40.9038 41.7487C41.3329 41.7487 41.6864 41.6478 41.964 41.4461C42.2418 41.2191 42.4562 40.8536 42.6077 40.3494C42.7592 39.8451 42.8601 39.1769 42.9107 38.3449C42.9864 37.4877 43.0242 36.4162 43.0242 35.1303H49.8397V37.1348C49.8397 39.0257 49.5873 40.5763 49.0825 41.7864C48.5776 42.9967 47.9087 43.9548 47.0757 44.6607C46.2426 45.3415 45.2835 45.7953 44.1979 46.0222C43.1379 46.2743 42.0397 46.4004 40.9038 46.4004C38.9349 46.4004 37.3195 46.1609 36.0572 45.6819C34.7952 45.2028 33.8107 44.4085 33.1039 43.2993C32.397 42.1647 31.9048 40.7149 31.6272 38.9501C31.3747 37.1599 31.2485 35.0041 31.2485 32.483C31.2485 29.9112 31.3999 27.7304 31.7029 25.9402C32.0311 24.1501 32.5738 22.7003 33.3311 21.5911C34.0883 20.4816 35.0854 19.6874 36.3223 19.2083C37.5591 18.7041 39.0864 18.452 40.9038 18.452C42.4942 18.452 43.8446 18.6537 44.9553 19.0572C46.0659 19.4606 46.9621 20.0405 47.6437 20.7968C48.3504 21.528 48.8552 22.4231 49.1582 23.482C49.4863 24.5156 49.6504 25.6881 49.6504 26.9992V28.7009H42.8349Z" fill="#BBBBBB"/>
<path fill-rule="evenodd" clip-rule="evenodd" d="M91.0451 23.4227L97.218 29.8211L103.391 23.4227H114.116L102.572 34.3914L114.116 45.3599H103.391L97.218 38.9453L91.0451 45.3599H80.304L91.8475 34.3914L80.304 23.4227H91.0451ZM90.45 34.3914L77.895 22.4617H91.4555L97.218 28.4346L102.981 22.4617H116.057V22.4454H138.219C143.287 22.3936 147.576 26.6264 147.507 31.7051C147.506 33.5319 147.011 35.2158 146.021 36.7145C145.276 37.849 144.332 38.7824 143.201 39.4921L147.927 45.5525V41.6222C147.927 38.5428 150.231 36.5797 152.881 35.2778C155.557 33.9634 158.934 33.1422 161.747 32.4778L161.751 32.4768L161.783 32.4688C163.516 32.043 164.992 31.6805 166.043 31.2895C166.575 31.0913 166.924 30.912 167.123 30.7596C167.148 30.7402 167.169 30.7231 167.187 30.7083C167.126 30.6524 167.001 30.569 166.756 30.4729C166.184 30.2492 165.208 30.0808 163.729 30.0804C162.149 30.0967 160.806 30.225 159.89 30.5462C159.438 30.7045 159.166 30.8849 159.012 31.0541C158.882 31.1995 158.804 31.3719 158.811 31.6425L158.835 32.6266H148.27V31.6656C148.27 29.6926 148.658 28.043 149.433 26.6914C150.213 25.3337 151.348 24.3424 152.733 23.6314C155.449 22.2364 159.192 21.8904 163.365 21.8904C167.638 21.8904 171.185 22.3829 173.697 23.6508C174.968 24.2933 176.001 25.1484 176.711 26.2605C177.423 27.3754 177.772 28.6879 177.772 30.1802C177.772 32.9419 176.104 34.7009 174.059 35.8474C172.073 36.9606 169.574 37.5927 167.498 38.0985H177.412V46.2885H148.5L148.512 46.3048H136.931L132.789 40.951H126.565V46.3048H116.507L116.525 46.3211H102.98L97.218 40.3336L91.4562 46.3211H77.895L90.45 34.3914ZM116.057 45.8761V22.9066L103.97 34.3914L116.057 45.8761ZM133.264 39.99L137.406 45.3436H146.542L141.744 39.1901C142.045 39.0511 142.331 38.8973 142.607 38.7291C143.657 38.0871 144.529 37.2343 145.216 36.1868C146.1 34.8483 146.542 33.3467 146.542 31.6982C146.608 27.1605 142.761 23.3574 138.225 23.4064H117.021V45.3436H125.6V39.99H133.264ZM162.448 39.0595C162.749 38.6926 163.293 38.3806 164.016 38.0985C164.867 37.7655 165.964 37.4739 167.196 37.1825C171.421 36.1541 176.808 34.7504 176.808 30.1802C176.808 24.8264 171.831 22.8514 163.365 22.8514C155.405 22.8514 149.76 24.1467 149.27 30.7044C149.246 31.0131 149.234 31.3332 149.234 31.6656H157.847C157.846 31.6293 157.846 31.5936 157.847 31.5585C157.894 29.6086 160.589 29.1513 163.725 29.1192C166.787 29.1192 168.195 29.8048 168.195 30.7352C168.195 31.8836 165.478 32.5512 162.066 33.3892L161.974 33.412C156.308 34.7504 148.89 36.6112 148.89 41.6222V45.3273H176.447V39.0595H162.448ZM167.241 30.782C167.241 30.782 167.235 30.7759 167.232 30.7618C167.241 30.7745 167.241 30.782 167.241 30.782ZM136.983 31.6982C136.983 31.1844 136.578 30.7822 136.063 30.7822H126.565V32.5978H136.063C136.34 32.5978 136.534 32.5139 136.707 32.3407C136.905 32.1435 136.983 31.9463 136.983 31.6982ZM137.946 31.6982C137.946 30.6535 137.111 29.8211 136.063 29.8211H125.6V33.5589H136.063C136.587 33.5589 137.03 33.3793 137.39 33.0203C137.766 32.6448 137.946 32.2042 137.946 31.6982Z" fill="#BBBBBB"/>
<path d="M81.0981 61.1862H85.2075V55.5662L89.3246 61.1862H91.3792L95.4963 55.5662V61.1862H99.6057V50.6515H94.4691L90.352 55.9188L86.2427 50.6515H81.0981V61.1862Z" fill="#BBBBBB"/>
<path d="M108.263 50.3928C104.295 50.4007 101.049 51.545 101.064 55.5347V56.3028C101.049 60.2847 104.295 61.437 108.263 61.4448C112.223 61.437 115.47 60.2847 115.455 56.3028V55.5347C115.455 51.5529 112.231 50.3928 108.263 50.3928ZM111.345 56.0442C111.369 57.7687 109.941 58.0822 108.263 58.1057C106.577 58.0822 105.15 57.7687 105.174 56.0442V55.7856C105.15 54.0689 106.577 53.7554 108.263 53.7319C109.941 53.7554 111.369 54.0689 111.345 55.7856V56.0442Z" fill="#BBBBBB"/>
<path d="M126.967 55.9346C126.967 56.9927 126.363 57.8627 125.297 57.8627H120.795V54.0063H125.297C126.363 54.0063 126.967 54.8684 126.967 55.9346ZM116.686 50.6672V61.2018H126.065C128.959 61.2411 131.108 58.7955 131.084 55.9346C131.108 53.0578 128.959 50.6279 126.065 50.6672H116.686Z" fill="#BBBBBB"/>
<path d="M142.525 56.0522C142.549 57.7843 141.123 58.0822 139.443 58.1057C137.758 58.0822 136.339 57.7843 136.354 56.0522V50.6515H132.245V56.3108C132.229 60.2926 135.492 61.4371 139.443 61.4448C143.396 61.4371 146.659 60.2926 146.643 56.3108V50.6515H142.525V56.0522Z" fill="#BBBBBB"/>
<path d="M148.493 50.6515V61.1862H160.83V57.8471H152.603V50.6515H148.493Z" fill="#BBBBBB"/>
<path d="M162.233 61.2018H174.57V58.4977H166.342V57.1494H174.57V54.7118H166.342V53.3635H174.57V50.6672H162.233V61.2018Z" fill="#BBBBBB"/>
<path d="M83.4642 10.5184V8.29828H89.555C89.8501 8.29828 90.1069 8.40491 90.3163 8.62785C90.5352 8.84124 90.6399 9.1029 90.6399 9.4131C90.6399 9.71376 90.5352 9.97542 90.3163 10.1985C90.1069 10.4118 89.8501 10.5184 89.555 10.5184H83.4642ZM78.4775 4.48832V17.5179H83.4642V14.338H90.8017C93.4379 14.3769 95.6743 12.0986 95.6363 9.4131C95.6743 6.71809 93.4379 4.45914 90.8017 4.48832H78.4775Z" fill="#BBBBBB"/>
<path d="M105.562 4.14893C100.747 4.15861 96.8068 5.57409 96.8258 10.5087V11.4588C96.8068 16.3837 100.747 17.8087 105.562 17.8184C110.368 17.8087 114.308 16.3837 114.289 11.4588V10.5087C114.289 5.58377 110.377 4.14893 105.562 4.14893ZM109.302 11.1388C109.331 13.2716 107.598 13.6594 105.562 13.6886C103.516 13.6594 101.784 13.2716 101.813 11.1388V10.8189C101.784 8.69574 103.516 8.30796 105.562 8.27892C107.598 8.30796 109.331 8.69574 109.302 10.8189V11.1388Z" fill="#BBBBBB"/>
<path d="M133.732 12.7384L130.771 4.48828H125.157L122.188 12.7384L119.228 4.48828H113.613L119.228 17.5179H125.157L127.965 11.0031L130.771 17.5179H136.7L142.316 4.48828H136.7L133.732 12.7384Z" fill="#BBBBBB"/>
<path d="M142.697 17.5179H157.666V14.1733H147.683V12.5057H157.666V9.49065H147.683V7.8232H157.666V4.48828H142.697V17.5179Z" fill="#BBBBBB"/>
<path d="M160.322 4.47855V17.5083H165.308V14.3284H169.762L172.17 17.5083H177.48L174.691 13.8533C175.529 13.4559 176.205 12.8548 176.709 12.0696C177.224 11.2746 177.48 10.3828 177.48 9.40347C177.519 6.70832 175.281 4.44951 172.646 4.47855H160.322ZM171.389 8.28865C171.998 8.28865 172.484 8.78307 172.484 9.40347C172.484 9.704 172.379 9.96579 172.16 10.1887C171.951 10.4021 171.694 10.5088 171.389 10.5088H165.308V8.28865H171.389Z" fill="#BBBBBB"/>
</svg>
