<svg width="180" height="51" viewBox="0 0 180 51" fill="none" xmlns="http://www.w3.org/2000/svg">
<g clip-path="url(#clip0_89_61)">
<path d="M155.833 19.6945V19.4504H155.858C156.443 19.4504 156.915 19.2714 157.273 18.9134C157.631 18.5554 157.81 18.0834 157.81 17.4976V9.49101C157.81 8.8726 157.68 8.39254 157.42 8.0508C157.176 7.70906 156.647 7.53819 155.833 7.53819V7.29408H158.25C158.917 7.29408 159.429 7.26156 159.787 7.19644C160.162 7.13136 160.438 7.04998 160.617 6.95234C160.796 6.83844 160.926 6.7245 161.007 6.6106H161.252L161.276 9.78393C161.699 8.93772 162.342 8.25423 163.204 7.73347C164.067 7.21274 164.978 6.95234 165.938 6.95234C166.865 6.95234 167.638 7.21274 168.256 7.73347C168.875 8.25423 169.273 8.95398 169.452 9.83275C169.908 8.95398 170.558 8.25423 171.405 7.73347C172.267 7.21274 173.194 6.95234 174.187 6.95234C175.277 6.95234 176.148 7.31034 176.799 8.02639C177.466 8.74244 177.799 9.68629 177.799 10.858V17.4976C177.799 18.0834 177.978 18.5554 178.336 18.9134C178.694 19.2714 179.166 19.4504 179.752 19.4504H179.776V19.6945H172.332V19.4504H172.357C172.942 19.4504 173.414 19.2714 173.772 18.9134C174.13 18.5554 174.309 18.0834 174.309 17.4976V10.6139C174.309 9.80023 174.147 9.14926 173.821 8.66106C173.495 8.17285 173.073 7.92875 172.552 7.92875C172.048 7.92875 171.519 8.15659 170.965 8.61224C170.412 9.05162 169.932 9.62936 169.525 10.3454C169.542 10.3779 169.55 10.4186 169.55 10.4674C169.55 10.5162 169.55 10.5569 169.55 10.5895V17.4976C169.55 18.0834 169.729 18.5554 170.087 18.9134C170.445 19.2714 170.917 19.4504 171.502 19.4504H171.527V19.6945H164.083V19.4504H164.107C164.693 19.4504 165.165 19.2714 165.523 18.9134C165.881 18.5554 166.06 18.0834 166.06 17.4976V10.6139C166.06 9.80023 165.897 9.14926 165.572 8.66106C165.263 8.17285 164.848 7.92875 164.327 7.92875C163.823 7.92875 163.293 8.14844 162.74 8.58783C162.203 9.01095 161.731 9.58865 161.325 10.321V17.4976C161.325 18.0834 161.504 18.5554 161.862 18.9134C162.22 19.2714 162.692 19.4504 163.277 19.4504H163.302V19.6945H155.833Z" fill="#BBBBBB"/>
<path d="M150.701 20.3781L150.676 17.2291C150.253 18.0591 149.61 18.7345 148.748 19.2552C147.885 19.776 146.974 20.0363 146.014 20.0363C144.924 20.0363 144.045 19.6783 143.379 18.9623C142.727 18.2463 142.402 17.3024 142.402 16.1307V9.49109C142.402 8.87268 142.28 8.39263 142.036 8.05088C141.792 7.70914 141.255 7.53827 140.425 7.53827V7.29417H142.89C143.72 7.29417 144.355 7.20468 144.794 7.02565C145.201 6.84663 145.485 6.62694 145.648 6.36658H145.892V16.3748C145.892 17.1885 146.055 17.8394 146.381 18.3276C146.706 18.8158 147.129 19.0599 147.65 19.0599C148.154 19.0599 148.675 18.8484 149.212 18.4252C149.749 17.9859 150.22 17.4 150.627 16.6677V9.49109C150.627 8.90524 150.481 8.43334 150.188 8.0753C149.895 7.71729 149.39 7.53827 148.675 7.53827V7.29417H151.14C151.97 7.29417 152.604 7.20468 153.044 7.02565C153.466 6.84663 153.759 6.62694 153.922 6.36658H154.166L154.142 17.4977C154.142 18.0835 154.321 18.5636 154.679 18.9379C155.037 19.2959 155.509 19.4749 156.094 19.4749V19.6946H153.678C153.255 19.6946 152.881 19.7027 152.555 19.719C152.23 19.7515 151.961 19.7841 151.75 19.8166C151.311 19.9143 151.001 20.1014 150.823 20.3781H150.701Z" fill="#BBBBBB"/>
<path d="M135.568 20.0363C135.145 20.0363 134.827 20.02 134.616 19.9875C134.405 19.955 134.201 19.9142 134.006 19.8654C133.827 19.8166 133.583 19.7759 133.274 19.7434C132.965 19.7108 132.493 19.6945 131.858 19.6945L131.272 15.1054H131.59C131.85 16.6352 132.338 17.7905 133.054 18.5717C133.77 19.3365 134.551 19.719 135.397 19.719C136.227 19.719 136.853 19.5481 137.276 19.2063C137.716 18.8646 137.935 18.4008 137.935 17.815C137.935 17.4407 137.838 17.1152 137.642 16.8385C137.463 16.5456 137.146 16.2527 136.691 15.9598C136.235 15.6506 135.617 15.2844 134.836 14.8613L134.128 14.4708C133.233 13.9663 132.566 13.3804 132.126 12.7132C131.703 12.0297 131.492 11.2974 131.492 10.5163C131.492 9.40972 131.891 8.53906 132.688 7.90439C133.502 7.26973 134.583 6.95239 135.934 6.95239C136.276 6.95239 136.552 6.96865 136.764 7.00121C136.975 7.03377 137.179 7.07444 137.374 7.12326C137.569 7.17208 137.813 7.21275 138.106 7.24532C138.399 7.27788 138.79 7.29414 139.278 7.29414L139.619 11.2242H139.326C139.229 10.4594 139.009 9.78398 138.667 9.19814C138.342 8.59603 137.951 8.13224 137.496 7.80675C137.04 7.46501 136.577 7.29414 136.105 7.29414C135.486 7.29414 134.99 7.45686 134.616 7.78234C134.258 8.10783 134.079 8.56347 134.079 9.14932C134.079 9.5887 134.217 9.99552 134.494 10.3698C134.787 10.7279 135.34 11.1184 136.154 11.5415L136.886 11.9077C138.025 12.4935 138.854 13.1038 139.375 13.7384C139.896 14.3731 140.156 15.1868 140.156 16.1795C140.156 18.7181 138.627 20.0038 135.568 20.0363Z" fill="#BBBBBB"/>
<path d="M115.563 24.8207V24.5766H115.587C116.173 24.5766 116.645 24.3976 117.003 24.0396C117.361 23.6816 117.54 23.2097 117.54 22.6238V9.49109C117.524 8.77508 117.369 8.27058 117.076 7.97765C116.783 7.68473 116.279 7.53827 115.563 7.53827V7.29417H117.979C118.939 7.29417 119.598 7.20468 119.956 7.02565C120.314 6.84663 120.575 6.62694 120.737 6.36658H120.981L121.006 9.49109C121.38 8.75878 121.95 8.14853 122.714 7.66032C123.479 7.17212 124.284 6.92801 125.13 6.92801C126.042 6.92801 126.847 7.20468 127.547 7.75796C128.247 8.31125 128.791 9.06796 129.182 10.0281C129.589 10.972 129.792 12.0623 129.792 13.2991C129.792 14.6661 129.548 15.8541 129.06 16.863C128.572 17.872 127.881 18.6531 126.985 19.2064C126.107 19.7597 125.057 20.0363 123.837 20.0363C123.17 20.0363 122.625 19.9305 122.202 19.719C121.779 19.5237 121.396 19.1901 121.055 18.7182V22.6238C121.055 23.2097 121.234 23.6816 121.591 24.0396C121.95 24.3976 122.421 24.5766 123.007 24.5766H123.031V24.8207H115.563ZM123.324 19.6213C124.203 19.6213 124.87 19.0762 125.326 17.9859C125.765 16.8793 125.985 15.2926 125.985 13.2259C125.985 9.67826 125.269 7.90442 123.837 7.90442C123.284 7.90442 122.739 8.12412 122.202 8.5635C121.665 9.00288 121.282 9.53991 121.055 10.1746V15.8622C121.055 17.0339 121.258 17.9533 121.665 18.6205C122.072 19.2878 122.625 19.6213 123.324 19.6213Z" fill="#BBBBBB"/>
<path d="M108.903 19.6946V19.4504H108.927C109.513 19.4504 109.985 19.2715 110.343 18.9134C110.701 18.5554 110.88 18.0835 110.88 17.4976V9.49106C110.88 8.87266 110.75 8.3926 110.49 8.05086C110.245 7.70912 109.717 7.53824 108.903 7.53824V7.29414H111.393C112.222 7.29414 112.857 7.20465 113.296 7.02563C113.703 6.8466 113.988 6.62691 114.151 6.36655H114.395V17.4976C114.395 18.0835 114.574 18.5554 114.932 18.9134C115.29 19.2715 115.761 19.4504 116.347 19.4504H116.372V19.6946H108.903ZM112.613 4.8287C112.027 4.8287 111.539 4.64157 111.149 4.26728C110.775 3.87671 110.587 3.38851 110.587 2.80266C110.587 2.21681 110.775 1.73675 111.149 1.36246C111.539 0.971893 112.027 0.776611 112.613 0.776611C113.183 0.776611 113.655 0.971893 114.028 1.36246C114.419 1.75302 114.614 2.23309 114.614 2.80266C114.614 3.37223 114.419 3.8523 114.028 4.24287C113.655 4.63342 113.183 4.8287 112.613 4.8287Z" fill="#BBBBBB"/>
<path d="M101.9 20.0363C100.566 20.0363 99.3947 19.7678 98.3858 19.2308C97.3934 18.6937 96.6206 17.937 96.0671 16.9606C95.5141 15.9842 95.2373 14.8288 95.2373 13.4943C95.2373 12.1599 95.5141 11.0045 96.0671 10.0281C96.6206 9.05167 97.3934 8.29496 98.3858 7.75793C99.3947 7.22091 100.566 6.95239 101.9 6.95239C103.235 6.95239 104.398 7.22091 105.391 7.75793C106.383 8.29496 107.156 9.05167 107.709 10.0281C108.263 11.0045 108.539 12.1599 108.539 13.4943C108.539 14.8288 108.263 15.9842 107.709 16.9606C107.156 17.937 106.383 18.6937 105.391 19.2308C104.398 19.7678 103.235 20.0363 101.9 20.0363ZM101.876 19.719C102.446 19.719 102.934 19.4342 103.34 18.8646C103.747 18.2951 104.065 17.5383 104.292 16.5944C104.52 15.6343 104.634 14.5928 104.634 13.4699C104.634 12.2494 104.512 11.1754 104.268 10.2478C104.04 9.30393 103.715 8.57162 103.292 8.05085C102.885 7.51383 102.421 7.24532 101.9 7.24532C101.347 7.24532 100.859 7.53009 100.436 8.09967C100.029 8.66926 99.712 9.42598 99.4841 10.3698C99.2566 11.3137 99.1424 12.3471 99.1424 13.4699C99.1424 14.7067 99.2644 15.7971 99.5085 16.7409C99.7526 17.6848 100.078 18.4171 100.485 18.9378C100.908 19.4586 101.372 19.719 101.876 19.719Z" fill="#BBBBBB"/>
<path d="M88.6907 25.1624C86.9661 25.1624 85.5666 24.9265 84.4927 24.4545C83.4349 23.9989 82.9062 23.3968 82.9062 22.6482C82.9062 22.0786 83.1747 21.566 83.7117 21.1103C84.2648 20.671 85.0135 20.3292 85.9571 20.0851C84.4278 19.6945 83.6629 19.003 83.6629 18.0102C83.6629 17.4732 83.8742 16.9769 84.2974 16.5212C84.7206 16.0493 85.3142 15.675 86.0791 15.3983C85.2654 15.0403 84.6309 14.5196 84.1754 13.8361C83.7361 13.1526 83.5164 12.3471 83.5164 11.4195C83.5164 10.0688 83.9801 8.98659 84.9076 8.1729C85.8512 7.35926 87.1125 6.95239 88.6907 6.95239C89.439 6.95239 90.1712 7.06629 90.8873 7.29414H95.3781L95.134 7.73352H91.8147C92.4654 8.10783 92.9618 8.61229 93.3035 9.24696C93.6614 9.86536 93.8405 10.5895 93.8405 11.4195C93.8405 12.7702 93.3768 13.8605 92.4493 14.6904C91.538 15.5041 90.2854 15.911 88.6907 15.911C87.812 15.911 87.0393 15.7808 86.372 15.5204C85.8512 15.7971 85.591 16.1225 85.591 16.4968C85.591 16.8223 85.8189 17.042 86.2744 17.1559C86.5023 17.221 86.8275 17.2779 87.2507 17.3268C87.6739 17.3756 88.1864 17.4081 88.7883 17.4244L89.6425 17.4732C91.5136 17.5383 92.9536 17.8963 93.9625 18.5473C94.9876 19.1982 95.5001 20.0851 95.5001 21.208C95.5001 22.4611 94.8983 23.4293 93.694 24.1128C92.4898 24.8126 90.8223 25.1624 88.6907 25.1624ZM88.6663 15.618C89.1705 15.618 89.5854 15.2356 89.911 14.4708C90.2039 13.7059 90.3503 12.6888 90.3503 11.4195C90.3503 10.1339 90.2039 9.11675 89.911 8.36819C89.602 7.63588 89.1949 7.26973 88.6907 7.26973C88.1698 7.26973 87.7632 7.63588 87.4703 8.36819C87.1774 9.11675 87.031 10.1339 87.031 11.4195C87.031 12.7051 87.1774 13.7303 87.4703 14.4952C87.7632 15.2438 88.162 15.618 88.6663 15.618ZM88.9591 24.8451C89.7075 24.8451 90.3991 24.7312 91.0337 24.5034C91.6683 24.2918 92.1725 23.9908 92.5469 23.6002C92.9374 23.2096 93.1327 22.7621 93.1327 22.2576C93.1327 21.7043 92.8481 21.265 92.2785 20.9395C91.6766 20.6303 90.7569 20.4676 89.5205 20.4513L88.6663 20.4024C88.1942 20.3862 87.7549 20.3536 87.3483 20.3048C86.9578 20.2723 86.6078 20.2235 86.2988 20.1583C85.9571 20.2723 85.7048 20.5001 85.5422 20.8418C85.3796 21.1836 85.2981 21.5904 85.2981 22.0623C85.2981 22.9086 85.6154 23.5839 86.25 24.0884C86.8846 24.5929 87.7876 24.8451 88.9591 24.8451Z" fill="#BBBBBB"/>
<path d="M75.468 20.0363C74.1339 20.0363 72.9624 19.7678 71.9534 19.2308C70.961 18.6937 70.1878 17.937 69.6348 16.9606C69.0817 15.9842 68.8049 14.8288 68.8049 13.4943C68.8049 12.1599 69.0817 11.0045 69.6348 10.0281C70.1878 9.05167 70.961 8.29496 71.9534 7.75793C72.9624 7.22091 74.1339 6.95239 75.468 6.95239C76.8021 6.95239 77.9658 7.22091 78.9581 7.75793C79.9505 8.29496 80.7237 9.05167 81.2768 10.0281C81.8299 11.0045 82.1066 12.1599 82.1066 13.4943C82.1066 14.8288 81.8299 15.9842 81.2768 16.9606C80.7237 17.937 79.9505 18.6937 78.9581 19.2308C77.9658 19.7678 76.8021 20.0363 75.468 20.0363ZM75.4436 19.719C76.0132 19.719 76.5013 19.4342 76.908 18.8646C77.3146 18.2951 77.6319 17.5383 77.8598 16.5944C78.0878 15.6343 78.2015 14.5928 78.2015 13.4699C78.2015 12.2494 78.0795 11.1754 77.8354 10.2478C77.6075 9.30393 77.2824 8.57162 76.8592 8.05085C76.4525 7.51383 75.9888 7.24532 75.468 7.24532C74.9149 7.24532 74.4268 7.53009 74.0036 8.09967C73.5969 8.66926 73.2797 9.42598 73.0517 10.3698C72.8238 11.3137 72.71 12.3471 72.71 13.4699C72.71 14.7067 72.8321 15.7971 73.0761 16.7409C73.3202 17.6848 73.6458 18.4171 74.0524 18.9378C74.4756 19.4586 74.9393 19.719 75.4436 19.719Z" fill="#BBBBBB"/>
<path d="M54.1748 19.6945V19.4504H54.1992C54.785 19.4504 55.2565 19.2958 55.6148 18.9866C55.9726 18.6774 56.1518 18.2299 56.1518 17.6441V3.58377C56.1518 2.99792 55.9726 2.52599 55.6148 2.16797C55.2565 1.80995 54.785 1.63095 54.1992 1.63095H54.1748V1.38684H61.9606V1.63095H61.8629C61.2772 1.63095 60.8052 1.80995 60.4473 2.16797C60.0891 2.52599 59.9104 2.99792 59.9104 3.58377V17.7417C59.9104 18.2625 60.0324 18.6693 60.2765 18.9622C60.5367 19.2389 60.9843 19.3772 61.6189 19.3772H62.1314C63.5793 19.3772 64.7996 18.9297 65.7924 18.0346C66.7848 17.1396 67.4111 15.8784 67.6718 14.251H67.9158L67.1836 19.6945H54.1748Z" fill="#BBBBBB"/>
<path d="M155.36 50.8806C154.693 50.8806 154.05 50.7502 153.432 50.49L154.384 47.634C154.79 47.7966 155.23 47.9348 155.702 48.049C156.19 48.1627 156.678 48.2199 157.166 48.2199C157.785 48.2199 158.362 48.0895 158.899 47.8293C159.452 47.5852 159.867 47.1214 160.144 46.4379L160.412 45.7788L155.58 34.5743C155.417 34.1838 155.205 33.8746 154.945 33.6468C154.668 33.4026 154.294 33.2725 153.822 33.2562V33.0121H160.876V33.2562C160.437 33.305 160.095 33.4596 159.851 33.72C159.623 33.9804 159.509 34.314 159.509 34.7208C159.509 35.0789 159.591 35.445 159.753 35.8193L162.218 41.6045L164.683 35.8193C164.846 35.445 164.927 35.0789 164.927 34.7208C164.927 34.314 164.805 33.9804 164.561 33.72C164.333 33.4596 163.992 33.305 163.536 33.2562V33.0121H166.904V33.2562C166.53 33.3376 166.213 33.5817 165.953 33.9885C165.692 34.3791 165.416 34.9161 165.123 35.5996L160.144 47.1702C159.623 48.3742 158.948 49.2939 158.118 49.9286C157.288 50.5632 156.369 50.8806 155.36 50.8806Z" fill="#BBBBBB"/>
<path d="M150.687 45.7544C149.84 45.7544 149.149 45.4858 148.612 44.9488C148.075 44.4118 147.807 43.7117 147.807 42.8494V33.4514H145.732V33.1341C146.855 33.0527 147.855 32.6947 148.734 32.06C149.629 31.4254 150.361 30.571 150.931 29.4969H151.321V33.012H154.567L154.323 33.4514H151.321V42.3123C151.321 43.6141 151.76 44.2653 152.639 44.2653C152.932 44.2653 153.265 44.1755 153.64 43.9968C154.03 43.8177 154.396 43.5817 154.738 43.2887V43.5328C154.201 44.2165 153.567 44.7614 152.834 45.1685C152.102 45.5591 151.386 45.7544 150.687 45.7544Z" fill="#BBBBBB"/>
<path d="M138.673 45.4126V45.1685H138.697C139.283 45.1685 139.755 44.9894 140.113 44.6315C140.471 44.2732 140.65 43.8016 140.65 43.2155V35.209C140.65 34.5906 140.519 34.1105 140.259 33.7688C140.015 33.427 139.487 33.2561 138.673 33.2561V33.012H141.162C141.992 33.012 142.627 32.9226 143.066 32.7435C143.473 32.5645 143.758 32.3448 143.92 32.0845H144.164V43.2155C144.164 43.8016 144.344 44.2732 144.701 44.6315C145.059 44.9894 145.531 45.1685 146.117 45.1685H146.141V45.4126H138.673ZM142.383 30.5466C141.797 30.5466 141.309 30.3595 140.918 29.9852C140.544 29.5946 140.357 29.1064 140.357 28.5206C140.357 27.9347 140.544 27.4547 140.918 27.0804C141.309 26.6898 141.797 26.4945 142.383 26.4945C142.952 26.4945 143.424 26.6898 143.798 27.0804C144.189 27.4709 144.384 27.951 144.384 28.5206C144.384 29.0901 144.189 29.5702 143.798 29.9608C143.424 30.3513 142.952 30.5466 142.383 30.5466Z" fill="#BBBBBB"/>
<path d="M133.685 45.7544C133.262 45.7544 132.945 45.7378 132.733 45.7055C132.521 45.6728 132.318 45.6323 132.123 45.5835C131.944 45.5347 131.7 45.4937 131.391 45.4614C131.081 45.4287 130.61 45.4126 129.975 45.4126L129.389 40.8233H129.707C129.967 42.3531 130.455 43.5084 131.171 44.2897C131.887 45.0543 132.668 45.437 133.514 45.437C134.344 45.437 134.97 45.2662 135.393 44.9244C135.833 44.5827 136.052 44.1189 136.052 43.5329C136.052 43.1585 135.955 42.8331 135.76 42.5564C135.58 42.2635 135.263 41.9706 134.808 41.6777C134.352 41.3685 133.734 41.0023 132.953 40.5792L132.245 40.1886C131.35 39.6842 130.683 39.0983 130.244 38.4311C129.82 37.7476 129.609 37.0153 129.609 36.2342C129.609 35.1276 130.007 34.257 130.805 33.6223C131.618 32.9876 132.7 32.6703 134.051 32.6703C134.393 32.6703 134.669 32.6865 134.881 32.7191C135.092 32.7517 135.296 32.7923 135.491 32.8412C135.686 32.89 135.93 32.9306 136.223 32.9632C136.516 32.9958 136.907 33.012 137.395 33.012L137.737 36.9421H137.444C137.346 36.1772 137.126 35.5019 136.785 34.916C136.459 34.3139 136.069 33.8501 135.613 33.5246C135.157 33.1829 134.694 33.012 134.222 33.012C133.603 33.012 133.107 33.1748 132.733 33.5002C132.375 33.8257 132.196 34.2814 132.196 34.8672C132.196 35.3066 132.334 35.7134 132.611 36.0877C132.904 36.4457 133.457 36.8363 134.271 37.2594L135.003 37.6256C136.142 38.2114 136.972 38.8217 137.492 39.4563C138.013 40.091 138.273 40.9047 138.273 41.8974C138.273 44.4362 136.744 45.7217 133.685 45.7544Z" fill="#BBBBBB"/>
<path d="M117.793 45.4126V45.1685H117.818C118.403 45.1685 118.875 44.9894 119.233 44.6315C119.591 44.2732 119.77 43.8016 119.77 43.2156V35.209C119.77 34.5906 119.64 34.1105 119.38 33.7688C119.136 33.427 118.606 33.2562 117.793 33.2562V33.0121H120.209C121.072 33.0121 121.723 32.9307 122.162 32.768C122.601 32.5889 122.91 32.3611 123.089 32.0845H123.212L123.236 36.0878C123.447 35.5995 123.716 35.0869 124.041 34.5499C124.383 34.0129 124.806 33.5653 125.311 33.2073C125.831 32.833 126.449 32.6459 127.165 32.6459C127.409 32.6459 127.67 32.6703 127.946 32.7191C128.223 32.768 128.516 32.8574 128.825 32.9877L127.873 35.8437C127.287 35.5182 126.775 35.2904 126.336 35.1602C125.912 35.03 125.538 34.9649 125.213 34.9649C124.659 34.9649 124.244 35.1358 123.968 35.4775C123.707 35.8192 123.48 36.2261 123.285 36.698V43.2156C123.285 43.8016 123.463 44.2732 123.822 44.6315C124.18 44.9894 124.652 45.1685 125.237 45.1685H125.262V45.4126H117.793Z" fill="#BBBBBB"/>
<path d="M111.722 45.7055C110.6 45.7055 109.599 45.4287 108.72 44.8756C107.858 44.322 107.183 43.5573 106.695 42.5809C106.206 41.5882 105.962 40.4572 105.962 39.1878C105.962 37.8859 106.231 36.7468 106.768 35.7704C107.305 34.794 108.037 34.0373 108.964 33.5002C109.908 32.947 110.974 32.6703 112.162 32.6703C113.155 32.6703 114.033 32.8656 114.798 33.2561C115.579 33.6467 116.197 34.2 116.653 34.916C117.125 35.6158 117.393 36.4295 117.458 37.3571L117.482 37.7232H109.282V37.8453C109.282 39.5702 109.664 40.9535 110.429 41.995C111.194 43.0202 112.219 43.5329 113.504 43.5329C114.285 43.5329 115.026 43.3457 115.725 42.9714C116.441 42.5809 117.019 42.0601 117.458 41.4092L117.678 41.4824C117.401 42.3123 116.97 43.0446 116.384 43.6795C115.798 44.3142 115.107 44.8102 114.31 45.1685C113.512 45.5264 112.65 45.7055 111.722 45.7055ZM109.306 37.3571H114.261C114.261 36.0715 114.049 35.0299 113.626 34.2325C113.22 33.4352 112.642 33.0364 111.893 33.0364C111.178 33.0364 110.584 33.427 110.112 34.2081C109.64 34.9893 109.372 36.0389 109.306 37.3571Z" fill="#BBBBBB"/>
<path d="M100.021 45.8032L95.1638 34.5743C95.0012 34.2001 94.7816 33.8909 94.5048 33.6468C94.2446 33.4026 93.8785 33.2725 93.4065 33.2562V33.0121H100.24V33.2562C99.6708 33.3213 99.2968 33.5735 99.1177 34.0129C98.9551 34.4523 99.0118 35.0056 99.2885 35.6728L101.802 41.5557L104.292 35.8193C104.454 35.445 104.536 35.0789 104.536 34.7208C104.536 34.314 104.414 33.9804 104.17 33.72C103.926 33.4596 103.584 33.305 103.145 33.2562V33.0121H107.001V33.2562C106.578 33.3538 106.171 33.5979 105.781 33.9885C105.39 34.3791 105.04 34.9161 104.731 35.5996L100.24 45.8032H100.021Z" fill="#BBBBBB"/>
<path d="M87.3567 45.4126V45.1685H87.3811C87.9669 45.1685 88.4389 44.9894 88.7967 44.6315C89.1545 44.2732 89.3336 43.8016 89.3336 43.2155V35.209C89.3336 34.5906 89.2033 34.1105 88.9431 33.7688C88.6991 33.427 88.1704 33.2561 87.3567 33.2561V33.012H89.8462C90.676 33.012 91.3106 32.9226 91.7499 32.7435C92.1565 32.5645 92.4416 32.3448 92.6042 32.0845H92.8482V43.2155C92.8482 43.8016 93.0273 44.2732 93.3852 44.6315C93.743 44.9894 94.215 45.1685 94.8008 45.1685H94.8252V45.4126H87.3567ZM91.0665 30.5466C90.4808 30.5466 89.9926 30.3595 89.6021 29.9852C89.2277 29.5946 89.0408 29.1064 89.0408 28.5206C89.0408 27.9347 89.2277 27.4547 89.6021 27.0804C89.9926 26.6898 90.4808 26.4945 91.0665 26.4945C91.6362 26.4945 92.1077 26.6898 92.4821 27.0804C92.8726 27.4709 93.0679 27.951 93.0679 28.5206C93.0679 29.0901 92.8726 29.5702 92.4821 29.9608C92.1077 30.3513 91.6362 30.5466 91.0665 30.5466Z" fill="#BBBBBB"/>
<path d="M71.9351 45.4126V45.1685H71.9595C72.5452 45.1685 73.0168 44.9894 73.3751 44.6315C73.7329 44.2732 73.912 43.8016 73.912 43.2156V35.209C73.912 34.5906 73.7817 34.1105 73.5215 33.7688C73.2774 33.427 72.7483 33.2562 71.9351 33.2562V33.0121H74.3513C75.1812 33.0121 75.8157 32.9226 76.2551 32.7436C76.6617 32.5645 76.9463 32.3448 77.1093 32.0845H77.3534L77.3778 35.5019C77.8005 34.6557 78.4434 33.9722 79.3059 33.4514C80.168 32.9307 81.0793 32.6703 82.0395 32.6703C83.1295 32.6703 83.9999 33.0283 84.651 33.7444C85.3178 34.4604 85.6517 35.4043 85.6517 36.576V43.2156C85.6517 43.8016 85.8304 44.2732 86.1886 44.6315C86.5464 44.9894 87.0185 45.1685 87.6042 45.1685H87.6286V45.4126H80.1846V45.1685H80.209C80.7947 45.1685 81.2663 44.9894 81.6246 44.6315C81.9824 44.2732 82.1615 43.8016 82.1615 43.2156V36.3319C82.1615 35.5182 81.9985 34.8672 81.6734 34.379C81.3639 33.8908 80.949 33.6467 80.4286 33.6467C79.9239 33.6467 79.3953 33.8664 78.8422 34.3058C78.3052 34.7289 77.8332 35.3066 77.4266 36.0389V43.2156C77.4266 43.8016 77.6053 44.2732 77.9635 44.6315C78.3214 44.9894 78.7934 45.1685 79.3791 45.1685H79.4035V45.4126H71.9351Z" fill="#BBBBBB"/>
<path d="M63.1565 45.7545C61.7243 45.7545 60.4796 45.4777 59.4222 44.9245C58.3645 44.3709 57.5429 43.5898 56.9571 42.581C56.3875 41.5557 56.1029 40.3596 56.1029 38.9927V29.3018C56.1029 28.7159 55.9238 28.244 55.566 27.886C55.2077 27.528 54.7361 27.349 54.1504 27.349H54.0527V27.1049H61.9117V27.349H61.8385C61.2527 27.349 60.7807 27.528 60.4229 27.886C60.0646 28.244 59.886 28.7159 59.886 29.3018V38.9927C59.886 40.7177 60.3253 42.0847 61.2039 43.0936C62.0987 44.0863 63.3029 44.5828 64.8161 44.5828C66.3455 44.5828 67.5497 44.078 68.4283 43.0692C69.307 42.0439 69.7463 40.6851 69.7463 38.9927V29.6679C69.7463 28.9682 69.5345 28.4149 69.1117 28.008C68.6885 27.6012 68.1272 27.3815 67.4276 27.349V27.1049H72.4798V27.349C71.7799 27.3815 71.2185 27.6012 70.7958 28.008C70.3726 28.4149 70.1612 28.9682 70.1612 29.6679V38.9927C70.1612 40.3596 69.8762 41.5476 69.307 42.5566C68.7535 43.5655 67.948 44.3548 66.8907 44.9245C65.8491 45.4777 64.6043 45.7545 63.1565 45.7545Z" fill="#BBBBBB"/>
<path fill-rule="evenodd" clip-rule="evenodd" d="M37.1771 3.13051V0.0792236H44.1506V28.1946C44.1506 40.352 34.2964 50.2076 22.1408 50.2076C10.4979 50.2076 0.966543 41.1659 0.183139 29.7202H0.131104V0.0792236H7.10448V3.13051H18.872V0.0792236H25.8454V3.13051H37.1771ZM37.1771 28.1946V23.9154C36.3927 24.7243 35.552 25.4923 34.6598 26.2158C31.7145 28.604 28.2547 30.4698 24.4914 31.7338C20.7277 32.998 16.7117 33.6433 12.6678 33.6433H8.1218C10.3039 39.2554 15.7579 43.2331 22.1408 43.2331C30.4451 43.2331 37.1771 36.5001 37.1771 28.1946ZM19.5335 22.9421C18.2049 24.3505 16.7075 25.5719 15.079 26.5751C17.5559 26.3818 19.9809 25.8917 22.2714 25.1224C25.3013 24.1046 28.014 22.6261 30.2681 20.7983C32.5212 18.9713 34.26 16.8418 35.4278 14.5556C36.165 13.1123 36.6694 11.6178 36.9406 10.1049H25.6209C25.3657 11.9592 24.8941 13.7791 24.2128 15.5225C23.1335 18.2851 21.5466 20.8079 19.5335 22.9421ZM7.10448 22.4045V10.1049H18.5542C18.3612 11.0892 18.0814 12.0534 17.7178 12.9841C16.9573 14.9305 15.8475 16.6863 14.4611 18.1561C13.075 19.6256 11.4406 20.7796 9.65695 21.5629C8.82851 21.9267 7.9741 22.2078 7.10448 22.4045Z" fill="#BBBBBB"/>
</g>
<defs>
<clipPath id="clip0_89_61">
<rect width="180" height="51" fill="white"/>
</clipPath>
</defs>
</svg>
