<svg width="180" height="91" viewBox="0 0 180 91" fill="none" xmlns="http://www.w3.org/2000/svg">
<path d="M14.0351 19.5617C12.9249 16.7361 13.4068 13.4872 14.4295 10.7548C15.5055 7.87955 17.3791 5.01217 20.1794 3.5C20.3183 6.52995 19.394 9.5235 18.3841 12.2229C17.4759 14.6508 16.3615 17.2375 14.5213 19.2454C14.2385 20.7669 14.0218 22.2841 13.8694 23.7944C14.4793 22.1989 15.4683 20.7447 16.7022 19.5753C18.2909 18.0696 20.6542 16.9078 22.8725 17.5948C22.2228 20.0504 20.7417 22.4044 18.9877 24.0557C17.6071 25.3554 15.7846 27.0209 13.6379 27.0863C13.5494 29.3088 13.5994 31.511 13.7821 33.6833C14.0849 32.0936 14.7338 30.5966 15.6714 29.4819C16.9593 27.9501 18.869 26.0787 21.3079 26.3917C21.1748 28.8771 20.1848 31.4235 18.8061 33.337C17.7106 34.8575 16.2643 36.7955 14.2114 37.2962C14.5401 39.4306 14.998 41.5298 15.5789 43.5837C15.5845 42.011 15.9314 40.4673 16.6196 39.2292C17.5895 37.4832 19.1001 35.3059 21.5418 35.1356C21.8997 37.5739 21.4147 40.2393 20.4364 42.3593C19.6546 44.0538 18.6121 46.2147 16.712 47.1088C17.5099 49.3187 18.4542 51.4668 19.5368 53.5402C19.1567 51.7531 19.1719 49.8699 19.6217 48.1756C20.2416 45.8397 21.7803 43.386 24.2507 42.6739C25.1239 45.2527 25.0035 48.1308 24.4962 50.7519C24.0787 52.91 23.2584 55.4447 21.4196 56.8466C22.6218 58.7893 23.9517 60.6538 25.402 62.4277C24.6227 60.6879 24.2355 58.7851 24.4433 57.043C24.7459 54.5051 25.4581 51.7902 28.0468 50.4371C29.5154 52.9746 29.8557 55.8213 29.9804 58.633C30.0813 60.9061 29.7543 63.7098 28.1778 65.559C29.9119 67.3645 31.7831 69.0543 33.7816 70.6125C32.4914 68.9551 31.5879 67.0101 31.3965 65.0867C31.1263 62.3691 31.2584 59.3775 33.6668 57.3832C35.7265 59.5374 36.9555 62.71 37.5579 65.4656C38.0906 67.9019 38.6467 70.7856 37.3784 73.1832C39.9219 74.8457 42.6371 76.3105 45.5078 77.5509C43.4878 76.1094 41.8342 74.1317 41.0464 72.0898C40.0141 69.4132 39.3756 66.2238 41.3865 63.5432C44.0807 65.2713 46.0609 68.2197 47.621 70.9088C48.9596 73.2161 50.3453 76.4008 49.6578 79.1488C51.2472 79.6889 52.8777 80.1631 54.5471 80.5677L54.4479 80.9781C52.7721 80.5719 51.1353 80.0961 49.5395 79.5545C48.4214 82.8632 44.7586 83.9562 41.7965 84.4389C37.5759 85.1265 32.5504 83.7942 28.9473 81.1104C30.849 78.4191 34.7291 78.1461 37.6549 77.9401L37.693 77.9375C40.8982 77.7119 44.3649 78.0132 47.5881 78.8518C43.8646 77.4324 40.3804 75.6478 37.1677 73.5497L37.1203 73.6246C35.3598 76.4832 31.8252 76.5947 29.0507 76.4139C25.2859 76.1686 20.9394 73.8762 18.4237 70.7075C20.79 68.6285 24.2849 69.2104 26.993 69.6612L27.0061 69.6633C30.0285 70.1664 33.3312 71.264 36.1036 72.954C35.8395 72.7457 35.5811 72.5254 35.3299 72.2944C32.6345 70.3699 30.148 68.2173 27.8917 65.8702C27.8655 65.8964 27.839 65.9225 27.8122 65.9484C25.6183 68.1585 22.4231 67.5797 19.9295 66.8605C16.5925 65.898 13.1318 62.9942 11.4733 59.6606C14.0433 58.2186 17.1159 59.4069 19.5058 60.3468C22.1289 61.3784 24.9043 63.0287 27.0382 65.1324C26.8182 64.8545 26.6083 64.5641 26.41 64.2637C24.4265 62.0219 22.6422 59.6214 21.0736 57.089L20.9949 57.1384C18.513 58.7422 15.7011 57.5808 13.4724 56.4385C10.4507 54.89 8.0224 51.4866 6.97316 48.1395C9.65376 47.2797 12.3022 48.9673 14.361 50.3037C16.6128 51.7653 18.8937 53.8499 20.4593 56.2406C20.3443 56.0051 20.2372 55.7643 20.1385 55.5189C18.6342 52.8908 17.3562 50.1317 16.3216 47.2696L16.2683 47.2878L16.264 47.2894C14.0073 48.1484 11.4943 46.8128 9.85596 45.3481C7.57887 43.3125 5.9739 40.183 5.59764 37.1255C7.9504 36.8203 10.167 38.6431 11.6825 40.1978C13.4269 41.9872 14.9926 44.1021 15.9552 46.4511C15.8849 46.196 15.8246 45.9368 15.7739 45.675C14.8981 42.9854 14.2345 40.2117 13.7971 37.376L13.763 37.3802L13.7515 37.3821C11.3657 37.7809 9.1599 35.9646 7.84205 34.2018C5.99312 31.7282 5.03999 28.3047 5.27889 25.2017C7.65541 25.3682 9.46502 27.6321 10.6385 29.4635C11.9967 31.5836 13.123 33.9831 13.6164 36.4933C13.6014 36.2936 13.5924 36.0927 13.5893 35.8913C13.227 33.0052 13.0979 30.0599 13.216 27.0783L13.2092 27.0779C10.7836 26.9904 8.99091 24.7352 8.06539 22.7348C6.74108 19.8721 6.52788 16.2536 7.4118 13.2041C9.72366 13.8539 11.0125 16.5095 11.7732 18.5537C12.6503 20.9106 13.2625 23.4811 13.2674 26.0368C13.3936 23.8927 13.6477 21.7317 14.0351 19.5617Z" fill="#BBBBBB"/>
<path d="M61.809 14.272V24.5091C61.809 29.0117 57.7368 31.178 51.5649 31.178C45.796 31.178 41.6602 29.033 41.6602 23.9782V14.272H47.4079V23.9782C47.4079 25.7835 48.9561 26.9091 51.7982 26.9091C54.513 26.9091 56.125 25.7409 56.125 23.9993V14.272H61.809Z" fill="#BBBBBB"/>
<path d="M80.9517 26.5055V30.9444H65.0659V14.272H70.8137V26.5055H80.9517Z" fill="#BBBBBB"/>
<path d="M98.0331 18.456V14.272H78.1599V18.456H85.1803V30.9444H90.9916V18.456H98.0331Z" fill="#BBBBBB"/>
<path fill-rule="evenodd" clip-rule="evenodd" d="M118.421 15.9712C119.184 16.757 119.546 17.8402 119.546 19.348C119.546 20.6437 119.228 21.7481 118.697 22.4914C118.103 23.2985 117.19 23.9782 116.067 24.1481L121.095 30.9444H114.774L110.637 25.0612H105.484V30.9444H99.8208V14.272H113.077C115.707 14.272 117.425 14.9091 118.421 15.9712ZM113.84 20.7499C113.989 20.495 114.031 20.1551 114.031 19.8791C114.031 19.5605 113.989 19.2206 113.84 19.0083C113.543 18.456 112.949 18.3075 112.058 18.3075H105.505V21.3446H112.164C113.077 21.3446 113.629 21.1747 113.84 20.7499Z" fill="#BBBBBB"/>
<path fill-rule="evenodd" clip-rule="evenodd" d="M128.745 27.8649H137.738L139.201 30.9444H145.332L136.933 14.272H130.082L121.196 30.9444H127.197L128.745 27.8649ZM135.935 24.1267H130.612L132.712 20.1128L133.348 18.5834L133.943 20.0914L135.935 24.1267Z" fill="#BBBBBB"/>
<path fill-rule="evenodd" clip-rule="evenodd" d="M117.814 34.0844C114.256 34.0844 112.385 35.7731 112.385 38.2546C112.385 41.0555 114.349 42.4763 117.814 42.4763C121.629 42.4763 123.234 40.8288 123.234 38.2546C123.234 35.6392 121.423 34.0844 117.814 34.0844ZM117.814 40.4067C115.789 40.4067 115.202 39.5727 115.202 38.2856C115.202 37.0191 115.84 36.185 117.804 36.185C119.954 36.185 120.436 37.122 120.436 38.2856C120.436 39.5212 119.85 40.4067 117.814 40.4067Z" fill="#BBBBBB"/>
<path d="M107.111 42.3528V37.5648H101.744V39.305H104.612C104.592 39.4389 104.489 39.6963 104.355 39.8507C104.057 40.2009 103.265 40.5097 102.237 40.5097C101.168 40.5097 100.479 40.2317 100.109 39.7992C99.862 39.48 99.718 39.027 99.718 38.3474C99.718 37.6369 99.862 37.1531 100.14 36.8339C100.541 36.3808 101.219 36.1851 102.217 36.1851C103.111 36.1851 103.728 36.3909 104.016 36.6484C104.201 36.8029 104.345 37.0192 104.376 37.1632H107.039C107.029 36.9058 106.947 36.494 106.803 36.1955C106.165 34.898 104.684 34.1257 102.165 34.1257C99.9751 34.1257 98.5047 34.7949 97.6924 35.8042C97.1576 36.494 96.9109 37.3589 96.9109 38.3268C96.9109 39.3978 97.1987 40.3141 97.6718 40.9217C98.4737 41.9617 99.9031 42.4764 101.62 42.4764C103.132 42.4764 104.17 42.1161 104.828 41.5704L104.9 42.3528H107.111Z" fill="#BBBBBB"/>
<path d="M79.1008 37.4619C81.1881 37.6884 82.0827 38.4298 82.0827 39.8405C82.0827 41.5497 80.4169 42.4764 77.1367 42.4764C74.0829 42.4764 72.7668 41.6115 72.2628 40.4789C72.1497 40.2112 72.0983 39.8816 72.0674 39.6757H75.0288C75.0494 39.7992 75.1214 39.9845 75.2242 40.1081C75.471 40.4068 76.1598 40.5818 77.3321 40.5818C78.8438 40.5818 79.2036 40.3655 79.2036 39.9641C79.2036 39.5315 78.8335 39.4389 77.4658 39.2947C76.9209 39.2432 76.0571 39.1608 75.6973 39.13C73.0855 38.8931 72.1189 38.0797 72.1189 36.6896C72.1189 35.248 73.8258 34.1464 76.9414 34.1464C79.7074 34.1464 80.9928 34.9701 81.5275 35.9998C81.692 36.3087 81.7947 36.6587 81.8257 36.9058H78.8642C78.8539 36.7925 78.8128 36.6793 78.6998 36.5351C78.4735 36.2366 77.8976 36.0409 76.8694 36.0409C75.4196 36.0409 75.0391 36.2159 75.0391 36.5866C75.0391 36.9985 75.5225 37.0913 77.1367 37.2663C77.764 37.3177 78.7615 37.4206 79.1008 37.4619Z" fill="#BBBBBB"/>
<path fill-rule="evenodd" clip-rule="evenodd" d="M49.5799 34.9597C50.1248 35.3922 50.4332 36.1233 50.4332 37.1838C50.4332 38.0488 50.2174 38.6974 49.806 39.1505C49.2508 39.7889 48.3356 40.0773 47.1429 40.0876C46.7726 40.0979 43.6057 40.0876 43.6057 40.0876V42.3528H40.8396V34.2699H47.1017C48.2123 34.2699 49.0555 34.4963 49.5799 34.9597ZM47.5337 37.8119C47.6158 37.6679 47.6571 37.4824 47.6571 37.2249C47.6571 36.9574 47.6055 36.7307 47.5131 36.6072C47.3383 36.3498 47.0092 36.2262 46.4745 36.2262H43.585V38.2032H46.4539C47.0297 38.2032 47.3691 38.0693 47.5337 37.8119Z" fill="#BBBBBB"/>
<path fill-rule="evenodd" clip-rule="evenodd" d="M60.5518 35.0936C60.9221 35.4746 61.0968 35.9998 61.0968 36.7307C61.0968 37.3588 60.9425 37.8943 60.6854 38.2546C60.3976 38.6459 59.9555 38.9755 59.4104 39.0579L61.8474 42.3528H58.7832L56.7781 39.5006H54.2794V42.3528H51.5339V34.2699H57.9606C59.2357 34.2699 60.0686 34.5788 60.5518 35.0936ZM58.3308 37.4104C58.4028 37.2869 58.4232 37.122 58.4232 36.9882C58.4232 36.8338 58.4028 36.669 58.3308 36.5661C58.1868 36.2983 57.8989 36.2262 57.4671 36.2262H54.2897V37.6987H57.5185C57.9606 37.6987 58.228 37.6162 58.3308 37.4104Z" fill="#BBBBBB"/>
<path d="M71.2339 42.3528V40.345H65.4449V39.2947H70.9975V37.328H65.4449V36.288H71.1619V34.2699H62.7302V42.3528H71.2339Z" fill="#BBBBBB"/>
<path d="M92.0888 36.2983V34.2699H82.4541V36.2983H85.8575V42.3528H88.6749V36.2983H92.0888Z" fill="#BBBBBB"/>
<path d="M95.7933 34.2699V42.3528H92.9656V34.2699H95.7933Z" fill="#BBBBBB"/>
<path d="M111.268 34.2699V42.3528H108.44V34.2699H111.268Z" fill="#BBBBBB"/>
<path d="M134.144 34.2699V39.2329C134.144 41.4158 132.169 42.4662 129.177 42.4662C126.381 42.4662 124.375 41.4262 124.375 38.9755V34.2699H127.162V38.9755C127.162 39.8506 127.912 40.3965 129.291 40.3965C130.607 40.3965 131.388 39.8302 131.388 38.9858V34.2699H134.144Z" fill="#BBBBBB"/>
<path d="M145.244 39.8405C145.244 38.4298 144.35 37.6884 142.263 37.4619C141.922 37.4206 140.926 37.3177 140.299 37.2663C138.684 37.0913 138.2 36.9985 138.2 36.5866C138.2 36.2159 138.581 36.0409 140.031 36.0409C141.059 36.0409 141.636 36.2366 141.861 36.5351C141.975 36.6793 142.015 36.7925 142.025 36.9058H144.987C144.956 36.6587 144.853 36.3087 144.689 35.9998C144.154 34.9701 142.869 34.1464 140.103 34.1464C136.987 34.1464 135.28 35.248 135.28 36.6896C135.28 38.0797 136.248 38.8931 138.859 39.13L139.026 39.1449L139.306 39.1704L140.627 39.2947C141.996 39.4389 142.364 39.5315 142.364 39.9641C142.364 40.3655 142.006 40.5818 140.494 40.5818C139.322 40.5818 138.633 40.4068 138.385 40.1081C138.284 39.9845 138.21 39.7992 138.191 39.6757H135.229C135.26 39.8816 135.311 40.2112 135.425 40.4789C135.928 41.6115 137.244 42.4764 140.299 42.4764C143.579 42.4764 145.244 41.5497 145.244 39.8405Z" fill="#BBBBBB"/>
<path fill-rule="evenodd" clip-rule="evenodd" d="M73.3398 45.4476C71.0276 45.4476 69.8113 46.5452 69.8113 48.158C69.8113 49.9782 71.0877 50.9017 73.3398 50.9017C75.8193 50.9017 76.8617 49.831 76.8617 48.158C76.8617 46.4583 75.6856 45.4476 73.3398 45.4476ZM73.3398 49.5566C72.0234 49.5566 71.6424 49.0145 71.6424 48.178C71.6424 47.355 72.0567 46.8128 73.3332 46.8128C74.7298 46.8128 75.044 47.4218 75.044 48.178C75.044 48.9811 74.6631 49.5566 73.3398 49.5566Z" fill="#BBBBBB"/>
<path d="M60.4809 49.1886C60.4809 48.2718 59.8994 47.7899 58.5428 47.6427C58.3223 47.6159 57.6741 47.5491 57.2664 47.5156C56.2171 47.4017 55.9031 47.3415 55.9031 47.0739C55.9031 46.833 56.1504 46.7192 57.0927 46.7192C57.7609 46.7192 58.1351 46.8463 58.2822 47.0403C58.3556 47.1341 58.3824 47.2076 58.3892 47.2813H60.3138C60.2937 47.1207 60.2269 46.8932 60.12 46.6924C59.7724 46.0232 58.9371 45.4879 57.1393 45.4879C55.1146 45.4879 54.0052 46.2038 54.0052 47.1408C54.0052 48.0443 54.6333 48.573 56.3307 48.7268C56.5647 48.7469 57.126 48.8005 57.4803 48.8339C58.3691 48.9275 58.6096 48.9879 58.6096 49.269C58.6096 49.5299 58.3757 49.6704 57.3934 49.6704C56.6315 49.6704 56.1838 49.5567 56.0233 49.3626C55.9566 49.2823 55.9097 49.1619 55.8965 49.0815H53.9717C53.9918 49.2154 54.0252 49.4294 54.0987 49.6036C54.4262 50.3396 55.2817 50.9017 57.2664 50.9017C59.3982 50.9017 60.4809 50.2995 60.4809 49.1886Z" fill="#BBBBBB"/>
<path fill-rule="evenodd" clip-rule="evenodd" d="M47.1375 49.3359C47.1375 49.6972 47.0372 50.052 46.8368 50.2861C46.5294 50.661 45.9546 50.8214 45.2129 50.8214H40.5549V45.5681H45.0859C45.8076 45.5681 46.2688 45.7422 46.5227 46.0032C46.7499 46.2307 46.8502 46.5318 46.8502 46.8731C46.8502 47.2145 46.77 47.4956 46.5963 47.7029C46.4558 47.8771 46.2153 48.0108 45.9614 48.0444C46.3356 48.0911 46.6898 48.2785 46.8902 48.5394C47.0573 48.7335 47.1375 49.028 47.1375 49.3359ZM44.8854 47.4956C44.9522 47.4219 44.9924 47.3148 44.9924 47.1877C44.9924 47.0605 44.9522 46.9534 44.8653 46.8799C44.7718 46.7928 44.5979 46.7593 44.344 46.7593H42.3058V47.616H44.3909C44.618 47.616 44.7919 47.5825 44.8854 47.4956ZM44.5847 49.6304C44.8987 49.6304 45.0859 49.5901 45.1928 49.4899C45.2596 49.4228 45.2863 49.3226 45.2863 49.1953C45.2863 49.0615 45.2529 48.9612 45.1727 48.8809C45.0726 48.7939 44.8987 48.7536 44.6048 48.7536H42.3058V49.6304H44.5847Z" fill="#BBBBBB"/>
<path d="M53.43 49.5166V50.8214H47.9033V45.5681H53.3832V46.8799H49.6675V47.5558H53.2762V48.834H49.6675V49.5166H53.43Z" fill="#BBBBBB"/>
<path d="M66.9839 45.5681V46.8866H64.7652V50.8214H62.9342V46.8866H60.7222V45.5681H66.9839Z" fill="#BBBBBB"/>
<path d="M82.9768 45.5681V46.8999H79.4149V47.6427H82.8098V48.9612H79.4149V50.8214H77.6172V45.5681H82.9768Z" fill="#BBBBBB"/>
<path d="M92.0315 46.8866V45.5681H85.7698V46.8866H87.9819V50.8214H89.813V46.8866H92.0315Z" fill="#BBBBBB"/>
<path d="M98.8635 45.5681V50.8214H97.0724V48.9143H94.3859V50.8214H92.595V45.5681H94.3859V47.4821H97.0724V45.5681H98.8635Z" fill="#BBBBBB"/>
<path d="M105.451 50.8214V49.5166H101.688V48.834H105.297V47.5558H101.688V46.8799H105.404V45.5681H99.9238V50.8214H105.451Z" fill="#BBBBBB"/>
<path d="M116.53 45.5681H118.26L116.343 50.8214H114.379C114.379 50.8214 113.328 47.683 113.321 47.5958C113.316 47.683 112.259 50.8214 112.259 50.8214H110.301L108.337 45.5681H110.28C110.28 45.5681 111.418 48.874 111.418 48.9544C111.418 48.874 112.467 45.5681 112.467 45.5681H114.345C114.345 45.5681 115.401 48.874 115.401 48.9544C115.401 48.874 116.53 45.5681 116.53 45.5681Z" fill="#BBBBBB"/>
<path fill-rule="evenodd" clip-rule="evenodd" d="M121.692 45.4476C119.38 45.4476 118.164 46.5452 118.164 48.158C118.164 49.9782 119.44 50.9017 121.692 50.9017C124.172 50.9017 125.214 49.831 125.214 48.158C125.214 46.4583 124.037 45.4476 121.692 45.4476ZM121.692 49.5566C120.376 49.5566 119.995 49.0145 119.995 48.178C119.995 47.355 120.409 46.8128 121.685 46.8128C123.083 46.8128 123.396 47.4218 123.396 48.178C123.396 48.9811 123.015 49.5566 121.692 49.5566Z" fill="#BBBBBB"/>
<path fill-rule="evenodd" clip-rule="evenodd" d="M131.832 46.1036C132.071 46.3512 132.185 46.6925 132.185 47.1676C132.185 47.5759 132.085 47.9238 131.917 48.1581C131.73 48.4124 131.444 48.6266 131.089 48.68L132.672 50.8214H130.682L129.378 48.9678H127.754V50.8214H125.97V45.5681H130.147C130.975 45.5681 131.517 45.769 131.832 46.1036ZM130.388 47.6093C130.434 47.529 130.447 47.4219 130.447 47.3349C130.447 47.2345 130.434 47.1275 130.388 47.0605C130.294 46.8866 130.107 46.8397 129.825 46.8397H127.761V47.7967H129.859C130.147 47.7967 130.32 47.7432 130.388 47.6093Z" fill="#BBBBBB"/>
<path d="M138.252 50.8214V49.4228H135.058V45.5681H133.247V50.8214H138.252Z" fill="#BBBBBB"/>
<path fill-rule="evenodd" clip-rule="evenodd" d="M145.339 48.0977C145.339 48.9143 145.258 49.356 145.019 49.7709C144.657 50.4333 143.942 50.8214 142.679 50.8214H138.963V45.5681H142.639C143.895 45.5681 144.638 45.9228 145.005 46.5318C145.265 46.9401 145.339 47.375 145.339 48.0977ZM142.338 49.5299C142.906 49.5299 143.227 49.3961 143.421 49.1017C143.542 48.9209 143.575 48.4994 143.575 48.1313C143.568 47.7967 143.528 47.442 143.421 47.2814C143.213 46.9669 142.901 46.8531 142.352 46.8531H140.755V49.5299H142.338Z" fill="#BBBBBB"/>
<path d="M73.6513 76.3708H70.8821C70.8821 76.3708 69.0751 81.6602 69.0751 81.7887C69.0751 81.6602 67.3857 76.3708 67.3857 76.3708H64.3811C64.3811 76.3708 62.7024 81.6602 62.7024 81.7887C62.7024 81.6602 60.8847 76.3708 60.8847 76.3708H57.7732L60.9167 84.7759H64.0496C64.0496 84.7759 65.739 79.7543 65.7496 79.6152C65.7605 79.7543 67.439 84.7759 67.439 84.7759H70.5826L73.6513 76.3708Z" fill="#BBBBBB"/>
<path d="M77.4407 84.7759V76.3708H74.5002V84.7759H77.4407Z" fill="#BBBBBB"/>
<path d="M88.8779 76.3708V84.7759H86.0122L81.853 80.0969V84.7759H79.0945V76.3708H82.1096L86.1405 80.9429V76.3708H88.8779Z" fill="#BBBBBB"/>
<path d="M100.332 84.7759V76.3708H97.595V80.9429L93.5641 76.3708H90.5488V84.7759H93.3074V80.0969L97.4668 84.7759H100.332Z" fill="#BBBBBB"/>
<path d="M110.847 82.688V84.7759H102.003V76.3708H110.772V78.4694H104.826V79.5509H110.6V81.596H104.826V82.688H110.847Z" fill="#BBBBBB"/>
<path fill-rule="evenodd" clip-rule="evenodd" d="M122.148 78.9299C122.148 78.1697 121.967 77.6237 121.582 77.2275C121.079 76.6922 120.214 76.3708 118.887 76.3708H112.205V84.7759H115.06V81.81H117.659L119.744 84.7759H122.929L120.395 81.3498C120.962 81.264 121.421 80.9214 121.722 80.5145C121.988 80.1398 122.148 79.583 122.148 78.9299ZM119.368 79.1976C119.368 79.3367 119.347 79.5081 119.272 79.6365C119.165 79.8507 118.887 79.9363 118.428 79.9363H115.071V78.4052H118.374C118.823 78.4052 119.123 78.4801 119.272 78.7586C119.347 78.8657 119.368 79.037 119.368 79.1976Z" fill="#BBBBBB"/>
<path d="M65.1138 61.5421L63.9542 57.9683L62.7946 61.5421H59.042L62.0779 63.7508L60.9184 67.3246L63.9542 65.116L66.99 67.3246L65.8304 63.7508L68.8663 61.5421H65.1138Z" fill="#BBBBBB"/>
<path d="M77.3415 57.9659L78.5248 61.5398H82.3539L79.2561 63.7486L80.4394 67.3223L77.3415 65.1136L74.2437 67.3223L75.427 63.7486L72.3291 61.5398H76.1582L77.3415 57.9659Z" fill="#BBBBBB"/>
<path d="M91.8053 61.5398L90.6222 57.9659L89.4389 61.5398H85.6096L88.7075 63.7486L87.5243 67.3223L90.6222 65.1136L93.7199 67.3223L92.5366 63.7486L95.6346 61.5398H91.8053Z" fill="#BBBBBB"/>
<path d="M103.903 57.9659L105.087 61.5398H108.916L105.818 63.7486L107.001 67.3223L103.903 65.1136L100.806 67.3223L101.989 63.7486L98.8909 61.5398H102.72L103.903 57.9659Z" fill="#BBBBBB"/>
<path d="M118.45 61.5398L117.29 57.9659L116.13 61.5398H112.378L115.413 63.7486L114.255 67.3223L117.29 65.1136L120.326 67.3223L119.167 63.7486L122.203 61.5398H118.45Z" fill="#BBBBBB"/>
<path d="M167.134 19.6392C168.244 16.8138 167.762 13.5646 166.739 10.8321C165.663 7.95705 163.789 5.08932 160.99 3.57715C160.85 6.60727 161.774 9.60065 162.785 12.3C163.693 14.7278 164.807 17.3143 166.647 19.3221C166.93 20.8432 167.147 22.3601 167.299 23.87C166.689 22.2752 165.701 20.8216 164.468 19.6526C162.879 18.1468 160.514 16.9851 158.297 17.6722C158.947 20.1276 160.427 22.4817 162.182 24.133C163.562 25.4327 165.385 27.098 167.531 27.1636C167.62 29.3863 167.569 31.5887 167.386 33.7612C167.084 32.1715 166.435 30.6745 165.497 29.5597C164.209 28.0278 162.299 26.1565 159.861 26.4696C159.994 28.9549 160.985 31.5014 162.363 33.4148C163.457 34.9354 164.904 36.8735 166.958 37.3742C166.629 39.5083 166.171 41.6071 165.589 43.6609C165.584 42.0883 165.238 40.5447 164.55 39.3065C163.58 37.5607 162.068 35.3832 159.627 35.2129C159.268 37.6512 159.754 40.3166 160.733 42.4366C161.514 44.1311 162.557 46.292 164.457 47.1861C163.658 49.3963 162.715 51.545 161.631 53.6186C162.012 51.8311 161.996 49.9476 161.547 48.2527C160.927 45.9168 159.389 43.463 156.918 42.7511C156.044 45.3302 156.165 48.2079 156.673 50.8291C157.091 52.9873 157.911 55.522 159.749 56.924C158.547 58.8677 157.217 60.733 155.765 62.5079C156.546 60.7673 156.932 58.8635 156.724 57.1207C156.422 54.5825 155.71 51.8677 153.122 50.5149C151.653 53.0524 151.312 55.8992 151.188 58.7109C151.086 60.9841 151.413 63.788 152.991 65.6374C151.256 67.4423 149.386 69.1316 147.388 70.6895C148.678 69.032 149.582 67.0873 149.772 65.164C150.043 62.4464 149.912 59.455 147.502 57.4605C145.443 59.6148 144.213 62.7873 143.612 65.5429C143.079 67.9791 142.523 70.8629 143.79 73.2606C141.248 74.9234 138.532 76.3883 135.661 77.6291C137.681 76.1874 139.334 74.2094 140.122 72.1672C141.155 69.4907 141.793 66.3012 139.783 63.6205C137.088 65.3486 135.108 68.2969 133.548 70.9861C132.209 73.2936 130.823 76.4785 131.512 79.2265C129.921 79.7665 128.291 80.2408 126.622 80.6454L126.722 81.0558C128.396 80.6496 130.033 80.1738 131.629 79.6321C132.747 82.9407 136.41 84.0341 139.372 84.5166C143.593 85.2041 148.619 83.872 152.222 81.1881C150.319 78.4967 146.44 78.2237 143.514 78.0178L143.476 78.0151C140.271 77.7896 136.803 78.0909 133.581 78.9297C137.303 77.5103 140.788 75.7253 144.002 73.627L144.045 73.697C145.805 76.5604 149.342 76.6724 152.117 76.4914C155.883 76.2461 160.23 73.9537 162.744 70.785C160.378 68.7064 156.885 69.2879 154.176 69.7385L154.162 69.741C151.141 70.2439 147.839 71.341 145.068 73.0304C145.332 72.8224 145.588 72.6024 145.84 72.3716C148.535 70.4474 151.02 68.2951 153.276 65.9484C153.308 65.9797 153.339 66.0105 153.37 66.0411C155.565 68.234 158.751 67.6555 161.24 66.9378C164.578 65.9753 168.038 63.0715 169.696 59.738C167.126 58.296 164.053 59.484 161.664 60.4241C159.038 61.4566 156.261 63.1088 154.125 65.2153C154.346 64.937 154.557 64.6462 154.756 64.3452C156.74 62.1022 158.526 59.7003 160.095 57.1663L160.163 57.2085L160.181 57.2195C162.661 58.8176 165.471 57.6572 167.697 56.5159C170.719 54.9673 173.148 51.5639 174.196 48.2168C171.515 47.3571 168.868 49.0446 166.809 50.3811C164.555 51.8435 162.273 53.9295 160.707 56.322C160.822 56.0859 160.93 55.8444 161.03 55.5985C162.535 52.9695 163.812 50.2098 164.847 47.3469L164.901 47.3651L164.91 47.3686C167.166 48.2238 169.677 46.8891 171.314 45.4254C173.59 43.3898 175.196 40.2603 175.572 37.2029C173.219 36.8977 171.002 38.7205 169.487 40.275C167.742 42.0656 166.175 44.1819 165.212 46.5328C165.284 46.2763 165.345 46.0157 165.395 45.7523C166.271 43.0629 166.935 40.2893 167.372 37.454L167.438 37.4628C169.815 37.8481 172.014 36.037 173.328 34.2791C175.177 31.8055 176.129 28.382 175.89 25.2789C173.515 25.4455 171.704 27.7093 170.532 29.5409C169.172 31.662 168.045 34.0628 167.552 36.5746C167.568 36.3737 167.576 36.1718 167.58 35.9691C167.942 33.0828 168.071 30.1374 167.952 27.1558C170.38 27.0705 172.178 24.8137 173.104 22.8124C174.427 19.95 174.64 16.3313 173.758 13.2819C171.446 13.9317 170.156 16.587 169.396 18.6312C168.518 20.9881 167.907 23.559 167.901 26.1147C167.776 23.9706 167.521 21.8093 167.134 19.6392Z" fill="#BBBBBB"/>
</svg>
