<svg width="256" height="256" viewBox="0 0 256 256" fill="none" xmlns="http://www.w3.org/2000/svg">
<rect width="256" height="256" fill="#0A0A0A"/>
<path d="M185.882 107.922H157.885C157.374 104.3 156.33 101.082 154.753 98.2699C153.176 95.4148 151.152 92.9858 148.68 90.983C146.209 88.9801 143.354 87.446 140.115 86.3807C136.919 85.3153 133.446 84.7827 129.696 84.7827C122.92 84.7827 117.018 86.4659 111.99 89.8324C106.962 93.1562 103.063 98.0142 100.293 104.406C97.5227 110.756 96.1378 118.469 96.1378 127.545C96.1378 136.878 97.5227 144.719 100.293 151.068C103.105 157.418 107.026 162.212 112.054 165.45C117.082 168.689 122.899 170.308 129.504 170.308C133.212 170.308 136.642 169.818 139.795 168.838C142.991 167.858 145.825 166.43 148.297 164.555C150.768 162.638 152.814 160.315 154.433 157.588C156.095 154.861 157.246 151.75 157.885 148.256L185.882 148.384C185.158 154.392 183.347 160.188 180.449 165.77C177.594 171.31 173.737 176.274 168.879 180.663C164.064 185.01 158.311 188.462 151.621 191.018C144.973 193.533 137.452 194.79 129.057 194.79C117.381 194.79 106.94 192.148 97.7358 186.864C88.5739 181.58 81.3295 173.93 76.0028 163.916C70.7188 153.902 68.0767 141.778 68.0767 127.545C68.0767 113.27 70.7614 101.125 76.1307 91.1108C81.5 81.0966 88.7869 73.4687 97.9915 68.2273C107.196 62.9432 117.551 60.3011 129.057 60.3011C136.642 60.3011 143.673 61.3665 150.151 63.4972C156.67 65.6278 162.445 68.7386 167.473 72.8295C172.501 76.8778 176.592 81.8423 179.746 87.723C182.942 93.6037 184.987 100.337 185.882 107.922Z" fill="#FAFAFA"/>
</svg>
