<svg width="413" height="83" viewBox="0 0 413 83" fill="none" xmlns="http://www.w3.org/2000/svg">
<g clip-path="url(#clip0_212_23)">
<path d="M69.4247 29.8111H56.1435C55.7647 27.633 55.0663 25.7036 54.0483 24.0227C53.0303 22.3182 51.7637 20.8741 50.2486 19.6903C48.7334 18.5066 47.0052 17.6188 45.0639 17.027C43.1463 16.4115 41.0748 16.1037 38.8494 16.1037C34.8958 16.1037 31.392 17.098 28.3381 19.0866C25.2841 21.0516 22.893 23.9399 21.1648 27.7514C19.4366 31.5393 18.5724 36.1676 18.5724 41.6364C18.5724 47.1998 19.4366 51.8873 21.1648 55.6989C22.9167 59.4867 25.3078 62.3513 28.3381 64.2926C31.392 66.2102 34.884 67.169 38.8139 67.169C40.992 67.169 43.0279 66.8849 44.9219 66.3168C46.8395 65.7249 48.5559 64.8608 50.071 63.7244C51.6098 62.5881 52.9001 61.1913 53.9418 59.5341C55.0071 57.8769 55.741 55.983 56.1435 53.8523L69.4247 53.9233C68.9276 57.3797 67.8504 60.6231 66.1932 63.6534C64.5597 66.6837 62.4171 69.3589 59.7656 71.679C57.1141 73.9754 54.0128 75.7746 50.4616 77.0767C46.9105 78.3551 42.9688 78.9943 38.6364 78.9943C32.2443 78.9943 26.5388 77.5147 21.5199 74.5554C16.5009 71.5961 12.5473 67.3229 9.65909 61.7358C6.77083 56.1487 5.3267 49.4489 5.3267 41.6364C5.3267 33.8002 6.78267 27.1004 9.6946 21.5369C12.6065 15.9498 16.572 11.6766 21.5909 8.71733C26.6098 5.75805 32.2917 4.27841 38.6364 4.27841C42.6847 4.27841 46.4489 4.84659 49.929 5.98295C53.4091 7.11932 56.5104 8.78835 59.233 10.9901C61.9555 13.1681 64.1927 15.8433 65.9446 19.0156C67.7202 22.1643 68.8802 25.7628 69.4247 29.8111ZM80.9215 78V23.4545H93.386V32.5455H93.9542C94.9485 29.3968 96.6531 26.9702 99.0678 25.2656C101.506 23.5374 104.288 22.6733 107.413 22.6733C108.123 22.6733 108.916 22.7088 109.792 22.7798C110.692 22.8272 111.438 22.91 112.029 23.0284V34.8537C111.485 34.6643 110.621 34.4986 109.437 34.3565C108.277 34.1908 107.153 34.108 106.064 34.108C103.72 34.108 101.613 34.6169 99.7425 35.6349C97.896 36.6293 96.44 38.0142 95.3746 39.7898C94.3093 41.5653 93.7766 43.6132 93.7766 45.9332V78H80.9215ZM135.289 79.1009C131.833 79.1009 128.72 78.4853 125.95 77.2543C123.204 75.9995 121.026 74.1529 119.416 71.7145C117.83 69.276 117.037 66.2694 117.037 62.6946C117.037 59.617 117.605 57.072 118.741 55.0597C119.877 53.0473 121.428 51.4375 123.393 50.2301C125.358 49.0227 127.572 48.1113 130.034 47.4957C132.52 46.8565 135.088 46.3949 137.74 46.1108C140.936 45.7794 143.528 45.4834 145.517 45.223C147.505 44.9389 148.949 44.5128 149.849 43.9446C150.772 43.3527 151.234 42.4413 151.234 41.2102V40.9972C151.234 38.322 150.441 36.2505 148.855 34.7827C147.269 33.3149 144.984 32.581 142.001 32.581C138.852 32.581 136.355 33.2675 134.508 34.6406C132.685 36.0137 131.454 37.6354 130.815 39.5057L118.812 37.8011C119.759 34.4867 121.322 31.7169 123.5 29.4915C125.678 27.2424 128.341 25.5616 131.49 24.4489C134.638 23.3125 138.118 22.7443 141.93 22.7443C144.558 22.7443 147.174 23.0521 149.778 23.6676C152.382 24.2831 154.761 25.3011 156.916 26.7216C159.07 28.1184 160.798 30.0241 162.1 32.4389C163.426 34.8537 164.089 37.8722 164.089 41.4943V78H151.731V70.5071H151.305C150.524 72.0223 149.423 73.4427 148.002 74.7685C146.606 76.0705 144.842 77.1241 142.711 77.929C140.604 78.7102 138.13 79.1009 135.289 79.1009ZM138.627 69.6548C141.208 69.6548 143.445 69.1458 145.339 68.1278C147.233 67.0862 148.689 65.7131 149.707 64.0085C150.749 62.304 151.27 60.4455 151.27 58.4332V52.0057C150.867 52.3371 150.181 52.6449 149.21 52.929C148.263 53.2131 147.198 53.4616 146.014 53.6747C144.83 53.8878 143.658 54.0772 142.498 54.2429C141.338 54.4086 140.332 54.5507 139.48 54.669C137.562 54.9294 135.846 55.3556 134.331 55.9474C132.815 56.5393 131.62 57.3679 130.744 58.4332C129.868 59.4749 129.43 60.8243 129.43 62.4815C129.43 64.849 130.294 66.6364 132.022 67.8438C133.751 69.0511 135.952 69.6548 138.627 69.6548ZM204.643 23.4545V33.3977H172.399V23.4545H204.643ZM180.46 78V18.3054C180.46 14.6359 181.217 11.5819 182.733 9.14346C184.271 6.70502 186.331 4.8821 188.912 3.67471C191.492 2.46733 194.357 1.86363 197.505 1.86363C199.731 1.86363 201.708 2.04119 203.436 2.39631C205.164 2.75142 206.442 3.07102 207.271 3.35511L204.714 13.2983C204.17 13.1326 203.483 12.9669 202.654 12.8011C201.826 12.6117 200.903 12.517 199.885 12.517C197.493 12.517 195.801 13.0971 194.806 14.2571C193.836 15.3935 193.35 17.027 193.35 19.1577V78H180.46ZM227.566 5.27273V78H214.711V5.27273H227.566ZM264.577 79.0653C259.251 79.0653 254.634 77.8935 250.728 75.5497C246.822 73.206 243.791 69.9271 241.637 65.7131C239.506 61.4991 238.441 56.5748 238.441 50.9403C238.441 45.3059 239.506 40.3698 241.637 36.1321C243.791 31.8944 246.822 28.6037 250.728 26.2599C254.634 23.9162 259.251 22.7443 264.577 22.7443C269.904 22.7443 274.521 23.9162 278.427 26.2599C282.333 28.6037 285.352 31.8944 287.482 36.1321C289.637 40.3698 290.714 45.3059 290.714 50.9403C290.714 56.5748 289.637 61.4991 287.482 65.7131C285.352 69.9271 282.333 73.206 278.427 75.5497C274.521 77.8935 269.904 79.0653 264.577 79.0653ZM264.648 68.767C267.537 68.767 269.951 67.974 271.893 66.3878C273.834 64.7779 275.278 62.6236 276.225 59.9247C277.196 57.2259 277.681 54.2192 277.681 50.9048C277.681 47.5668 277.196 44.5483 276.225 41.8494C275.278 39.1269 273.834 36.9607 271.893 35.3509C269.951 33.741 267.537 32.9361 264.648 32.9361C261.689 32.9361 259.227 33.741 257.262 35.3509C255.321 36.9607 253.865 39.1269 252.894 41.8494C251.947 44.5483 251.474 47.5668 251.474 50.9048C251.474 54.2192 251.947 57.2259 252.894 59.9247C253.865 62.6236 255.321 64.7779 257.262 66.3878C259.227 67.974 261.689 68.767 264.648 68.767ZM311.319 78L295.907 23.4545H309.011L318.599 61.8068H319.096L328.897 23.4545H341.859L351.66 61.5938H352.193L361.639 23.4545H374.778L359.331 78H345.943L335.716 41.1392H334.97L324.743 78H311.319Z" fill="#FAFAFA"/>
<path d="M393.403 25.3622V13.5689H399.236C399.896 13.5689 400.525 13.718 401.121 14.0163C401.729 14.304 402.219 14.7354 402.592 15.3107C402.975 15.886 403.167 16.5945 403.167 17.4361C403.167 18.2777 402.97 18.9968 402.576 19.5934C402.181 20.1793 401.67 20.6268 401.042 20.9357C400.424 21.2447 399.774 21.3991 399.092 21.3991H395.017V19.2738H398.389C398.804 19.2738 399.188 19.1193 399.539 18.8104C399.891 18.5014 400.067 18.0433 400.067 17.4361C400.067 16.7969 399.891 16.3494 399.539 16.0938C399.188 15.8381 398.82 15.7102 398.437 15.7102H396.311V25.3622H393.403ZM400.802 19.881L403.582 25.3622H400.386L397.75 19.881H400.802ZM397.989 32.3935C396.221 32.3935 394.564 32.0632 393.02 31.4027C391.475 30.7422 390.116 29.826 388.945 28.6541C387.773 27.4822 386.857 26.1239 386.196 24.5792C385.536 23.0344 385.205 21.3778 385.205 19.6094C385.205 17.8409 385.536 16.1843 386.196 14.6396C386.857 13.0948 387.773 11.7365 388.945 10.5646C390.116 9.39276 391.475 8.47656 393.02 7.81605C394.564 7.15554 396.221 6.82528 397.989 6.82528C399.758 6.82528 401.414 7.15554 402.959 7.81605C404.504 8.47656 405.862 9.39276 407.034 10.5646C408.206 11.7365 409.122 13.0948 409.783 14.6396C410.443 16.1843 410.773 17.8409 410.773 19.6094C410.773 21.3778 410.443 23.0344 409.783 24.5792C409.122 26.1239 408.206 27.4822 407.034 28.6541C405.862 29.826 404.504 30.7422 402.959 31.4027C401.414 32.0632 399.758 32.3935 397.989 32.3935ZM397.989 29.1175C399.737 29.1175 401.329 28.6914 402.767 27.8391C404.206 26.9869 405.351 25.8416 406.203 24.4034C407.066 22.9545 407.498 21.3565 407.498 19.6094C407.498 17.8622 407.066 16.2695 406.203 14.8313C405.351 13.3825 404.206 12.2319 402.767 11.3796C401.329 10.5273 399.737 10.1012 397.989 10.1012C396.232 10.1012 394.634 10.5273 393.195 11.3796C391.757 12.2319 390.607 13.3825 389.744 14.8313C388.891 16.2695 388.465 17.8622 388.465 19.6094C388.465 21.3565 388.891 22.9492 389.744 24.3874C390.607 25.8256 391.757 26.9762 393.195 27.8391C394.634 28.6914 396.232 29.1175 397.989 29.1175Z" fill="#FAFAFA"/>
</g>
<defs>
<clipPath id="clip0_212_23">
<rect width="413" height="83" fill="white"/>
</clipPath>
</defs>
</svg>
