<svg width="180" height="58" viewBox="0 0 180 58" fill="none" xmlns="http://www.w3.org/2000/svg">
<path d="M127.96 53.9762C129.053 53.9762 129.699 53.1425 129.699 51.8389C129.699 50.4875 129.005 49.7016 127.983 49.7016C127.398 49.7016 126.992 49.9626 126.688 50.3773H126.674V48.2415H126.04V53.8573H126.674V53.3237H126.688C127.017 53.779 127.414 53.9762 127.96 53.9762ZM127.914 53.4412C127.055 53.4412 126.634 52.7582 126.634 51.8462C126.634 50.9675 127.04 50.2439 127.921 50.2439C128.686 50.2439 129.053 50.9356 129.053 51.8462C129.053 52.7655 128.686 53.4412 127.914 53.4412ZM130.769 55.2015C131.26 55.2015 131.573 55.0275 131.9 54.1865L133.625 49.7959H132.954L132.032 52.3261C131.908 52.664 131.767 53.1193 131.767 53.1193H131.753C131.753 53.1193 131.603 52.664 131.479 52.3261L130.527 49.7959H129.84L131.416 53.7399L131.26 54.1401C131.105 54.533 130.925 54.636 130.66 54.636C130.512 54.6435 130.364 54.6136 130.231 54.549H130.199V55.1145C130.372 55.1855 130.527 55.2015 130.769 55.2015ZM135.242 53.8573H136.303V48.2415H135.242V53.8573ZM138.898 53.9762C140.138 53.9762 140.989 53.0482 140.989 51.8462C140.989 50.6441 140.139 49.7176 138.898 49.7176C137.658 49.7176 136.807 50.6456 136.807 51.8462C136.807 53.0497 137.657 53.9762 138.898 53.9762ZM138.898 53.1584C138.243 53.1584 137.884 52.6321 137.884 51.8462C137.884 51.0617 138.243 50.5267 138.898 50.5267C139.546 50.5267 139.912 51.0617 139.912 51.8462C139.912 52.6321 139.546 53.1584 138.898 53.1584ZM143.245 55.2319C143.839 55.2319 144.353 55.0913 144.688 54.7766C144.985 54.5011 145.165 54.1169 145.165 53.5514V49.8278H144.143V50.2526H144.127C143.885 49.9148 143.519 49.7176 143.018 49.7176C142.006 49.7176 141.287 50.4875 141.287 51.6896C141.287 52.9076 142.161 53.6137 143.051 53.6137C143.558 53.6137 143.862 53.4107 144.095 53.1425H144.119V53.5833C144.119 54.1328 143.831 54.4243 143.23 54.4243C142.739 54.4243 142.512 54.2271 142.426 53.9748H141.373C141.481 54.7607 142.152 55.2319 143.245 55.2319ZM143.231 52.7582C142.684 52.7582 142.324 52.358 142.324 51.6736C142.324 50.9979 142.684 50.5745 143.222 50.5745C143.862 50.5745 144.174 51.0762 144.174 51.6664C144.174 52.2638 143.901 52.7582 143.23 52.7582H143.231ZM147.744 53.9762C148.984 53.9762 149.835 53.0482 149.835 51.8462C149.835 50.6441 148.984 49.7176 147.744 49.7176C146.503 49.7176 145.653 50.6456 145.653 51.8462C145.653 53.0497 146.503 53.9762 147.744 53.9762ZM147.744 53.1584C147.089 53.1584 146.729 52.6321 146.729 51.8462C146.729 51.0617 147.089 50.5267 147.744 50.5267C148.391 50.5267 148.758 51.0617 148.758 51.8462C148.758 52.6321 148.391 53.1584 147.744 53.1584ZM150.327 53.8573H151.389V49.8278H150.327V53.8573ZM150.327 49.1999H151.389V48.2415H150.327V49.1999ZM152.073 55.1768H153.134V53.4035H153.148C153.376 53.75 153.742 53.9777 154.303 53.9777C155.333 53.9777 156.035 53.1512 156.035 51.8476C156.035 50.5905 155.357 49.719 154.296 49.719C154.065 49.7152 153.836 49.7693 153.63 49.8763C153.425 49.9833 153.249 50.14 153.118 50.3324H153.095V49.8292H152.073V55.1797V55.1768ZM154.077 53.0888C153.445 53.0888 153.109 52.6089 153.109 51.8781C153.109 51.156 153.376 50.5818 154.038 50.5818C154.693 50.5818 154.958 51.1154 154.958 51.8781C154.958 52.6408 154.616 53.0888 154.077 53.0888ZM158.152 53.9762C159.15 53.9762 159.837 53.489 159.837 52.6799C159.837 51.7374 159.095 51.5489 158.424 51.4068C157.856 51.2894 157.326 51.2575 157.326 50.9124C157.326 50.6224 157.598 50.4629 158.011 50.4629C158.465 50.4629 158.737 50.6224 158.784 51.053H159.743C159.666 50.2439 159.081 49.719 158.027 49.719C157.114 49.719 156.397 50.1337 156.397 51.0066C156.397 51.8853 157.098 52.0825 157.817 52.2246C158.363 52.3334 158.869 52.3725 158.869 52.7582C158.869 53.041 158.604 53.2222 158.136 53.2222C157.661 53.2222 157.333 53.0178 157.262 52.5538H156.28C156.342 53.4093 156.99 53.9762 158.152 53.9762ZM163.866 53.8573V49.8278H162.805V52.1536C162.805 52.6872 162.5 53.0642 162.001 53.0642C161.549 53.0642 161.338 52.8046 161.338 52.3334V49.8278H160.285V52.5146C160.285 53.3948 160.785 53.9675 161.673 53.9675C162.235 53.9675 162.547 53.7558 162.821 53.3875H162.844V53.8573H163.866ZM164.552 53.8573H165.613V51.5185C165.613 50.9834 165.901 50.6383 166.33 50.6383C166.72 50.6383 166.946 50.8747 166.946 51.33V53.8588H168.008V51.5185C168.008 50.9834 168.281 50.6383 168.726 50.6383C169.116 50.6383 169.343 50.8747 169.343 51.33V53.8588H170.404V51.1487C170.404 50.2686 169.927 49.719 169.085 49.719C168.578 49.719 168.156 49.9858 167.884 50.4266H167.868C167.772 50.2126 167.616 50.0315 167.419 49.9058C167.222 49.7801 166.992 49.7151 166.759 49.719C166.525 49.7131 166.294 49.7705 166.09 49.8853C165.885 50.0001 165.715 50.168 165.597 50.3715H165.574V49.8292H164.552V53.8602V53.8573Z" fill="#BBBBBB"/>
<path d="M170.613 3.11597C170.613 1.40062 171.994 0.008623 173.697 0.008623H175.755C176.573 0.008623 177.358 0.336004 177.937 0.918745C178.516 1.50149 178.841 2.29185 178.841 3.11597C178.841 3.94009 178.516 4.73046 177.937 5.3132C177.358 5.89594 176.573 6.22332 175.755 6.22332H173.697C173.292 6.22332 172.891 6.14294 172.516 5.98676C172.142 5.83059 171.802 5.60168 171.515 5.31311C171.229 5.02455 171.002 4.68199 170.847 4.305C170.692 3.928 170.612 3.52397 170.613 3.11597ZM84.2255 20.7204C84.2255 32.158 75.0181 41.4308 63.658 41.4308C52.2993 41.4308 43.0905 32.158 43.0905 20.7204C43.0905 9.27992 52.2993 0.010073 63.658 0.010073C75.0181 0.010073 84.2255 9.27992 84.2255 20.7204ZM39.0786 20.6175C40.2162 20.6175 41.1465 21.5455 41.0327 22.6852C40.6439 26.5854 39.1639 30.2945 36.7647 33.3813C34.3654 36.4681 31.1455 38.806 27.479 40.1231C23.8125 41.4402 19.8501 41.6825 16.0523 40.8219C12.2545 39.9613 8.77721 38.0331 6.02458 35.2613C3.27195 32.4896 1.35702 28.9881 0.502335 25.1639C-0.352348 21.3397 -0.111686 17.3498 1.19635 13.6579C2.50439 9.96598 4.82609 6.72365 7.89163 4.30774C10.9572 1.89183 14.6406 0.401536 18.514 0.010073C19.6444 -0.105927 20.5674 0.833673 20.5674 1.97627V18.5454C20.5674 19.6909 21.489 20.6175 22.6252 20.6175H39.0786ZM113.021 45.5734C114.658 45.5734 116.227 46.228 117.384 47.3932C118.541 48.5585 119.192 50.1388 119.192 51.7867C119.192 53.4345 118.541 55.0149 117.384 56.1801C116.227 57.3453 114.658 57.9999 113.021 57.9999H102.738C101.102 57.9999 99.5322 57.3453 98.375 56.1801C97.2178 55.0149 96.5677 53.4345 96.5677 51.7867C96.5677 50.1388 97.2178 48.5585 98.375 47.3932C99.5322 46.228 101.102 45.5734 102.738 45.5734H113.021ZM106.851 41.4308C118.211 41.4308 127.42 32.158 127.42 20.7204C127.425 17.207 126.538 13.7506 124.844 10.6792L128.242 7.25717C128.633 6.86282 128.944 6.39469 129.156 5.87952C129.367 5.36434 129.476 4.81221 129.476 4.25465C129.476 3.69708 129.367 3.145 129.155 2.62993C128.943 2.11486 128.632 1.64689 128.241 1.25272C127.849 0.85856 127.384 0.545931 126.872 0.332685C126.361 0.119438 125.812 0.00975095 125.259 0.0098856C124.705 0.0100203 124.157 0.119974 123.645 0.333469C123.134 0.546965 122.669 0.85982 122.278 1.25417L119.311 4.24117C115.732 1.48894 111.352 0.00132685 106.849 0.008623C95.4921 0.010073 86.2847 9.27992 86.2847 20.7204C86.2847 32.158 95.4921 41.4308 106.851 41.4308ZM170.613 20.7204C170.613 32.158 161.404 41.4308 150.044 41.4308C138.685 41.4308 129.476 32.158 129.476 20.7204C129.476 9.27992 138.685 0.010073 150.044 0.010073C161.404 0.010073 170.613 9.28137 170.613 20.7204Z" fill="#BBBBBB"/>
</svg>
