<svg width="170" height="88" viewBox="0 0 170 88" fill="none" xmlns="http://www.w3.org/2000/svg">
<path d="M43.0759 43.2546L43.424 43.1807H72.3734L83.2515 54.1048H53.8807L43.0759 43.2546Z" fill="#BBBBBB"/>
<path d="M33.7562 43.1805L4.38525 43.1807L15.2633 54.1049H33.7558L33.7562 43.1805Z" fill="#BBBBBB"/>
<path d="M93.3601 11.8003H97.8714V25.8776H105.62V29.6914H93.3601V11.8003Z" fill="#BBBBBB"/>
<path d="M113.81 30.0752C112.298 30.0752 110.973 29.8022 109.834 29.2561C108.696 28.6931 107.812 27.9254 107.183 26.9526C106.571 25.963 106.266 24.8283 106.266 23.5484C106.266 22.2687 106.571 21.1425 107.183 20.1699C107.812 19.1803 108.696 18.4124 109.834 17.8664C110.973 17.3032 112.298 17.0217 113.81 17.0217C115.323 17.0217 116.648 17.3032 117.787 17.8664C118.925 18.4124 119.8 19.1803 120.412 20.1699C121.04 21.1425 121.355 22.2687 121.355 23.5484C121.355 24.8283 121.04 25.963 120.412 26.9526C119.8 27.9254 118.925 28.6931 117.787 29.2561C116.648 29.8022 115.323 30.0752 113.81 30.0752ZM113.81 26.5688C114.711 26.5688 115.425 26.3042 115.951 25.7754C116.495 25.2292 116.767 24.487 116.767 23.5484C116.767 22.61 116.495 21.8762 115.951 21.3472C115.425 20.8012 114.711 20.5283 113.81 20.5283C112.91 20.5283 112.188 20.8012 111.644 21.3472C111.117 21.8762 110.854 22.61 110.854 23.5484C110.854 24.487 111.117 25.2292 111.644 25.7754C112.188 26.3042 112.91 26.5688 113.81 26.5688Z" fill="#BBBBBB"/>
<path d="M129.781 35.5782C128.965 35.5782 128.141 35.5015 127.308 35.3478C126.493 35.1943 125.788 34.9895 125.194 34.7336V31.611C126.535 32.1911 128.065 32.4813 129.781 32.4813C131.021 32.4813 131.913 32.2252 132.457 31.7132C133.017 31.2014 133.297 30.4508 133.297 29.461V28.7186C132.805 29.1452 132.194 29.478 131.463 29.7169C130.749 29.9559 129.984 30.0752 129.169 30.0752C127.878 30.0752 126.739 29.8022 125.754 29.2561C124.768 28.7103 123.996 27.9423 123.434 26.9526C122.89 25.963 122.619 24.8283 122.619 23.5484C122.619 22.2517 122.89 21.1084 123.434 20.1187C123.979 19.1291 124.743 18.3698 125.729 17.8407C126.713 17.2948 127.844 17.0217 129.118 17.0217C130.869 17.0217 132.313 17.5592 133.451 18.6342V17.4056H137.783V28.8467C137.783 30.9797 137.13 32.6348 135.821 33.8122C134.53 34.9895 132.516 35.5782 129.781 35.5782ZM130.29 26.5943C130.987 26.5943 131.607 26.4151 132.151 26.0568C132.694 25.6984 133.077 25.2208 133.297 24.6234V22.4736C133.06 21.8762 132.669 21.407 132.125 21.0658C131.582 20.7074 130.97 20.5283 130.29 20.5283C129.373 20.5283 128.634 20.8012 128.073 21.3472C127.513 21.8762 127.232 22.6015 127.232 23.5229C127.232 24.4613 127.513 25.2122 128.073 25.7754C128.634 26.3213 129.373 26.5943 130.29 26.5943Z" fill="#BBBBBB"/>
<path d="M146.466 30.0752C144.954 30.0752 143.628 29.8022 142.489 29.2561C141.351 28.6931 140.468 27.9254 139.839 26.9526C139.227 25.963 138.921 24.8283 138.921 23.5484C138.921 22.2687 139.227 21.1425 139.839 20.1699C140.468 19.1803 141.351 18.4124 142.489 17.8664C143.628 17.3032 144.954 17.0217 146.466 17.0217C147.978 17.0217 149.303 17.3032 150.442 17.8664C151.581 18.4124 152.455 19.1803 153.067 20.1699C153.696 21.1425 154.011 22.2687 154.011 23.5484C154.011 24.8283 153.696 25.963 153.067 26.9526C152.455 27.9254 151.581 28.6931 150.442 29.2561C149.303 29.8022 147.978 30.0752 146.466 30.0752ZM146.466 26.5688C147.367 26.5688 148.079 26.3042 148.607 25.7754C149.151 25.2292 149.422 24.487 149.422 23.5484C149.422 22.61 149.151 21.8762 148.607 21.3472C148.079 20.8012 147.367 20.5283 146.466 20.5283C145.565 20.5283 144.843 20.8012 144.299 21.3472C143.773 21.8762 143.509 22.61 143.509 23.5484C143.509 24.487 143.773 25.2292 144.299 25.7754C144.843 26.3042 145.565 26.5688 146.466 26.5688Z" fill="#BBBBBB"/>
<path d="M93.3601 36.2762H97.8714V54.1673H93.3601V36.2762Z" fill="#BBBBBB"/>
<path d="M100.155 41.8817H104.488V43.1101C105.626 42.0353 107.071 41.4978 108.821 41.4978C110.095 41.4978 111.226 41.7708 112.21 42.3169C113.196 42.8458 113.96 43.605 114.505 44.5947C115.048 45.5673 115.32 46.7021 115.32 47.9989C115.32 49.2786 115.048 50.4219 114.505 51.4286C113.96 52.4182 113.196 53.1863 112.21 53.7321C111.243 54.2782 110.112 54.5512 108.821 54.5512C108.005 54.5512 107.224 54.4232 106.476 54.1673C105.745 53.9285 105.134 53.5957 104.641 53.1691V59.7728H100.155V41.8817ZM107.649 51.0447C108.566 51.0447 109.305 50.7718 109.866 50.2256C110.426 49.6797 110.706 48.9373 110.706 47.9989C110.706 47.0605 110.426 46.3267 109.866 45.7977C109.305 45.2517 108.566 44.9787 107.649 44.9787C106.969 44.9787 106.357 45.1579 105.814 45.5162C105.27 45.8573 104.879 46.3267 104.641 46.9239V49.0994C104.879 49.6968 105.27 50.1744 105.814 50.5328C106.357 50.8742 106.969 51.0447 107.649 51.0447Z" fill="#BBBBBB"/>
<path d="M122.008 54.5512C121.022 54.5512 119.994 54.4488 118.924 54.2441C117.854 54.0565 117.003 53.7835 116.375 53.4251V50.1234C117.071 50.5328 117.904 50.8742 118.873 51.1472C119.858 51.4031 120.759 51.531 121.574 51.531C122.169 51.531 122.603 51.4883 122.875 51.4031C123.146 51.3177 123.281 51.1472 123.281 50.8911C123.281 50.6864 123.189 50.5243 123.001 50.405C122.832 50.2684 122.509 50.1318 122.034 49.9953C121.574 49.8418 121.039 49.6797 120.427 49.509C119.39 49.2019 118.575 48.8861 117.98 48.5619C117.386 48.2377 116.945 47.8283 116.656 47.3334C116.367 46.8387 116.222 46.2157 116.222 45.4648C116.222 44.1341 116.74 43.1443 117.777 42.4961C118.83 41.8304 120.267 41.4978 122.084 41.4978C122.967 41.4978 123.893 41.5916 124.862 41.7792C125.848 41.967 126.586 42.2145 127.08 42.5216V45.7721C126.569 45.4309 125.891 45.1493 125.041 44.9275C124.208 44.7058 123.426 44.5947 122.695 44.5947C122.118 44.5947 121.668 44.6544 121.345 44.7739C121.022 44.8763 120.861 45.0641 120.861 45.3371C120.861 45.593 121.022 45.7892 121.345 45.9256C121.668 46.0622 122.246 46.2329 123.078 46.4376C123.621 46.574 123.852 46.6338 123.766 46.6168C124.854 46.9068 125.694 47.231 126.289 47.5893C126.884 47.9479 127.3 48.3743 127.538 48.8692C127.793 49.3469 127.921 49.9611 127.921 50.7119C127.921 51.8894 127.411 52.828 126.391 53.5274C125.388 54.2099 123.927 54.5512 122.008 54.5512Z" fill="#BBBBBB"/>
<path d="M134.618 54.5513C132.937 54.5513 131.671 54.082 130.821 53.1436C129.989 52.205 129.572 50.9681 129.572 49.4323V41.8817H134.058V48.9203C134.058 50.3366 134.695 51.0448 135.969 51.0448C136.547 51.0448 137.074 50.9082 137.549 50.6353C138.026 50.3623 138.416 49.9612 138.722 49.4323V41.8817H143.207V54.1674H138.875V52.8363C138.349 53.3995 137.711 53.8261 136.963 54.1162C136.216 54.4062 135.434 54.5513 134.618 54.5513Z" fill="#BBBBBB"/>
<path d="M145.505 41.8817H149.659V43.2126C150.168 42.6666 150.754 42.2486 151.417 41.9584C152.08 41.6513 152.786 41.4978 153.533 41.4978C154.45 41.4978 155.182 41.6342 155.725 41.9072C156.286 42.1803 156.735 42.5897 157.075 43.1358C157.585 42.6239 158.205 42.2229 158.936 41.9329C159.666 41.6428 160.406 41.4978 161.153 41.4978C162.768 41.4978 163.915 41.9158 164.595 42.7518C165.275 43.5709 165.615 44.7568 165.615 46.3096V54.1673H161.332V46.9496C161.332 46.267 161.204 45.7721 160.95 45.4648C160.695 45.1579 160.27 45.0043 159.675 45.0043C158.911 45.0043 158.291 45.2774 157.815 45.8232C157.832 46.1134 157.841 46.5571 157.841 47.1543V54.1673H153.559V46.7704C153.559 46.1389 153.448 45.6868 153.227 45.4138C153.007 45.1408 152.615 45.0043 152.055 45.0043C151.188 45.0043 150.44 45.4905 149.812 46.4631V54.1673H145.505V41.8817Z" fill="#BBBBBB"/>
<path d="M43.4243 43.1807L43.0761 43.2548L53.8804 54.1049V83.6H44.6339L33.7559 72.6759H43.0023V43.1806H33.7559V33.8953H43.0023V4.40002L53.8804 15.3242V33.8952L43.0023 33.8953V43.1806L43.4243 43.1807Z" fill="#BBBBBB"/>
<path d="M72.3735 43.1807L83.2516 54.1049V44.8193L72.3735 33.8951V43.1807Z" fill="#BBBBBB"/>
<path d="M93.9976 62.5653H100.599C102.467 62.5653 103.92 63.009 104.957 63.8964C106.01 64.7836 106.538 66.0975 106.538 67.8379C106.538 69.5955 106.018 70.9095 104.983 71.7798C103.946 72.6499 102.484 73.085 100.599 73.085H95.9855V80.4564H93.9976V62.5653ZM100.446 71.3958C101.72 71.3958 102.723 71.1399 103.453 70.6279C104.184 70.099 104.549 69.169 104.549 67.8379C104.549 66.4899 104.184 65.56 103.453 65.0481C102.723 64.5191 101.72 64.2547 100.446 64.2547H95.9855V71.3958H100.446Z" fill="#BBBBBB"/>
<path d="M109.081 61.5416H111.043V80.4565H109.081V61.5416Z" fill="#BBBBBB"/>
<path d="M119.551 80.8405C117.92 80.8405 116.662 80.3968 115.778 79.5094C114.912 78.6222 114.479 77.4363 114.479 75.9517V68.1708H116.442V76.0542C116.442 78.2042 117.554 79.2792 119.781 79.2792C120.715 79.2792 121.53 79.0743 122.228 78.665C122.941 78.2552 123.578 77.6068 124.138 76.7196V68.1708H126.102V80.4565H124.19V78.6136C123.086 80.0981 121.539 80.8405 119.551 80.8405Z" fill="#BBBBBB"/>
<path d="M133.921 80.8404C133.122 80.8404 132.264 80.7209 131.347 80.4821C130.429 80.2602 129.716 79.9787 129.205 79.6373V77.9737C129.851 78.3662 130.591 78.6818 131.423 78.9206C132.273 79.1596 133.088 79.279 133.87 79.279C134.923 79.279 135.68 79.1339 136.138 78.8439C136.615 78.5368 136.852 78.0846 136.852 77.4875C136.852 77.0267 136.75 76.6683 136.546 76.4124C136.342 76.1393 136.003 75.9005 135.526 75.6958C135.051 75.4909 134.312 75.2521 133.31 74.9791C132.324 74.7061 131.534 74.4245 130.939 74.1345C130.362 73.8272 129.919 73.4433 129.614 72.9826C129.308 72.522 129.156 71.9332 129.156 71.2166C129.156 70.1074 129.597 69.2628 130.48 68.6827C131.381 68.0854 132.57 67.7869 134.048 67.7869C134.846 67.7869 135.595 67.8636 136.292 68.0171C137.005 68.1536 137.599 68.3499 138.076 68.606V70.2695C137.582 69.9965 136.988 69.7832 136.292 69.6296C135.595 69.459 134.872 69.3737 134.125 69.3737C133.139 69.3737 132.392 69.5187 131.881 69.8088C131.372 70.099 131.118 70.5682 131.118 71.2166C131.118 71.6603 131.203 72.0015 131.372 72.2404C131.56 72.4792 131.89 72.7011 132.367 72.9058C132.859 73.0936 133.641 73.3325 134.711 73.6225C136.241 74.0491 137.302 74.5525 137.897 75.1327C138.508 75.6958 138.814 76.4807 138.814 77.4875C138.814 78.5281 138.407 79.3472 137.591 79.9446C136.793 80.5418 135.569 80.8404 133.921 80.8404Z" fill="#BBBBBB"/>
</svg>
