<svg width="101" height="83" viewBox="0 0 101 83" fill="none" xmlns="http://www.w3.org/2000/svg">
<g clip-path="url(#clip0_210_29)">
<path d="M69.4247 29.8111H56.1435C55.7647 27.633 55.0663 25.7036 54.0483 24.0227C53.0303 22.3182 51.7637 20.8741 50.2486 19.6903C48.7334 18.5066 47.0052 17.6188 45.0639 17.027C43.1463 16.4115 41.0748 16.1037 38.8494 16.1037C34.8958 16.1037 31.392 17.098 28.3381 19.0866C25.2841 21.0516 22.893 23.9399 21.1648 27.7514C19.4366 31.5393 18.5724 36.1676 18.5724 41.6364C18.5724 47.1998 19.4366 51.8873 21.1648 55.6989C22.9167 59.4867 25.3078 62.3513 28.3381 64.2926C31.392 66.2102 34.884 67.169 38.8139 67.169C40.992 67.169 43.0279 66.8849 44.9219 66.3168C46.8395 65.7249 48.5559 64.8608 50.071 63.7244C51.6098 62.5881 52.9001 61.1913 53.9418 59.5341C55.0071 57.8769 55.741 55.983 56.1435 53.8523L69.4247 53.9233C68.9276 57.3797 67.8504 60.6231 66.1932 63.6534C64.5597 66.6837 62.4171 69.3589 59.7656 71.679C57.1141 73.9754 54.0128 75.7746 50.4616 77.0767C46.9105 78.3551 42.9688 78.9943 38.6364 78.9943C32.2443 78.9943 26.5388 77.5147 21.5199 74.5554C16.5009 71.5961 12.5473 67.3229 9.65909 61.7358C6.77083 56.1487 5.3267 49.4489 5.3267 41.6364C5.3267 33.8002 6.78267 27.1004 9.6946 21.5369C12.6065 15.9498 16.572 11.6766 21.5909 8.71733C26.6098 5.75805 32.2917 4.27841 38.6364 4.27841C42.6847 4.27841 46.4489 4.84659 49.929 5.98295C53.4091 7.11932 56.5104 8.78835 59.233 10.9901C61.9555 13.1681 64.1927 15.8433 65.9446 19.0156C67.7202 22.1643 68.8802 25.7628 69.4247 29.8111Z" fill="#FAFAFA"/>
<path d="M81.4031 20.3622V8.56889H87.2358C87.8963 8.56889 88.5249 8.71804 89.1214 9.01633C89.7287 9.30398 90.2188 9.73544 90.5916 10.3107C90.9751 10.886 91.1669 11.5945 91.1669 12.4361C91.1669 13.2777 90.9698 13.9968 90.5756 14.5934C90.1815 15.1793 89.6701 15.6268 89.0415 15.9357C88.4237 16.2447 87.7738 16.3991 87.092 16.3991H83.017V14.2738H86.3888C86.8043 14.2738 87.1879 14.1193 87.5394 13.8104C87.891 13.5014 88.0668 13.0433 88.0668 12.4361C88.0668 11.7969 87.891 11.3494 87.5394 11.0938C87.1879 10.8381 86.8203 10.7102 86.4368 10.7102H84.3114V20.3622H81.4031ZM88.8018 14.881L91.5824 20.3622H88.3864L85.7496 14.881H88.8018ZM85.9893 27.3935C84.2209 27.3935 82.5643 27.0632 81.0195 26.4027C79.4748 25.7422 78.1165 24.826 76.9446 23.6541C75.7727 22.4822 74.8565 21.1239 74.196 19.5792C73.5355 18.0344 73.2053 16.3778 73.2053 14.6094C73.2053 12.8409 73.5355 11.1843 74.196 9.63956C74.8565 8.09482 75.7727 6.73651 76.9446 5.56463C78.1165 4.39276 79.4748 3.47656 81.0195 2.81605C82.5643 2.15554 84.2209 1.82528 85.9893 1.82528C87.7578 1.82528 89.4144 2.15554 90.9592 2.81605C92.5039 3.47656 93.8622 4.39276 95.0341 5.56463C96.206 6.73651 97.1222 8.09482 97.7827 9.63956C98.4432 11.1843 98.7734 12.8409 98.7734 14.6094C98.7734 16.3778 98.4432 18.0344 97.7827 19.5792C97.1222 21.1239 96.206 22.4822 95.0341 23.6541C93.8622 24.826 92.5039 25.7422 90.9592 26.4027C89.4144 27.0632 87.7578 27.3935 85.9893 27.3935ZM85.9893 24.1175C87.7365 24.1175 89.3292 23.6914 90.7674 22.8391C92.2056 21.9869 93.3509 20.8416 94.2031 19.4034C95.0661 17.9545 95.4975 16.3565 95.4975 14.6094C95.4975 12.8622 95.0661 11.2695 94.2031 9.83132C93.3509 8.38246 92.2056 7.23189 90.7674 6.37961C89.3292 5.52734 87.7365 5.10121 85.9893 5.10121C84.2315 5.10121 82.6335 5.52734 81.1953 6.37961C79.7571 7.23189 78.6065 8.38246 77.7436 9.83132C76.8913 11.2695 76.4652 12.8622 76.4652 14.6094C76.4652 16.3565 76.8913 17.9492 77.7436 19.3874C78.6065 20.8256 79.7571 21.9762 81.1953 22.8391C82.6335 23.6914 84.2315 24.1175 85.9893 24.1175Z" fill="#FAFAFA"/>
</g>
<defs>
<clipPath id="clip0_210_29">
<rect width="101" height="83" fill="white"/>
</clipPath>
</defs>
</svg>
