<svg width="17" height="18" viewBox="0 0 17 18" fill="none" xmlns="http://www.w3.org/2000/svg">
<path d="M9.14019 9.09691L9.14145 9.09563L9.56038 8.67063L9.56042 8.67068L9.56589 8.66495C10.1975 8.00359 10.7036 7.41179 10.8955 6.8322C10.9993 6.51882 11.0167 6.19742 10.9152 5.87285C10.8179 5.56151 10.6235 5.28725 10.3727 5.03486C9.99009 4.6219 9.49119 4.33461 8.9418 4.21106C8.38896 4.08674 7.81134 4.13414 7.28616 4.34694L7.28616 4.34694L7.28356 4.34801C6.96693 4.47838 6.70725 4.65771 6.5196 4.85597C6.34862 5.03661 6.17857 5.2975 6.17857 5.59356C6.17857 5.62198 6.16729 5.64923 6.14719 5.66932C6.1271 5.68942 6.09985 5.7007 6.07143 5.7007C6.04302 5.7007 6.01576 5.68942 5.99567 5.66932L5.64212 6.02288L5.99567 5.66932C5.97947 5.65312 5.96899 5.63226 5.96554 5.60988C6.00487 5.28588 6.13457 4.97921 6.34013 4.72509C6.55289 4.46207 6.83769 4.26677 7.15971 4.16306L7.17702 4.15748L7.19389 4.15066C7.75415 3.92408 8.36965 3.87144 8.96025 3.99959C9.55085 4.12773 10.0892 4.43074 10.5051 4.86914L10.505 4.86927L10.5149 4.87912C10.9235 5.28638 11.107 5.65974 11.1706 5.98844C11.2346 6.31881 11.1861 6.64961 11.055 6.98447C10.7846 7.67481 10.2037 8.29364 9.72535 8.80322L9.71401 8.8153L9.714 8.81528L9.71117 8.81835C9.57327 8.96774 9.43447 9.10662 9.29395 9.24715L9.29255 9.24855L9.26894 9.27235C8.90874 9.63534 8.5851 9.9615 8.36264 10.3181C8.11716 10.7117 8 11.1284 8 11.665C8 11.6934 7.98871 11.7207 7.96862 11.7407C7.94853 11.7608 7.92128 11.7721 7.89286 11.7721C7.86444 11.7721 7.83719 11.7608 7.8171 11.7407C7.79701 11.7207 7.78572 11.6934 7.78572 11.665C7.78572 11.0493 7.92756 10.6197 8.14964 10.2511C8.38319 9.86334 8.71232 9.52788 9.14019 9.09691ZM8.45494 13.7195C8.48515 13.6455 8.50046 13.5663 8.5 13.4864L7.66003 14.0507C7.77141 14.0969 7.89403 14.109 8.01227 14.0852C8.13051 14.0615 8.23901 14.0031 8.32393 13.9175C8.3802 13.8608 8.42472 13.7935 8.45494 13.7195ZM7.96894 13.5654L7.96892 13.5654C7.95393 13.5805 7.93479 13.5908 7.91393 13.595C7.89306 13.5992 7.87142 13.5971 7.85177 13.5889C7.83211 13.5807 7.81533 13.5669 7.80357 13.5492C7.7918 13.5314 7.78558 13.5106 7.78571 13.4893L7.78572 13.4893V13.4864C7.78572 13.458 7.79701 13.4307 7.8171 13.4107C7.83719 13.3906 7.86444 13.3793 7.89286 13.3793C7.92128 13.3793 7.94853 13.3906 7.96862 13.4107C7.98871 13.4307 8 13.458 7.99999 13.4864L8.00001 13.4893C8.00009 13.5034 7.99739 13.5174 7.99206 13.5304L8.43611 13.7118L7.99206 13.5304C7.98673 13.5435 7.97887 13.5554 7.96894 13.5654ZM15.1518 4.18471C16.0308 5.50031 16.5 7.04702 16.5 8.62928C16.5 10.751 15.6571 12.7858 14.1569 14.2861C12.6566 15.7864 10.6217 16.6293 8.5 16.6293C6.91775 16.6293 5.37103 16.1601 4.05544 15.281C2.73985 14.402 1.71447 13.1526 1.10897 11.6907C0.503466 10.2289 0.34504 8.6204 0.653722 7.06855C0.962403 5.51671 1.72433 4.09124 2.84315 2.97242C3.96197 1.8536 5.38743 1.09168 6.93928 0.782994C8.49113 0.474312 10.0997 0.632739 11.5615 1.23824C13.0233 1.84374 14.2727 2.86912 15.1518 4.18471ZM14.9736 12.9548C15.8291 11.6744 16.2857 10.1691 16.2857 8.62928C16.2857 6.56438 15.4654 4.58405 14.0053 3.12394C12.5452 1.66384 10.5649 0.843562 8.5 0.843562C6.96013 0.843562 5.45485 1.30019 4.17449 2.15569C2.89414 3.0112 1.89622 4.22716 1.30694 5.64981C0.717659 7.07246 0.563476 8.63791 0.86389 10.1482C1.1643 11.6585 1.90582 13.0458 2.99467 14.1346C4.08352 15.2235 5.4708 15.965 6.98109 16.2654C8.49137 16.5658 10.0568 16.4116 11.4795 15.8223C12.9021 15.2331 14.1181 14.2351 14.9736 12.9548Z" fill="#181927" stroke="#181927"/>
</svg>
