<svg width="17" height="18" viewBox="0 0 17 18" fill="none" xmlns="http://www.w3.org/2000/svg">
<path d="M13.2308 6.01389V6.51389H13.7308H15.0385C15.4261 6.51389 15.7978 6.66787 16.0719 6.94196C16.346 7.21605 16.5 7.5878 16.5 7.97543V13.86C16.5 14.5945 16.2082 15.2989 15.6889 15.8182C15.1696 16.3375 14.4652 16.6293 13.7308 16.6293H3.26923C2.53479 16.6293 1.83042 16.3375 1.31109 15.8182L0.957536 16.1717L1.31109 15.8182C0.791757 15.2989 0.5 14.5945 0.5 13.86C0.5 13.8192 0.516209 13.7801 0.54506 13.7513C0.573911 13.7224 0.613041 13.7062 0.653846 13.7062C0.694651 13.7062 0.733781 13.7224 0.762631 13.7513C0.791483 13.7801 0.807692 13.8192 0.807692 13.86C0.807692 14.5129 1.06703 15.139 1.52866 15.6006C1.99029 16.0622 2.61639 16.3216 3.26923 16.3216H13.7308C14.3836 16.3216 15.0097 16.0622 15.4713 15.6006C15.933 15.139 16.1923 14.5129 16.1923 13.86V7.97543C16.1923 7.66941 16.0707 7.37592 15.8544 7.15953C15.638 6.94315 15.3445 6.82158 15.0385 6.82158H13.0769C13.0361 6.82158 12.997 6.80537 12.9681 6.77652C12.9393 6.74767 12.9231 6.70854 12.9231 6.66773V3.3985C12.9231 2.74566 12.6637 2.11956 12.2021 1.65793C11.7405 1.1963 11.1144 0.936965 10.4615 0.936965H3.26923C2.61639 0.936965 1.99029 1.1963 1.52866 1.65793C1.06703 2.11956 0.807692 2.74566 0.807692 3.3985V11.2447C0.807692 11.2855 0.791484 11.3246 0.762632 11.3534C0.733781 11.3823 0.694649 11.3985 0.653846 11.3985C0.613043 11.3985 0.573911 11.3823 0.545061 11.3534C0.516209 11.3246 0.5 11.2855 0.5 11.2447V3.3985C0.5 2.66406 0.791757 1.95969 1.31109 1.44036C1.83042 0.92103 2.53479 0.629272 3.26923 0.629272H10.4615C10.8252 0.629272 11.1853 0.700901 11.5213 0.840068L11.7126 0.378128L11.5213 0.840068C11.8573 0.979234 12.1625 1.18321 12.4197 1.44036C12.6768 1.69751 12.8808 2.00279 13.02 2.33876C13.1591 2.67474 13.2308 3.03484 13.2308 3.3985V6.01389ZM4.97297 6.27169L4.97297 6.27169C5.12805 6.42677 5.33838 6.51389 5.55769 6.51389H8.17308C8.39239 6.51389 8.60272 6.42677 8.7578 6.27169C8.91288 6.11661 9 5.90628 9 5.68696C9 5.46765 8.91288 5.25732 8.7578 5.10224C8.60272 4.94716 8.39239 4.86004 8.17308 4.86004H5.55769C5.33838 4.86004 5.12805 4.94716 4.97297 5.10224L4.97297 5.10224C4.81789 5.25732 4.73077 5.46765 4.73077 5.68696C4.73077 5.90628 4.81789 6.11661 4.97297 6.27169ZM8.17308 6.82158H5.55769C5.25677 6.82158 4.96818 6.70204 4.7554 6.48926C4.54262 6.27648 4.42308 5.98788 4.42308 5.68696C4.42308 5.38605 4.54262 5.09745 4.7554 4.88467C4.96818 4.67189 5.25677 4.55235 5.55769 4.55235H8.17308C8.474 4.55235 8.76259 4.67189 8.97537 4.88467C9.18815 5.09745 9.30769 5.38605 9.30769 5.68696C9.30769 5.98788 9.18815 6.27648 8.97537 6.48926C8.76259 6.70204 8.474 6.82158 8.17308 6.82158ZM11.4423 12.7062H5.55769C5.25677 12.7062 4.96818 12.5867 4.7554 12.3739C4.54262 12.1611 4.42308 11.8725 4.42308 11.5716C4.42308 11.2707 4.54262 10.9821 4.7554 10.7693C4.96818 10.5565 5.25677 10.437 5.55769 10.437H11.4423C11.7432 10.437 12.0318 10.5565 12.2446 10.7693C12.4574 10.9821 12.5769 11.2707 12.5769 11.5716C12.5769 11.8725 12.4574 12.1611 12.2446 12.3739C12.0318 12.5867 11.7432 12.7062 11.4423 12.7062ZM11.4423 10.7447H5.55769C5.33838 10.7447 5.12805 10.8318 4.97297 10.9869C4.81789 11.1419 4.73077 11.3523 4.73077 11.5716C4.73077 11.7909 4.81789 12.0012 4.97297 12.1563C5.12805 12.3114 5.33838 12.3985 5.55769 12.3985H11.4423C11.6616 12.3985 11.872 12.3114 12.027 12.1563C12.1821 12.0012 12.2692 11.7909 12.2692 11.5716C12.2692 11.3523 12.1821 11.1419 12.027 10.9869C11.872 10.8318 11.6616 10.7447 11.4423 10.7447Z" fill="#181927" stroke="#181927"/>
</svg>
