<svg width="17" height="18" viewBox="0 0 17 18" fill="none" xmlns="http://www.w3.org/2000/svg">
<path d="M4.15978 1.04632C3.81241 1.04627 3.4765 1.17065 3.21294 1.39694C3.21285 1.39703 3.21275 1.39711 3.21266 1.39719L1.8681 2.54866C1.86794 2.5488 1.86777 2.54894 1.8676 2.54909C1.45634 2.89958 1.1594 3.36515 1.01502 3.88587C0.870629 4.40665 0.885449 4.95873 1.05757 5.47101C1.88421 7.93748 3.27045 10.1792 5.10778 12.0207L5.10862 12.0215C6.95031 13.8586 9.19217 15.2446 11.6587 16.0709C12.1709 16.2432 12.723 16.2581 13.2438 16.1139C13.7646 15.9696 14.2302 15.6728 14.5808 15.2617C14.581 15.2616 14.5811 15.2614 14.5812 15.2613L15.7324 13.9169C15.8597 13.7684 15.9558 13.5958 16.0149 13.4093C16.074 13.2229 16.095 13.0265 16.0766 12.8318C16.0582 12.6371 16.0007 12.4481 15.9077 12.2761L15.4679 12.5139L15.9077 12.2761C15.8147 12.1041 15.6881 11.9527 15.5354 11.8307C15.5353 11.8306 15.5352 11.8306 15.5351 11.8305L13.3992 10.1215L13.3991 10.1214C13.2045 9.96576 12.9666 9.87408 12.7179 9.85894C12.4691 9.8438 12.2218 9.90594 12.0098 10.0368L10.7461 10.8156L10.7446 10.8165C10.4343 11.0093 10.0677 11.0911 9.70483 11.0487C9.34194 11.0063 9.00415 10.8421 8.74663 10.5829L8.7455 10.5818L6.55032 8.38659L6.54914 8.38542C6.28949 8.12748 6.12501 7.78911 6.08256 7.42559C6.04012 7.06207 6.12223 6.6949 6.31548 6.38409L6.31652 6.3824L7.09524 5.11875C7.09527 5.1187 7.09531 5.11864 7.09534 5.11859C7.22618 4.9066 7.28828 4.65934 7.27314 4.41068C7.258 4.16196 7.16633 3.924 7.01067 3.72941L7.01033 3.72899L5.29937 1.5949C5.29912 1.59459 5.29888 1.59428 5.29863 1.59397C5.16237 1.42285 4.98921 1.28472 4.79208 1.18989C4.59482 1.095 4.37867 1.04592 4.15978 1.04632ZM4.15978 1.04632C4.15953 1.04632 4.15928 1.04632 4.15903 1.04632L4.1602 1.54632L4.16054 1.04632C4.16029 1.04632 4.16003 1.04632 4.15978 1.04632ZM0.663166 5.60157L0.662911 5.60081C0.464233 5.01072 0.446871 4.37465 0.613061 3.7746C0.779252 3.17455 1.12138 2.63804 1.59532 2.23424L1.59533 2.23424L1.59639 2.23333L2.94182 1.08051L2.94192 1.08043C3.13284 0.916757 3.35475 0.793196 3.59443 0.717105C3.83411 0.641013 4.08666 0.613949 4.33702 0.637525C4.58738 0.661101 4.83044 0.734834 5.0517 0.854331L5.2893 0.41439L5.0517 0.854331C5.27295 0.97382 5.46788 1.13662 5.62489 1.33304C5.6249 1.33305 5.62491 1.33306 5.62492 1.33307L7.3317 3.46885C7.33178 3.46896 7.33187 3.46906 7.33195 3.46916C7.54059 3.73118 7.66349 4.05109 7.68394 4.3854C7.70439 4.71972 7.6214 5.05222 7.44627 5.33771C7.4462 5.33782 7.44612 5.33794 7.44605 5.33805L6.66787 6.60084C6.66779 6.60096 6.66772 6.60108 6.66764 6.6012C6.66762 6.60123 6.6676 6.60127 6.66758 6.6013C6.52488 6.83254 6.4643 7.10514 6.49563 7.37506C6.52698 7.64517 6.64853 7.89679 6.84063 8.08925L6.84096 8.08958L9.03614 10.2848L9.03635 10.285C9.22857 10.477 9.4799 10.5986 9.74975 10.6301C10.0196 10.6617 10.2922 10.6014 10.5235 10.4589L10.5236 10.4589L11.7881 9.68012C12.0734 9.50461 12.406 9.4214 12.7403 9.44186C13.0746 9.4623 13.3944 9.58534 13.6562 9.79419C13.6563 9.79427 13.6564 9.79435 13.6565 9.79443L15.7924 11.5035L15.7925 11.5035C15.9889 11.6606 16.1517 11.8556 16.2711 12.0769C16.3906 12.2981 16.4643 12.5412 16.4879 12.7916L16.9857 12.7447L16.4879 12.7916C16.5115 13.0419 16.4844 13.2945 16.4084 13.5341C16.3323 13.7738 16.2088 13.9958 16.0452 14.1867L14.8924 15.5322L14.8913 15.5334C14.5995 15.8763 14.2367 16.1518 13.8281 16.341C13.4196 16.5301 12.9749 16.6285 12.5248 16.6293C12.1861 16.629 11.8497 16.5741 11.5285 16.4668C8.99995 15.6196 6.70183 14.1986 4.81397 12.3152C2.93065 10.4278 1.50994 8.12988 0.663166 5.60157Z" fill="#181927" stroke="#1670F8"/>
</svg>
