<svg width="17" height="14" viewBox="0 0 17 14" fill="none" xmlns="http://www.w3.org/2000/svg">
<path fill-rule="evenodd" clip-rule="evenodd" d="M8.06354 9.71195e-07H8.93647C9.64691 -2.4339e-05 10.2393 -4.13797e-05 10.7096 0.0674187C11.206 0.138633 11.6542 0.295278 12.0143 0.679545C12.3744 1.06381 12.5213 1.54201 12.588 2.07166C12.6512 2.57345 12.6512 3.20553 12.6512 3.96353V9.11335C12.6512 9.87139 12.6512 10.5035 12.588 11.0053C12.5213 11.5349 12.3744 12.0131 12.0143 12.3973C11.6542 12.7816 11.206 12.9383 10.7096 13.0095C10.2393 13.077 9.64691 13.0769 8.93647 13.0769H8.06354C7.35309 13.0769 6.7607 13.077 6.29041 13.0095C5.79402 12.9383 5.34585 12.7816 4.98571 12.3973C4.62557 12.0131 4.47877 11.5349 4.41202 11.0053C4.3488 10.5035 4.34881 9.87139 4.34884 9.11335V3.96357C4.34881 3.20555 4.3488 2.57346 4.41202 2.07166C4.47877 1.54201 4.62557 1.06381 4.98571 0.679545C5.34585 0.295278 5.79402 0.138633 6.29041 0.0674187C6.7607 -4.13797e-05 7.35309 -2.4339e-05 8.06354 9.71195e-07ZM6.44845 1.32165C6.08357 1.37399 5.92742 1.46445 5.82438 1.57439C5.72133 1.68434 5.63655 1.85096 5.5875 2.24029C5.53615 2.64781 5.53488 3.19414 5.53488 4.00744V9.06948C5.53488 9.88278 5.53615 10.4291 5.5875 10.8366C5.63655 11.226 5.72133 11.3926 5.82438 11.5025C5.92742 11.6125 6.08357 11.7029 6.44845 11.7553C6.83039 11.8101 7.34242 11.8114 8.10465 11.8114H8.89535C9.65758 11.8114 10.1696 11.8101 10.5515 11.7553C10.9165 11.7029 11.0726 11.6125 11.1756 11.5025C11.2787 11.3926 11.3634 11.226 11.4125 10.8366C11.4639 10.4291 11.4651 9.88278 11.4651 9.06948V4.00744C11.4651 3.19414 11.4639 2.64781 11.4125 2.24029C11.3634 1.85096 11.2787 1.68434 11.1756 1.57439C11.0726 1.46445 10.9165 1.37399 10.5515 1.32165C10.1696 1.26686 9.65758 1.26551 8.89535 1.26551H8.10465C7.34242 1.26551 6.83039 1.26686 6.44845 1.32165Z" fill="#1670F8"/>
<path d="M16.0116 1.26551C15.2474 1.26551 14.6279 1.92653 14.6279 2.74194V10.335C14.6279 11.1504 15.2474 11.8114 16.0116 11.8114H16.407C16.7345 11.8114 17 12.0947 17 12.4442C17 12.7936 16.7345 13.0769 16.407 13.0769H16.0116C14.5924 13.0769 13.4419 11.8493 13.4419 10.335V2.74194C13.4419 1.22761 14.5924 0 16.0116 0H16.407C16.7345 0 17 0.283297 17 0.632754C17 0.982212 16.7345 1.26551 16.407 1.26551H16.0116Z" fill="#1670F8"/>
<path d="M0.593023 0C0.265508 0 0 0.283297 0 0.632754C0 0.982212 0.265508 1.26551 0.593023 1.26551H0.988372C1.75258 1.26551 2.37209 1.92653 2.37209 2.74194V10.335C2.37209 11.1504 1.75258 11.8114 0.988372 11.8114H0.593023C0.265508 11.8114 0 12.0947 0 12.4442C0 12.7936 0.265508 13.0769 0.593023 13.0769H0.988372C2.40762 13.0769 3.55814 11.8493 3.55814 10.335V2.74194C3.55814 1.22761 2.40762 0 0.988372 0H0.593023Z" fill="#1670F8"/>
</svg>
