<svg width="17" height="18" viewBox="0 0 17 18" fill="none" xmlns="http://www.w3.org/2000/svg">
<path d="M16.3667 15.4278C16.3667 15.428 16.3667 15.4282 16.3667 15.4285V15.4293L16.3667 15.4278ZM16.3667 15.4278V1.83078C16.3667 1.83054 16.3667 1.8303 16.3667 1.83006V1.82927L16.3667 15.4278ZM15.2992 16.4959C15.299 16.4959 15.2987 16.4959 15.2985 16.4959H1.70151C1.70127 16.4959 1.70103 16.4959 1.70079 16.4959H1.7V15.9959C1.62552 15.9962 1.55173 15.9817 1.48288 15.9533C1.41403 15.9249 1.35147 15.8831 1.29881 15.8305C1.24614 15.7778 1.20441 15.7152 1.17601 15.6464C1.14761 15.5775 1.13311 15.5038 1.13333 15.4293L15.2992 16.4959ZM15.2992 16.4959H15.3V15.9959L15.2992 16.4959ZM16.1481 0.980677L16.1487 0.98124C16.3736 1.20575 16.5 1.51073 16.5 1.82927V15.4293V15.4294C16.5001 15.5869 16.469 15.7429 16.4087 15.8884C16.3484 16.0339 16.26 16.1661 16.1486 16.2774L16.148 16.2779C15.9235 16.5028 15.6185 16.6293 15.3 16.6293H1.7H1.69983C1.54233 16.6293 1.38637 16.5983 1.24087 16.538C1.09537 16.4777 0.963192 16.3893 0.851903 16.2779L0.851339 16.2773C0.626432 16.0528 0.5 15.7478 0.5 15.4293V1.82927L0.5 1.8291C0.499947 1.6716 0.530957 1.51564 0.591256 1.37014C0.651554 1.22464 0.739958 1.09246 0.851404 0.981175L0.851968 0.980612C1.07648 0.755704 1.38146 0.629273 1.7 0.629273H15.3L15.3002 0.629273C15.4577 0.629219 15.6136 0.660229 15.7591 0.720528C15.9046 0.780827 16.0368 0.869231 16.1481 0.980677ZM8.5124 3.02952L8.49949 3.02919L8.48658 3.02952C7.91298 3.04434 7.36786 3.2826 6.9674 3.69354C6.56694 4.10447 6.34282 4.65557 6.34282 5.22936C6.34282 5.80315 6.56694 6.35424 6.9674 6.76518C7.36786 7.17611 7.91298 7.41438 8.48658 7.42919L8.49949 7.42952L8.5124 7.42919C9.08599 7.41438 9.63112 7.17611 10.0316 6.76518C10.432 6.35424 10.6562 5.80315 10.6562 5.22936C10.6562 4.65557 10.432 4.10447 10.0316 3.69354C9.63112 3.2826 9.08599 3.04434 8.5124 3.02952ZM0.633334 1.82991V15.4286L1.13333 1.82927H0.633334V1.82991ZM15.2994 0.762606H1.70064H15.3H15.2994ZM6.16616 5.22936C6.16616 3.9415 7.21163 2.89602 8.49949 2.89602C9.78735 2.89602 10.8328 3.9415 10.8328 5.22936C10.8328 6.51722 9.78735 7.56269 8.49949 7.56269C7.21163 7.56269 6.16616 6.51722 6.16616 5.22936ZM4.25096 14.0112C4.02592 13.7862 3.89949 13.481 3.89949 13.1627C3.89949 12.2433 4.26473 11.3615 4.91485 10.7114C5.56498 10.0613 6.44674 9.69602 7.36616 9.69602H9.63282C10.5522 9.69602 11.434 10.0613 12.0841 10.7114C12.7343 11.3615 13.0995 12.2433 13.0995 13.1627C13.0995 13.481 12.9731 13.7862 12.748 14.0112C12.523 14.2363 12.2177 14.3627 11.8995 14.3627H5.09949C4.78123 14.3627 4.476 14.2363 4.25096 14.0112ZM12.9662 13.1627C12.9662 12.725 12.8799 12.2915 12.7124 11.8871C12.5449 11.4827 12.2994 11.1152 11.9898 10.8057C11.6803 10.4961 11.3129 10.2506 10.9084 10.0831C10.504 9.91558 10.0706 9.82936 9.63282 9.82936H7.36616C6.4821 9.82936 5.63425 10.1805 5.00913 10.8057C4.38401 11.4308 4.03282 12.2786 4.03282 13.1627C4.03282 13.4456 4.1452 13.7169 4.34524 13.9169C4.54528 14.117 4.81659 14.2294 5.09949 14.2294H11.8995C12.1824 14.2294 12.4537 14.117 12.6537 13.9169C12.8538 13.7169 12.9662 13.4456 12.9662 13.1627Z" stroke="#1670F8"/>
</svg>
