<svg width="17" height="18" viewBox="0 0 17 18" fill="none" xmlns="http://www.w3.org/2000/svg">
<path d="M1.21429 0.843558H0.714286V1.34356V9.84356V10.3436H1.21429H15.7857H16.2857V9.84356V1.34356V0.843558H15.7857H1.21429ZM1.21429 12.9055H0.714286V13.4055V15.915V16.415H1.21429H15.7857H16.2857V15.915V13.4055V12.9055H15.7857H1.21429ZM0.607143 0.629272H16.3929C16.4213 0.629272 16.4485 0.640561 16.4686 0.660653C16.4887 0.680744 16.5 0.707995 16.5 0.736415V16.5221C16.5 16.5506 16.4887 16.5778 16.4686 16.5979C16.4485 16.618 16.4213 16.6293 16.3929 16.6293H0.607143C0.578723 16.6293 0.551472 16.618 0.531381 16.5979C0.511289 16.5778 0.5 16.5505 0.5 16.5221V0.736415C0.5 0.707999 0.511288 0.680747 0.531381 0.660654C0.551475 0.640561 0.578727 0.629272 0.607143 0.629272Z" fill="#181927" stroke="#181927"/>
</svg>
