<svg width="19" height="19" viewBox="0 0 19 19" fill="none" xmlns="http://www.w3.org/2000/svg">
<path d="M6.66667 7.97649L9.5 10.8098L12.3333 7.97649M2.7 1.12927H16.3C16.7505 1.12927 17.1831 1.31722 17.5023 1.65155C17.8206 1.98588 18 2.44016 18 2.91333V9.20994C18 11.5748 17.1047 13.8443 15.5104 15.5169C13.9162 17.1895 11.7544 18.1293 9.5 18.1293C8.38066 18.1286 7.27346 17.8974 6.24733 17.4502C5.20813 16.9965 4.2704 16.3392 3.48956 15.5169C1.89533 13.8443 1 11.5748 1 9.20994V2.91333C1 2.44016 1.17944 1.98588 1.49772 1.65155C1.65219 1.48746 1.83844 1.35653 2.04514 1.26674C2.25183 1.17695 2.47465 1.13018 2.7 1.12927Z" stroke="#181927" stroke-linecap="round" stroke-linejoin="round"/>
</svg>
