<svg width="19" height="15" viewBox="0 0 19 15" fill="none" xmlns="http://www.w3.org/2000/svg">
<path d="M17.3689 4.95779C11.5424 4.15742 7.39946 8.48367 7.73706 14.222M1.56678 8.55066C4.01727 8.21129 6.72426 9.6904 7.91336 11.5776M4.21119 4.96661C4.21119 5.43417 4.39693 5.88258 4.72754 6.21319C5.05816 6.54381 5.50657 6.72955 5.97413 6.72955C6.44169 6.72955 6.8901 6.54381 7.22071 6.21319C7.55133 5.88258 7.73706 5.43417 7.73706 4.96661C7.73706 4.49905 7.55133 4.05064 7.22071 3.72002C6.8901 3.38941 6.44169 3.20367 5.97413 3.20367C5.50657 3.20367 5.05816 3.38941 4.72754 3.72002C4.39693 4.05064 4.21119 4.49905 4.21119 4.96661ZM1 5.23105C1 3.75018 1 3.00975 1.28824 2.44385C1.54176 1.94629 1.94629 1.54176 2.44385 1.28824C3.00975 1 3.75018 1 5.23105 1H13.769C15.2498 1 15.9903 1 16.5562 1.28824C17.0534 1.54191 17.4576 1.94642 17.7109 2.44385C18 3.00975 18 3.75018 18 5.23105V9.99098C18 11.4718 18 12.2123 17.7118 12.7782C17.4582 13.2757 17.0537 13.6803 16.5562 13.9338C15.9903 14.222 15.2498 14.222 13.769 14.222H5.23105C3.75018 14.222 3.00975 14.222 2.44385 13.9338C1.94662 13.6801 1.54242 13.2756 1.28912 12.7782C1 12.2123 1 11.4718 1 9.99098V5.23105Z" stroke="#1670F8" stroke-linecap="round" stroke-linejoin="round"/>
</svg>
