<svg width="19" height="19" viewBox="0 0 19 19" fill="none" xmlns="http://www.w3.org/2000/svg">
<path d="M4.70222 4.78847L3.31389 3.38786M12.1057 4.78847L13.4941 3.38786M3.31294 13.6634L4.70128 12.2619M8.4035 2.9213V1.05225M2.85017 8.52563H1M14.1042 14.1196L17.7063 12.6972C17.7932 12.6625 17.8677 12.6024 17.9202 12.5249C17.9726 12.4474 18.0007 12.3559 18.0007 12.2623C18.0007 12.1687 17.9726 12.0773 17.9202 11.9997C17.8677 11.9222 17.7932 11.8622 17.7063 11.8274L9.05044 8.41325C8.96618 8.38064 8.87423 8.3733 8.78586 8.39214C8.69749 8.41098 8.61653 8.45517 8.55289 8.51932C8.48925 8.58346 8.44569 8.66476 8.42754 8.75328C8.4094 8.8418 8.41745 8.93368 8.45072 9.01769L11.8337 17.7547C11.9867 18.1514 12.5421 18.1514 12.6951 17.7547L14.1042 14.1196Z" stroke="#181927" stroke-linecap="round" stroke-linejoin="round"/>
</svg>
