<svg width="19" height="19" viewBox="0 0 19 19" fill="none" xmlns="http://www.w3.org/2000/svg">
<path d="M9.49994 18L17.1792 14.0258C17.4776 13.8709 17.6268 13.7944 17.7354 13.6801C17.8316 13.5799 17.9045 13.4596 17.9489 13.3279C17.9999 13.1777 17.9999 13.0105 17.9999 12.6743V5.28126M9.49994 18L1.82072 14.0258C1.52227 13.8709 1.37305 13.7944 1.26444 13.6801C1.16846 13.5797 1.09562 13.4594 1.051 13.3279C1 13.1777 1 13.0096 1 12.6724V5.28126M9.49994 18V9.44056M17.9999 5.28126L9.49994 9.44056M17.9999 5.28126L10.1894 1.23907C9.93721 1.10874 9.8116 1.04263 9.67844 1.01713C9.56053 0.994291 9.43934 0.994291 9.32144 1.01713C9.18922 1.04263 9.06266 1.10874 8.80955 1.23907L1 5.28126M1 5.28126L9.49994 9.44056" stroke="#181927" stroke-linecap="round" stroke-linejoin="round"/>
</svg>
