<svg width="19" height="19" viewBox="0 0 19 19" fill="none" xmlns="http://www.w3.org/2000/svg">
<path d="M6.66667 1.60149V17.657M1 7.17372C1 5.05816 1 4.00038 1.41178 3.19194C1.77396 2.48114 2.35186 1.90323 3.06267 1.54105C3.87111 1.12927 4.92889 1.12927 7.04444 1.12927H11.9556C14.0711 1.12927 15.1289 1.12927 15.9373 1.54105C16.6481 1.90323 17.226 2.48114 17.5882 3.19194C18 4.00038 18 5.05816 18 7.17372V12.0848C18 14.2004 18 15.2582 17.5882 16.0666C17.226 16.7774 16.6481 17.3553 15.9373 17.7175C15.1289 18.1293 14.0711 18.1293 11.9556 18.1293H7.04444C4.92889 18.1293 3.87111 18.1293 3.06267 17.7175C2.35186 17.3553 1.77396 16.7774 1.41178 16.0666C1 15.2582 1 14.2004 1 12.0848V7.17372Z" stroke="#181927" stroke-linecap="round" stroke-linejoin="round"/>
</svg>
