<svg width="22" height="19" viewBox="0 0 22 19" fill="none" xmlns="http://www.w3.org/2000/svg">
<path d="M1 6.04757V13.1559C1 14.8646 1 15.7189 1.33258 16.3719C1.62528 16.9456 2.09202 17.412 2.66596 17.7042C3.31893 18.0378 4.17327 18.0378 5.88195 18.0378H15.7272C17.4359 18.0378 18.2902 18.0378 18.9432 17.7053C19.5173 17.4127 19.984 16.946 20.2766 16.3719C20.6092 15.7189 20.6092 14.8646 20.6092 13.1559V6.04757M1 6.04757L8.43277 1.91622C9.2983 1.43515 9.73157 1.1941 10.1893 1.10053C10.5952 1.01695 11.0139 1.01695 11.4199 1.10053C11.8776 1.19512 12.3109 1.43617 13.1764 1.91622L20.6092 6.04757M1 6.04757L8.09713 10.782C9.07556 11.434 9.56375 11.7605 10.0936 11.8876C10.5615 11.9995 11.0487 11.9995 11.5155 11.8876C12.0444 11.7605 12.5346 11.434 13.5141 10.781L20.6092 6.04757" stroke="#1670F8" stroke-linecap="round" stroke-linejoin="round"/>
</svg>
