<svg width="17" height="22" viewBox="0 0 17 22" fill="none" xmlns="http://www.w3.org/2000/svg">
<path d="M1.30708 6.15504L1.15483 6.27231V6.46449V19.5973V19.9879H1.54545H15.4545H15.8452V19.5973V6.46449V6.27231L15.6929 6.15504L9.71665 1.55143L9.71655 1.55135C9.37047 1.28494 8.9406 1.14165 8.5 1.14165C8.0594 1.14165 7.62953 1.28494 7.28345 1.55135L7.28335 1.55143L1.30708 6.15504ZM16.4772 5.86602L16.4778 5.86641C16.5212 5.89981 16.5544 5.94039 16.5765 5.98407C16.5985 6.02764 16.6093 6.074 16.6094 6.12006V20.3248C16.6094 20.4063 16.5752 20.4896 16.5059 20.5548C16.4358 20.6208 16.336 20.6617 16.2273 20.6617H0.772727C0.664038 20.6617 0.564191 20.6208 0.494092 20.5548C0.42479 20.4896 0.390625 20.4063 0.390625 20.3248L0.390625 6.11966L0.390625 6.11938C0.390592 6.07338 0.40136 6.02705 0.423233 5.98351C0.445162 5.93985 0.478159 5.89925 0.521494 5.8658L6.78029 1.04417C6.78029 1.04417 6.7803 1.04417 6.7803 1.04416C7.26249 0.672728 7.86975 0.467529 8.49923 0.467529C9.12871 0.467529 9.73597 0.672731 10.2182 1.04417L16.4772 5.86602ZM8.5 9.80294C9.00613 9.80294 9.49592 9.61387 9.86057 9.27057C10.226 8.92652 10.4361 8.45467 10.4361 7.95732C10.4361 7.45997 10.226 6.98812 9.86057 6.64407C9.49592 6.30077 9.00613 6.1117 8.5 6.1117C7.99387 6.1117 7.50408 6.30077 7.13943 6.64407C6.77399 6.98812 6.56392 7.45997 6.56392 7.95732C6.56392 8.45467 6.77399 8.92652 7.13943 9.27057C7.50408 9.61387 7.99387 9.80294 8.5 9.80294ZM8.5 10.4767C7.77649 10.4767 7.08701 10.2059 6.58216 9.73059C6.07812 9.25604 5.79972 8.61764 5.79972 7.95732C5.79972 7.297 6.07812 6.6586 6.58216 6.18406C7.08701 5.70876 7.77649 5.43795 8.5 5.43795C9.22351 5.43795 9.91299 5.70876 10.4178 6.18406C10.9219 6.6586 11.2003 7.29701 11.2003 7.95732C11.2003 8.61764 10.9219 9.25604 10.4178 9.73059C9.91299 10.2059 9.22351 10.4767 8.5 10.4767Z" fill="#181927" stroke="#1670F8" stroke-width="0.78125"/>
</svg>
