<svg width="19" height="8" viewBox="0 0 19 8" fill="none" xmlns="http://www.w3.org/2000/svg">
<path d="M12.3333 4.0378C12.3333 4.78925 12.0348 5.50992 11.5035 6.04127C10.9721 6.57262 10.2514 6.87113 9.5 6.87113C8.74855 6.87113 8.02788 6.57262 7.49653 6.04127C6.96518 5.50992 6.66667 4.78925 6.66667 4.0378M12.3333 4.0378C12.3333 3.28635 12.0348 2.56568 11.5035 2.03433C10.9721 1.50298 10.2514 1.20447 9.5 1.20447C8.74855 1.20447 8.02788 1.50298 7.49653 2.03433C6.96518 2.56568 6.66667 3.28635 6.66667 4.0378M12.3333 4.0378H18M6.66667 4.0378H1" stroke="#1670F8" stroke-linecap="round" stroke-linejoin="round"/>
</svg>
