<svg width="139" height="38" viewBox="0 0 139 38" fill="none" xmlns="http://www.w3.org/2000/svg">
<rect width="37.6765" height="37.6765" rx="18.8382" fill="#1670F8"/>
<mask id="mask0_2018_37" style="mask-type:alpha" maskUnits="userSpaceOnUse" x="0" y="0" width="38" height="38">
<rect width="37.6765" height="37.6765" rx="18.8382" fill="#2175F6"/>
</mask>
<g mask="url(#mask0_2018_37)">
<path d="M22.804 14.541C25.8605 16.0275 26.2654 20.219 26.0858 22.129C24.3577 17.708 21.7111 17.0654 15.5685 14.3834C12.6293 13.1001 10.3093 10.827 9.45853 9.51202C9.28098 10.1564 9.43638 12.2342 11.4783 15.3902C14.0308 19.3352 20.1185 19.8845 23.0261 22.5408C25.3521 24.6659 24.4984 27.4707 23.7808 28.6075C22.6995 24.355 19.1706 23.954 15.2325 21.8926C12.0821 20.2436 11.1487 19.1027 10.0326 18.1215C2.49908 20.3034 -0.996033 17.6294 -1.37558 15.4962C-1.98758 12.0564 0.0193914 7.91738 7.20407 3.22743C11.606 0.353968 22.3661 -5.25544 26.0347 -0.329156C29.7032 4.59713 22.3442 11.5552 22.192 11.1012C21.7354 9.73922 20.4154 8.87572 19.0783 8.56392C12.7274 7.08283 11.252 4.05129 10.0291 2.40919C10.1624 10.7312 18.9833 12.6828 22.804 14.541Z" fill="white"/>
</g>
<path d="M57.7912 2.41473C61.9427 2.41473 65.633 4.02183 65.633 8.50614C65.633 11.2797 64.1979 12.9905 62.1221 13.8458L66.1968 20.5593H63.0447L59.38 14.5198C58.8419 14.5716 58.3293 14.5975 57.7912 14.5975H54.024V20.5853H51V2.41473H57.7912ZM54.024 11.9277H57.7912C60.1489 11.9277 62.6347 11.4352 62.6347 8.50614C62.6347 5.603 60.1745 5.1105 57.7912 5.1105H54.024V11.9277Z" fill="#181927"/>
<path d="M72.828 7.18417C74.545 7.18417 76.0827 7.9618 77.159 9.36153V7.59891H80.0805V20.5853H77.159V18.8745C76.0827 20.2483 74.545 21 72.828 21C69.189 20.9741 66.2675 17.9413 66.2675 14.105C66.2675 10.2169 69.189 7.18417 72.828 7.18417ZM69.1634 14.105C69.1634 16.6194 70.8035 18.3302 73.1612 18.3302C75.4932 18.3302 77.159 16.6194 77.159 14.105C77.159 11.5907 75.5189 9.8281 73.1612 9.8281C70.8035 9.8281 69.1634 11.5648 69.1634 14.105Z" fill="#181927"/>
<path d="M92.1698 9.38745V2.41473H95.0913V20.5853H92.1698V18.8745C91.0935 20.2483 89.5559 21 87.8389 21C84.1742 21 81.2783 17.9673 81.2783 14.131C81.2783 10.2428 84.1998 7.21009 87.8389 7.21009C89.5559 7.21009 91.0935 7.98772 92.1698 9.38745ZM84.1742 14.105C84.1742 16.6194 85.8143 18.3302 88.172 18.3302C90.5041 18.3302 92.1698 16.6194 92.1698 14.105C92.1698 11.5907 90.5297 9.8281 88.172 9.8281C85.8143 9.8281 84.1742 11.5648 84.1742 14.105Z" fill="#181927"/>
<path d="M96.443 3.91814C96.443 2.88131 97.3143 2 98.365 2C99.4157 2 100.287 2.88131 100.287 3.91814C100.287 5.00682 99.4157 5.88813 98.365 5.88813C97.3143 5.88813 96.443 5.00682 96.443 3.91814ZM96.8786 7.59891H99.8257V20.5853H96.8786V7.59891Z" fill="#181927"/>
<path d="M107.324 7.18417C109.041 7.18417 110.579 7.9618 111.655 9.36153V7.59891H114.577V20.5853H111.655V18.8745C110.579 20.2483 109.041 21 107.324 21C103.685 20.9741 100.764 17.9413 100.764 14.105C100.764 10.2169 103.685 7.18417 107.324 7.18417ZM103.66 14.105C103.66 16.6194 105.3 18.3302 107.658 18.3302C109.99 18.3302 111.655 16.6194 111.655 14.105C111.655 11.5907 110.015 9.8281 107.658 9.8281C105.3 9.8281 103.66 11.5648 103.66 14.105Z" fill="#181927"/>
<path d="M116.39 7.59891H119.286V9.05048C120.285 7.90996 121.823 7.18417 123.77 7.18417C127.179 7.18417 129.46 9.80218 129.46 13.0941V20.5593H126.538V13.0941C126.538 11.3315 125.206 9.75034 122.899 9.75034C120.644 9.75034 119.286 11.3315 119.286 13.0941V20.5593H116.39V7.59891Z" fill="#181927"/>
<path d="M131.85 16.5157V9.93179H129.825V7.59891H131.85V5.08458H134.797V7.59891H136.847V9.93179H134.797V16.101C134.797 17.4488 135.412 18.6412 137.385 17.8117L138 20.3779C137.282 20.8186 136.462 20.9741 135.514 20.9741C133.233 20.9741 131.85 18.9263 131.85 16.5157Z" fill="#181927"/>
<path d="M54.773 35.143C54.1203 35.143 53.5593 35.0183 53.09 34.769C52.628 34.5197 52.2723 34.1677 52.023 33.713C51.781 33.251 51.66 32.7083 51.66 32.085V27.41H53.178V31.997C53.178 32.547 53.3137 32.9723 53.585 33.273C53.8637 33.5663 54.2633 33.713 54.784 33.713C55.312 33.713 55.7153 33.5663 55.994 33.273C56.2727 32.9723 56.412 32.547 56.412 31.997V27.41H57.897V32.085C57.897 32.7083 57.7723 33.251 57.523 33.713C57.2737 34.1677 56.918 34.5197 56.456 34.769C55.994 35.0183 55.433 35.143 54.773 35.143ZM62.6878 35V27.41H64.2168V35H62.6878ZM74.6425 35V27.41H76.1715V35H74.6425ZM75.3245 35V33.581H79.5595V35H75.3245ZM84.0252 35V27.41H85.5542V35H84.0252ZM91.1035 35V33.603H93.5675C93.9928 33.603 94.2972 33.5223 94.4805 33.361C94.6638 33.1923 94.7555 32.965 94.7555 32.679C94.7555 32.3857 94.6638 32.1583 94.4805 31.997C94.2972 31.8283 93.9928 31.744 93.5675 31.744H91.1035V30.82H93.7985C94.6125 30.82 95.2358 31.0107 95.6685 31.392C96.1012 31.7733 96.3175 32.261 96.3175 32.855C96.3175 33.4857 96.0902 34.0027 95.6355 34.406C95.1808 34.802 94.5355 35 93.6995 35H91.1035ZM90.4215 35V27.41H91.9505V35H90.4215ZM91.1035 31.183V30.501H93.3695C93.7582 30.501 94.0405 30.424 94.2165 30.27C94.3998 30.1087 94.4915 29.8997 94.4915 29.643C94.4915 29.3863 94.3998 29.1847 94.2165 29.038C94.0405 28.884 93.7582 28.807 93.3695 28.807H91.1035V27.41H93.5125C94.0478 27.41 94.5025 27.4943 94.8765 27.663C95.2578 27.8243 95.5475 28.0553 95.7455 28.356C95.9435 28.6493 96.0425 28.9903 96.0425 29.379C96.0425 29.907 95.8225 30.3397 95.3825 30.677C94.9498 31.0143 94.3155 31.183 93.4795 31.183H91.1035ZM101.474 32.338V30.919H103.696C104.158 30.919 104.496 30.831 104.708 30.655C104.921 30.479 105.027 30.2187 105.027 29.874C105.027 29.522 104.921 29.2617 104.708 29.093C104.496 28.917 104.158 28.829 103.696 28.829H101.474V27.41H103.806C104.686 27.41 105.368 27.6337 105.852 28.081C106.344 28.521 106.589 29.1187 106.589 29.874C106.589 30.622 106.344 31.2197 105.852 31.667C105.368 32.1143 104.686 32.338 103.806 32.338H101.474ZM100.792 35V27.41H102.321V35H100.792ZM105.049 35L103.036 31.711H104.631L106.776 35H105.049ZM116.146 35L113.759 27.41H115.266L117.763 35H116.146ZM110.503 35L113 27.41H114.419L112.087 35H110.503ZM112.109 33.141V31.788H116.157V33.141H112.109ZM122.635 32.338V30.919H124.857C125.319 30.919 125.657 30.831 125.869 30.655C126.082 30.479 126.188 30.2187 126.188 29.874C126.188 29.522 126.082 29.2617 125.869 29.093C125.657 28.917 125.319 28.829 124.857 28.829H122.635V27.41H124.967C125.847 27.41 126.529 27.6337 127.013 28.081C127.505 28.521 127.75 29.1187 127.75 29.874C127.75 30.622 127.505 31.2197 127.013 31.667C126.529 32.1143 125.847 32.338 124.967 32.338H122.635ZM121.953 35V27.41H123.482V35H121.953ZM126.21 35L124.197 31.711H125.792L127.937 35H126.21ZM134.298 32.492L131.416 27.41H133.132L135.277 31.315L134.298 32.492ZM134.1 35V30.919H135.607V35H134.1ZM135.42 32.492L134.54 31.315L136.652 27.41H138.313L135.42 32.492Z" fill="#727272"/>
</svg>
