<svg width="17" height="18" viewBox="0 0 17 18" fill="none" xmlns="http://www.w3.org/2000/svg">
<mask id="path-1-inside-1_512_3376" fill="white">
<path fill-rule="evenodd" clip-rule="evenodd" d="M14.0253 9.65722H12.2403C11.9851 9.65722 11.8152 9.48708 11.8152 9.23216C11.8152 8.97723 11.9853 8.8071 12.2403 8.8071H14.0253C14.4501 8.8071 14.8751 8.72231 15.3002 8.63696C15.5551 8.55218 15.7252 8.46711 15.8951 8.38204C16.0652 8.29725 16.1503 8.04205 16.1503 7.87219C16.1503 7.70206 16.0652 7.53192 15.9802 7.36207C15.5551 6.85222 14.7901 6.51223 13.7701 6.17223C13.685 6.17223 13.685 6.08717 13.5999 6.08717C13.345 5.91703 13.1752 5.66211 13.0901 5.40718C13.0901 5.06691 13.2602 4.81199 13.5152 4.64213C14.1101 3.79201 14.4501 3.02724 14.3653 2.34698C14.2802 1.9222 14.1101 1.58221 13.7701 1.32701C13.1752 0.901946 12.3253 0.901946 11.8149 1.32701C11.4752 1.58221 11.3051 1.9222 11.22 2.34698C11.1352 3.02696 11.4752 3.79201 12.0701 4.64213C12.2403 4.81227 12.1552 5.06719 11.9851 5.23705C11.8149 5.40718 11.56 5.32212 11.3901 5.15226C10.54 4.13201 10.2 3.11203 10.3702 2.17712C10.4552 1.58221 10.7952 0.987014 11.3051 0.647022C12.1552 -0.0329609 13.4304 -0.0329609 14.2802 0.647022C14.7901 1.07208 15.13 1.58221 15.2151 2.17712C15.3002 3.11203 14.9602 4.13228 14.1951 5.15226C14.1101 5.23705 14.1101 5.32212 14.025 5.32212C14.025 5.32212 14.1101 5.32212 14.1101 5.40718C15.2151 5.74718 16.0652 6.25702 16.5751 6.85194C16.8303 7.10714 17.0001 7.5322 17.0001 7.95726C17.0001 8.18816 16.9464 8.41588 16.8431 8.6224C16.7399 8.82892 16.5899 9.00856 16.4052 9.14709C16.1503 9.31723 15.8951 9.48736 15.5551 9.57215C15.0453 9.57215 14.5351 9.65722 14.0253 9.65722ZM4.75988 9.65722H2.97486C2.37994 9.65722 1.87009 9.57215 1.44503 9.40229C1.10476 9.31723 0.84984 9.14709 0.594916 8.97723C0.254924 8.72231 0 8.21218 0 7.78712C0 7.36207 0.170135 7.02207 0.425059 6.68208C1.01997 6.08717 1.86981 5.66211 2.97486 5.32212C2.97486 5.32212 3.05992 5.32212 3.05992 5.23705C3.05992 5.23705 2.97486 5.15226 2.97486 5.06691C2.12502 4.0475 1.70024 2.94245 1.87037 2.09233C1.95516 1.49742 2.29515 0.902225 2.80528 0.562234C3.6554 -0.11775 4.9303 -0.11775 5.78042 0.562234C6.29026 0.987293 6.63025 1.49742 6.71532 2.09233C6.80039 3.02724 6.4604 4.0475 5.69535 5.06747C5.52521 5.23761 5.27029 5.23761 5.10043 5.15254C4.9303 4.9824 4.84523 4.72748 5.01536 4.55734C5.69535 3.7075 5.95027 2.85739 5.8652 2.26247C5.8652 1.83741 5.61028 1.49742 5.27029 1.24222C4.67537 0.817436 3.91032 0.817436 3.31513 1.24222C2.97514 1.49742 2.72021 1.83741 2.72021 2.1774C2.63514 2.85739 2.97514 3.62216 3.57033 4.47228C3.74047 4.72748 3.99539 4.9824 3.91032 5.23733C3.91032 5.5776 3.6554 5.74745 3.40019 5.91731C3.40019 5.91731 3.31541 6.00238 3.23006 6.00238C2.29515 6.42744 1.61517 6.76743 1.10532 7.27756C1.02025 7.44769 0.935186 7.61755 0.935186 7.7874C0.935186 8.04233 1.02025 8.21246 1.19011 8.29753C1.36025 8.38232 1.53038 8.46767 1.7853 8.55245C2.1253 8.72259 2.55036 8.80738 2.97514 8.80738H4.76016C5.01536 8.80738 5.18522 8.97751 5.18522 9.23244C5.18522 9.48736 5.01509 9.6575 4.76016 9.6575L4.75988 9.65722Z"/>
<path fill-rule="evenodd" clip-rule="evenodd" d="M10.2851 17.0522H6.80011C6.03506 17.0522 5.35508 16.9672 4.75988 16.7123C4.3351 16.5421 3.99511 16.3723 3.73991 16.1173C3.23006 15.8624 2.97486 15.2672 2.97486 14.6723C2.97486 14.1622 3.14499 13.7371 3.48498 13.3123C4.16497 12.5473 5.27001 11.9521 6.80011 11.4422L7.05504 11.1873L6.80011 10.9321C5.69507 9.48736 5.18522 8.21218 5.35508 7.02207C5.52521 6.25702 5.86492 5.57732 6.54491 5.06691C7.64995 4.30214 9.35019 4.30214 10.3702 5.06691C11.0501 5.57732 11.4752 6.25702 11.56 7.02207C11.7301 8.21218 11.22 9.57215 10.2 10.9324C9.9451 11.1873 9.9451 11.2721 9.9451 11.2721C9.9451 11.2721 10.1152 11.3572 10.2 11.4422C11.7301 11.9521 12.8352 12.5473 13.5152 13.3123C13.8551 13.6523 14.0253 14.1622 14.0253 14.6723C14.0253 15.2672 13.7701 15.8624 13.345 16.2024C13.0901 16.4573 12.7501 16.6272 12.325 16.7973C11.6451 16.9675 10.9651 17.0522 10.2851 17.0522ZM8.50007 5.23705C7.98994 5.23705 7.48009 5.40718 7.05504 5.66211C6.54491 6.00238 6.28998 6.51223 6.20492 7.10714C6.12013 8.04205 6.54519 9.14709 7.39503 10.3372C7.64995 10.5921 7.90515 10.8473 7.82009 11.2721C7.82009 11.6124 7.47982 11.8673 7.22517 12.1222C7.22517 12.1222 7.1401 12.2073 7.05504 12.2073C5.61028 12.6324 4.67509 13.2273 3.99511 13.9073C3.91004 14.0774 3.82498 14.4174 3.82498 14.6723C3.82498 15.0123 3.99511 15.3523 4.25003 15.5221C4.42017 15.6923 4.75988 15.8624 5.10015 15.9472C5.61 16.1173 6.20492 16.2024 6.80011 16.2024H10.2851C10.88 16.2024 11.4752 16.1173 11.9851 15.9472C12.3253 15.8624 12.5802 15.6923 12.8352 15.5221C13.0901 15.3523 13.2602 15.0123 13.2602 14.6723C13.2602 14.4174 13.1752 14.0774 12.92 13.9073C12.325 13.2273 11.3051 12.7171 9.86031 12.2073C9.77497 12.2073 9.77497 12.1222 9.69018 12.1222C9.43498 11.8673 9.09499 11.6121 9.09499 11.2721C9.09499 10.9321 9.35019 10.5921 9.60511 10.3372C10.4552 9.23216 10.88 8.04205 10.7952 7.10714C10.7102 6.51223 10.455 6.08717 9.9451 5.66239C9.52004 5.40718 9.0102 5.23705 8.50007 5.23705Z"/>
</mask>
<path fill-rule="evenodd" clip-rule="evenodd" d="M14.0253 9.65722H12.2403C11.9851 9.65722 11.8152 9.48708 11.8152 9.23216C11.8152 8.97723 11.9853 8.8071 12.2403 8.8071H14.0253C14.4501 8.8071 14.8751 8.72231 15.3002 8.63696C15.5551 8.55218 15.7252 8.46711 15.8951 8.38204C16.0652 8.29725 16.1503 8.04205 16.1503 7.87219C16.1503 7.70206 16.0652 7.53192 15.9802 7.36207C15.5551 6.85222 14.7901 6.51223 13.7701 6.17223C13.685 6.17223 13.685 6.08717 13.5999 6.08717C13.345 5.91703 13.1752 5.66211 13.0901 5.40718C13.0901 5.06691 13.2602 4.81199 13.5152 4.64213C14.1101 3.79201 14.4501 3.02724 14.3653 2.34698C14.2802 1.9222 14.1101 1.58221 13.7701 1.32701C13.1752 0.901946 12.3253 0.901946 11.8149 1.32701C11.4752 1.58221 11.3051 1.9222 11.22 2.34698C11.1352 3.02696 11.4752 3.79201 12.0701 4.64213C12.2403 4.81227 12.1552 5.06719 11.9851 5.23705C11.8149 5.40718 11.56 5.32212 11.3901 5.15226C10.54 4.13201 10.2 3.11203 10.3702 2.17712C10.4552 1.58221 10.7952 0.987014 11.3051 0.647022C12.1552 -0.0329609 13.4304 -0.0329609 14.2802 0.647022C14.7901 1.07208 15.13 1.58221 15.2151 2.17712C15.3002 3.11203 14.9602 4.13228 14.1951 5.15226C14.1101 5.23705 14.1101 5.32212 14.025 5.32212C14.025 5.32212 14.1101 5.32212 14.1101 5.40718C15.2151 5.74718 16.0652 6.25702 16.5751 6.85194C16.8303 7.10714 17.0001 7.5322 17.0001 7.95726C17.0001 8.18816 16.9464 8.41588 16.8431 8.6224C16.7399 8.82892 16.5899 9.00856 16.4052 9.14709C16.1503 9.31723 15.8951 9.48736 15.5551 9.57215C15.0453 9.57215 14.5351 9.65722 14.0253 9.65722ZM4.75988 9.65722H2.97486C2.37994 9.65722 1.87009 9.57215 1.44503 9.40229C1.10476 9.31723 0.84984 9.14709 0.594916 8.97723C0.254924 8.72231 0 8.21218 0 7.78712C0 7.36207 0.170135 7.02207 0.425059 6.68208C1.01997 6.08717 1.86981 5.66211 2.97486 5.32212C2.97486 5.32212 3.05992 5.32212 3.05992 5.23705C3.05992 5.23705 2.97486 5.15226 2.97486 5.06691C2.12502 4.0475 1.70024 2.94245 1.87037 2.09233C1.95516 1.49742 2.29515 0.902225 2.80528 0.562234C3.6554 -0.11775 4.9303 -0.11775 5.78042 0.562234C6.29026 0.987293 6.63025 1.49742 6.71532 2.09233C6.80039 3.02724 6.4604 4.0475 5.69535 5.06747C5.52521 5.23761 5.27029 5.23761 5.10043 5.15254C4.9303 4.9824 4.84523 4.72748 5.01536 4.55734C5.69535 3.7075 5.95027 2.85739 5.8652 2.26247C5.8652 1.83741 5.61028 1.49742 5.27029 1.24222C4.67537 0.817436 3.91032 0.817436 3.31513 1.24222C2.97514 1.49742 2.72021 1.83741 2.72021 2.1774C2.63514 2.85739 2.97514 3.62216 3.57033 4.47228C3.74047 4.72748 3.99539 4.9824 3.91032 5.23733C3.91032 5.5776 3.6554 5.74745 3.40019 5.91731C3.40019 5.91731 3.31541 6.00238 3.23006 6.00238C2.29515 6.42744 1.61517 6.76743 1.10532 7.27756C1.02025 7.44769 0.935186 7.61755 0.935186 7.7874C0.935186 8.04233 1.02025 8.21246 1.19011 8.29753C1.36025 8.38232 1.53038 8.46767 1.7853 8.55245C2.1253 8.72259 2.55036 8.80738 2.97514 8.80738H4.76016C5.01536 8.80738 5.18522 8.97751 5.18522 9.23244C5.18522 9.48736 5.01509 9.6575 4.76016 9.6575L4.75988 9.65722Z" fill="#181927"/>
<path fill-rule="evenodd" clip-rule="evenodd" d="M10.2851 17.0522H6.80011C6.03506 17.0522 5.35508 16.9672 4.75988 16.7123C4.3351 16.5421 3.99511 16.3723 3.73991 16.1173C3.23006 15.8624 2.97486 15.2672 2.97486 14.6723C2.97486 14.1622 3.14499 13.7371 3.48498 13.3123C4.16497 12.5473 5.27001 11.9521 6.80011 11.4422L7.05504 11.1873L6.80011 10.9321C5.69507 9.48736 5.18522 8.21218 5.35508 7.02207C5.52521 6.25702 5.86492 5.57732 6.54491 5.06691C7.64995 4.30214 9.35019 4.30214 10.3702 5.06691C11.0501 5.57732 11.4752 6.25702 11.56 7.02207C11.7301 8.21218 11.22 9.57215 10.2 10.9324C9.9451 11.1873 9.9451 11.2721 9.9451 11.2721C9.9451 11.2721 10.1152 11.3572 10.2 11.4422C11.7301 11.9521 12.8352 12.5473 13.5152 13.3123C13.8551 13.6523 14.0253 14.1622 14.0253 14.6723C14.0253 15.2672 13.7701 15.8624 13.345 16.2024C13.0901 16.4573 12.7501 16.6272 12.325 16.7973C11.6451 16.9675 10.9651 17.0522 10.2851 17.0522ZM8.50007 5.23705C7.98994 5.23705 7.48009 5.40718 7.05504 5.66211C6.54491 6.00238 6.28998 6.51223 6.20492 7.10714C6.12013 8.04205 6.54519 9.14709 7.39503 10.3372C7.64995 10.5921 7.90515 10.8473 7.82009 11.2721C7.82009 11.6124 7.47982 11.8673 7.22517 12.1222C7.22517 12.1222 7.1401 12.2073 7.05504 12.2073C5.61028 12.6324 4.67509 13.2273 3.99511 13.9073C3.91004 14.0774 3.82498 14.4174 3.82498 14.6723C3.82498 15.0123 3.99511 15.3523 4.25003 15.5221C4.42017 15.6923 4.75988 15.8624 5.10015 15.9472C5.61 16.1173 6.20492 16.2024 6.80011 16.2024H10.2851C10.88 16.2024 11.4752 16.1173 11.9851 15.9472C12.3253 15.8624 12.5802 15.6923 12.8352 15.5221C13.0901 15.3523 13.2602 15.0123 13.2602 14.6723C13.2602 14.4174 13.1752 14.0774 12.92 13.9073C12.325 13.2273 11.3051 12.7171 9.86031 12.2073C9.77497 12.2073 9.77497 12.1222 9.69018 12.1222C9.43498 11.8673 9.09499 11.6121 9.09499 11.2721C9.09499 10.9321 9.35019 10.5921 9.60511 10.3372C10.4552 9.23216 10.88 8.04205 10.7952 7.10714C10.7102 6.51223 10.455 6.08717 9.9451 5.66239C9.52004 5.40718 9.0102 5.23705 8.50007 5.23705Z" fill="#181927"/>
<path fill-rule="evenodd" clip-rule="evenodd" d="M14.0253 9.65722H12.2403C11.9851 9.65722 11.8152 9.48708 11.8152 9.23216C11.8152 8.97723 11.9853 8.8071 12.2403 8.8071H14.0253C14.4501 8.8071 14.8751 8.72231 15.3002 8.63696C15.5551 8.55218 15.7252 8.46711 15.8951 8.38204C16.0652 8.29725 16.1503 8.04205 16.1503 7.87219C16.1503 7.70206 16.0652 7.53192 15.9802 7.36207C15.5551 6.85222 14.7901 6.51223 13.7701 6.17223C13.685 6.17223 13.685 6.08717 13.5999 6.08717C13.345 5.91703 13.1752 5.66211 13.0901 5.40718C13.0901 5.06691 13.2602 4.81199 13.5152 4.64213C14.1101 3.79201 14.4501 3.02724 14.3653 2.34698C14.2802 1.9222 14.1101 1.58221 13.7701 1.32701C13.1752 0.901946 12.3253 0.901946 11.8149 1.32701C11.4752 1.58221 11.3051 1.9222 11.22 2.34698C11.1352 3.02696 11.4752 3.79201 12.0701 4.64213C12.2403 4.81227 12.1552 5.06719 11.9851 5.23705C11.8149 5.40718 11.56 5.32212 11.3901 5.15226C10.54 4.13201 10.2 3.11203 10.3702 2.17712C10.4552 1.58221 10.7952 0.987014 11.3051 0.647022C12.1552 -0.0329609 13.4304 -0.0329609 14.2802 0.647022C14.7901 1.07208 15.13 1.58221 15.2151 2.17712C15.3002 3.11203 14.9602 4.13228 14.1951 5.15226C14.1101 5.23705 14.1101 5.32212 14.025 5.32212C14.025 5.32212 14.1101 5.32212 14.1101 5.40718C15.2151 5.74718 16.0652 6.25702 16.5751 6.85194C16.8303 7.10714 17.0001 7.5322 17.0001 7.95726C17.0001 8.18816 16.9464 8.41588 16.8431 8.6224C16.7399 8.82892 16.5899 9.00856 16.4052 9.14709C16.1503 9.31723 15.8951 9.48736 15.5551 9.57215C15.0453 9.57215 14.5351 9.65722 14.0253 9.65722ZM4.75988 9.65722H2.97486C2.37994 9.65722 1.87009 9.57215 1.44503 9.40229C1.10476 9.31723 0.84984 9.14709 0.594916 8.97723C0.254924 8.72231 0 8.21218 0 7.78712C0 7.36207 0.170135 7.02207 0.425059 6.68208C1.01997 6.08717 1.86981 5.66211 2.97486 5.32212C2.97486 5.32212 3.05992 5.32212 3.05992 5.23705C3.05992 5.23705 2.97486 5.15226 2.97486 5.06691C2.12502 4.0475 1.70024 2.94245 1.87037 2.09233C1.95516 1.49742 2.29515 0.902225 2.80528 0.562234C3.6554 -0.11775 4.9303 -0.11775 5.78042 0.562234C6.29026 0.987293 6.63025 1.49742 6.71532 2.09233C6.80039 3.02724 6.4604 4.0475 5.69535 5.06747C5.52521 5.23761 5.27029 5.23761 5.10043 5.15254C4.9303 4.9824 4.84523 4.72748 5.01536 4.55734C5.69535 3.7075 5.95027 2.85739 5.8652 2.26247C5.8652 1.83741 5.61028 1.49742 5.27029 1.24222C4.67537 0.817436 3.91032 0.817436 3.31513 1.24222C2.97514 1.49742 2.72021 1.83741 2.72021 2.1774C2.63514 2.85739 2.97514 3.62216 3.57033 4.47228C3.74047 4.72748 3.99539 4.9824 3.91032 5.23733C3.91032 5.5776 3.6554 5.74745 3.40019 5.91731C3.40019 5.91731 3.31541 6.00238 3.23006 6.00238C2.29515 6.42744 1.61517 6.76743 1.10532 7.27756C1.02025 7.44769 0.935186 7.61755 0.935186 7.7874C0.935186 8.04233 1.02025 8.21246 1.19011 8.29753C1.36025 8.38232 1.53038 8.46767 1.7853 8.55245C2.1253 8.72259 2.55036 8.80738 2.97514 8.80738H4.76016C5.01536 8.80738 5.18522 8.97751 5.18522 9.23244C5.18522 9.48736 5.01509 9.6575 4.76016 9.6575L4.75988 9.65722Z" stroke="#181927" stroke-width="2" mask="url(#path-1-inside-1_512_3376)"/>
<path fill-rule="evenodd" clip-rule="evenodd" d="M10.2851 17.0522H6.80011C6.03506 17.0522 5.35508 16.9672 4.75988 16.7123C4.3351 16.5421 3.99511 16.3723 3.73991 16.1173C3.23006 15.8624 2.97486 15.2672 2.97486 14.6723C2.97486 14.1622 3.14499 13.7371 3.48498 13.3123C4.16497 12.5473 5.27001 11.9521 6.80011 11.4422L7.05504 11.1873L6.80011 10.9321C5.69507 9.48736 5.18522 8.21218 5.35508 7.02207C5.52521 6.25702 5.86492 5.57732 6.54491 5.06691C7.64995 4.30214 9.35019 4.30214 10.3702 5.06691C11.0501 5.57732 11.4752 6.25702 11.56 7.02207C11.7301 8.21218 11.22 9.57215 10.2 10.9324C9.9451 11.1873 9.9451 11.2721 9.9451 11.2721C9.9451 11.2721 10.1152 11.3572 10.2 11.4422C11.7301 11.9521 12.8352 12.5473 13.5152 13.3123C13.8551 13.6523 14.0253 14.1622 14.0253 14.6723C14.0253 15.2672 13.7701 15.8624 13.345 16.2024C13.0901 16.4573 12.7501 16.6272 12.325 16.7973C11.6451 16.9675 10.9651 17.0522 10.2851 17.0522ZM8.50007 5.23705C7.98994 5.23705 7.48009 5.40718 7.05504 5.66211C6.54491 6.00238 6.28998 6.51223 6.20492 7.10714C6.12013 8.04205 6.54519 9.14709 7.39503 10.3372C7.64995 10.5921 7.90515 10.8473 7.82009 11.2721C7.82009 11.6124 7.47982 11.8673 7.22517 12.1222C7.22517 12.1222 7.1401 12.2073 7.05504 12.2073C5.61028 12.6324 4.67509 13.2273 3.99511 13.9073C3.91004 14.0774 3.82498 14.4174 3.82498 14.6723C3.82498 15.0123 3.99511 15.3523 4.25003 15.5221C4.42017 15.6923 4.75988 15.8624 5.10015 15.9472C5.61 16.1173 6.20492 16.2024 6.80011 16.2024H10.2851C10.88 16.2024 11.4752 16.1173 11.9851 15.9472C12.3253 15.8624 12.5802 15.6923 12.8352 15.5221C13.0901 15.3523 13.2602 15.0123 13.2602 14.6723C13.2602 14.4174 13.1752 14.0774 12.92 13.9073C12.325 13.2273 11.3051 12.7171 9.86031 12.2073C9.77497 12.2073 9.77497 12.1222 9.69018 12.1222C9.43498 11.8673 9.09499 11.6121 9.09499 11.2721C9.09499 10.9321 9.35019 10.5921 9.60511 10.3372C10.4552 9.23216 10.88 8.04205 10.7952 7.10714C10.7102 6.51223 10.455 6.08717 9.9451 5.66239C9.52004 5.40718 9.0102 5.23705 8.50007 5.23705Z" stroke="#181927" stroke-width="2" mask="url(#path-1-inside-1_512_3376)"/>
</svg>
