<svg width="17" height="18" viewBox="0 0 17 18" fill="none" xmlns="http://www.w3.org/2000/svg">
<path d="M8.5 0.129272C3.80538 0.129272 0 3.93466 0 8.62927C0 13.3239 3.80538 17.1293 8.5 17.1293C13.1946 17.1293 17 13.3239 17 8.62927C17 3.93466 13.1946 0.129272 8.5 0.129272ZM8.5 15.8216C4.52788 15.8216 1.30769 12.6014 1.30769 8.62927C1.30769 4.65716 4.52788 1.43696 8.5 1.43696C12.4721 1.43696 15.6923 4.65716 15.6923 8.62927C15.6923 12.6014 12.4721 15.8216 8.5 15.8216ZM7.57938 6.12766C7.85335 5.98316 7.99 5.8027 7.99 5.58627C7.99 5.44962 7.94358 5.33585 7.85008 5.24562C7.75658 5.15539 7.63758 5.11027 7.49373 5.11027C7.13346 5.11027 6.63719 5.3195 6.00427 5.73731C5.25562 6.2277 4.66061 6.824 4.21862 7.52689C3.77662 8.22977 3.55496 8.92416 3.55496 9.60939C3.55496 9.9337 3.61642 10.256 3.73869 10.5771C3.86096 10.8975 4.02638 11.1695 4.23496 11.3937C4.67369 11.8769 5.19873 12.1182 5.81008 12.1182C6.45019 12.1182 6.97196 11.8978 7.37473 11.4578C7.54015 11.278 7.67092 11.0629 7.769 10.8144C7.86577 10.5653 7.91481 10.3188 7.91481 10.0736C7.91481 9.55446 7.77096 9.11116 7.48392 8.74304C7.19688 8.37493 6.81831 8.15916 6.35146 8.09443L6.17885 8.08396L6.04938 8.06173C5.83427 8.03296 5.72573 7.94993 5.72573 7.81327C5.72573 7.66877 5.86631 7.44189 6.14746 7.13196C6.44038 6.81616 6.91769 6.48073 7.57938 6.12766ZM12.7435 6.12766C13.0181 5.98316 13.1547 5.8027 13.1547 5.58627C13.1547 5.44962 13.1083 5.33585 13.0142 5.24562C12.92 5.15539 12.8017 5.11027 12.6572 5.11027C12.2969 5.11027 11.7993 5.3195 11.1651 5.73731C10.4158 6.2277 9.8175 6.824 9.37092 7.52689C8.92435 8.22977 8.70073 8.92416 8.70073 9.60939C8.70073 9.9337 8.76219 10.256 8.88446 10.5771C9.00738 10.8975 9.17215 11.1695 9.38138 11.3937C9.82142 11.8769 10.3504 12.1182 10.9702 12.1182C11.6051 12.1182 12.1275 11.8978 12.5382 11.4578C12.7036 11.278 12.8357 11.0648 12.9331 10.8197C13.0298 10.5738 13.0789 10.3253 13.0789 10.073C13.0789 9.55381 12.9324 9.11246 12.6408 8.74827C12.3492 8.38408 11.968 8.16635 11.4985 8.09443L11.3357 8.08396L11.1952 8.06173C10.9794 8.03296 10.8708 7.94993 10.8708 7.81327C10.8708 7.66877 11.0153 7.44189 11.3037 7.13196C11.6064 6.80112 12.0863 6.46635 12.7435 6.12766Z" fill="#181927"/>
</svg>
