<svg width="19" height="15" viewBox="0 0 19 15" fill="none" xmlns="http://www.w3.org/2000/svg">
<path d="M7.61111 2.88889H18M1 12.1154H11.3889M1 2.88889C1 3.38985 1.19901 3.8703 1.55324 4.22453C1.90748 4.57877 2.38792 4.77778 2.88889 4.77778C3.38985 4.77778 3.8703 4.57877 4.22454 4.22453C4.57877 3.8703 4.77778 3.38985 4.77778 2.88889C4.77778 2.38792 4.57877 1.90748 4.22454 1.55324C3.8703 1.19901 3.38985 1 2.88889 1C2.38792 1 1.90748 1.19901 1.55324 1.55324C1.19901 1.90748 1 2.38792 1 2.88889ZM14.2222 12.1154C14.2222 12.6163 14.4212 13.0968 14.7755 13.451C15.1297 13.8053 15.6101 14.0043 16.1111 14.0043C16.6121 14.0043 17.0925 13.8053 17.4468 13.451C17.801 13.0968 18 12.6163 18 12.1154C18 11.6144 17.801 11.134 17.4468 10.7797C17.0925 10.4255 16.6121 10.2265 16.1111 10.2265C15.6101 10.2265 15.1297 10.4255 14.7755 10.7797C14.4212 11.134 14.2222 11.6144 14.2222 12.1154Z" stroke="#181927" stroke-linecap="round" stroke-linejoin="round"/>
</svg>
