<svg width="19" height="8" viewBox="0 0 19 8" fill="none" xmlns="http://www.w3.org/2000/svg">
<path d="M14.6944 7.43484C15.5711 7.43484 16.4119 7.08658 17.0318 6.46667C17.6517 5.84675 18 5.00597 18 4.12929C18 3.2526 17.6517 2.41182 17.0318 1.79191C16.4119 1.17199 15.5711 0.82373 14.6944 0.82373C13.8178 0.82373 12.977 1.17199 12.3571 1.79191C11.7372 2.41182 11.3889 3.2526 11.3889 4.12929C11.3889 5.00597 11.7372 5.84675 12.3571 6.46667C12.977 7.08658 13.8178 7.43484 14.6944 7.43484ZM14.6944 7.43484H4.30556M4.30556 7.43484C4.73965 7.43484 5.16949 7.34934 5.57054 7.18322C5.97159 7.0171 6.33599 6.77362 6.64294 6.46667C6.94989 6.15972 7.19337 5.79532 7.35949 5.39427C7.52561 4.99322 7.61111 4.56338 7.61111 4.12929C7.61111 3.2526 7.26285 2.41182 6.64294 1.79191C6.02302 1.17199 5.18224 0.82373 4.30556 0.82373C3.42887 0.82373 2.58809 1.17199 1.96817 1.79191C1.34826 2.41182 1 3.2526 1 4.12929C1 4.56338 1.0855 4.99322 1.25162 5.39427C1.41774 5.79532 1.66123 6.15972 1.96817 6.46667C2.27512 6.77362 2.63953 7.0171 3.04057 7.18322C3.44162 7.34934 3.87146 7.43484 4.30556 7.43484Z" stroke="#1670F8" stroke-linecap="round" stroke-linejoin="round"/>
</svg>
