<svg width="17" height="17" viewBox="0 0 17 17" fill="none" xmlns="http://www.w3.org/2000/svg">
<path d="M16.2857 15.7857L16.2857 7.28572L16.2048 7.28572L16.2048 6.78572L15.7048 6.78571L1.21429 6.78571L0.714288 6.78571L0.714288 7.28571L0.714287 15.7857L0.714287 16.2857L1.21429 16.2857L15.7048 16.2857L16.2048 16.2857L16.2048 15.7857L16.2857 15.7857ZM15.7857 6.57143L16.2857 6.57143L16.2857 6.07143L16.2857 1.21429L16.2857 0.714287L15.7857 0.714287L11.3476 0.714286L10.9286 0.714286L10.8476 0.714286L10.4286 0.714286L1.21429 0.714285L0.714288 0.714285L0.714288 1.21429L0.714288 6.07143L0.714288 6.57143L1.21429 6.57143L10.4286 6.57143L10.8476 6.57143L10.9286 6.57143L11.3476 6.57143L15.7857 6.57143ZM16.3929 16.5L0.607143 16.5C0.578728 16.5 0.551474 16.4887 0.531382 16.4686C0.511288 16.4485 0.5 16.4213 0.5 16.3929L0.500001 0.607142C0.500001 0.578726 0.511291 0.551472 0.531383 0.53138C0.551475 0.511288 0.578729 0.499999 0.607145 0.499999L16.3929 0.5C16.4213 0.5 16.4485 0.511288 16.4686 0.531382C16.4887 0.551474 16.5 0.578728 16.5 0.607143L16.5 16.3929C16.5 16.4213 16.4887 16.4485 16.4686 16.4686C16.4485 16.4887 16.4213 16.5 16.3929 16.5Z" fill="#1670F8" stroke="#1670F8"/>
</svg>
