<svg width="19" height="19" viewBox="0 0 19 19" fill="none" xmlns="http://www.w3.org/2000/svg">
<path d="M6.66667 8.01861L9.5 10.8519L12.3333 8.01861M2.7 1.17139H16.3C16.7505 1.17139 17.1831 1.35933 17.5023 1.69366C17.8206 2.028 18 2.48228 18 2.95544V9.25205C18 11.6169 17.1047 13.8864 15.5104 15.5591C13.9162 17.2317 11.7544 18.1714 9.5 18.1714C8.38066 18.1707 7.27346 17.9395 6.24733 17.4923C5.20813 17.0387 4.2704 16.3813 3.48956 15.5591C1.89533 13.8864 1 11.6169 1 9.25205V2.95544C1 2.48228 1.17944 2.028 1.49772 1.69366C1.65219 1.52957 1.83844 1.39865 2.04514 1.30886C2.25183 1.21907 2.47465 1.17229 2.7 1.17139Z" stroke="white" stroke-linecap="round" stroke-linejoin="round"/>
</svg>
