<svg width="17" height="14" viewBox="0 0 17 14" fill="none" xmlns="http://www.w3.org/2000/svg">
<path d="M8.06354 0.500001H8.06352C7.33974 0.499975 6.78839 0.501107 6.36142 0.562351L8.06354 0.500001ZM8.06354 0.500001H8.93647H8.93648M8.06354 0.500001H8.93648M8.93648 0.500001C9.66026 0.499975 10.2116 0.501107 10.6386 0.562351L8.93648 0.500001ZM11.6494 1.02147L11.6494 1.02143C11.3962 0.751258 11.0737 0.624771 10.6386 0.562353L11.6494 1.02147ZM11.6494 1.02147C11.907 1.29629 12.0314 1.65406 12.0919 2.13416L12.0919 2.13419M11.6494 1.02147L12.0919 2.13419M12.0919 2.13419C12.1503 2.59776 12.1512 3.19369 12.1512 3.96353V9.11335C12.1512 9.88322 12.1504 10.4792 12.0919 10.9428L12.0919 10.9428M12.0919 2.13419L12.0919 10.9428M12.0919 10.9428C12.0314 11.4229 11.907 11.7806 11.6495 12.0554L11.6494 12.0555M12.0919 10.9428L11.6494 12.0555M11.6494 12.0555C11.3962 12.3257 11.0737 12.4522 10.6386 12.5146L10.6386 12.5146M11.6494 12.0555L10.6386 12.5146M10.6386 12.5146C10.2116 12.5759 9.66033 12.5769 8.93647 12.5769H8.06354C7.33967 12.5769 6.78838 12.5759 6.36144 12.5146L6.36141 12.5146M10.6386 12.5146L6.36141 12.5146M6.36141 12.5146C5.92637 12.4522 5.60379 12.3257 5.35055 12.0554L5.35051 12.0554M6.36141 12.5146L5.35051 12.0554M5.35051 12.0554C5.09298 11.7807 4.9686 11.4229 4.9081 10.9428C4.84969 10.4792 4.84881 9.88316 4.84884 9.11336V9.11335M5.35051 12.0554L4.84884 9.11335M4.84884 9.11335V3.96357V3.96356M4.84884 9.11335V3.96356M4.84884 3.96356C4.84881 3.19377 4.84969 2.59777 4.9081 2.13416M4.84884 3.96356L4.9081 2.13416M6.44845 1.32165L6.37745 0.826714C6.80322 0.765639 7.35792 0.765509 8.10465 0.765509H8.89535C9.64207 0.765509 10.1968 0.765639 10.6225 0.826713L6.44845 1.32165ZM6.44845 1.32165L6.37745 0.826714C5.95033 0.887984 5.66907 1.00893 5.45955 1.23248C5.2543 1.45148 5.14682 1.73808 5.09142 2.17778C5.0352 2.62394 5.03488 3.2078 5.03488 4.00744V9.06948C5.03488 9.86911 5.0352 10.453 5.09142 10.8991C5.14682 11.3388 5.25429 11.6255 5.45958 11.8445C5.66909 12.068 5.95033 12.1889 6.37738 12.2502L6.37749 12.2502M6.44845 1.32165L6.37749 12.2502M6.37749 12.2502C6.80323 12.3113 7.35791 12.3114 8.10465 12.3114H8.89535C9.64209 12.3114 10.1968 12.3113 10.6225 12.2502L10.6226 12.2502M6.37749 12.2502L10.6226 12.2502M10.6226 12.2502C11.0497 12.1889 11.3309 12.068 11.5405 11.8445C11.7457 11.6255 11.8532 11.3388 11.9086 10.8992L11.9086 10.8991M10.6226 12.2502L11.9086 10.8991M11.9086 10.8991C11.9648 10.453 11.9651 9.86912 11.9651 9.06948V4.00744C11.9651 3.20779 11.9648 2.62395 11.9086 2.17782L11.9086 2.17772M11.9086 10.8991L11.9086 2.17772M11.9086 2.17772C11.8532 1.73808 11.7457 1.4515 11.5405 1.23251M11.9086 2.17772L11.5405 1.23251M4.9081 2.13416C4.9686 1.65404 5.09298 1.29627 5.35053 1.02146M4.9081 2.13416C4.9081 2.13416 4.9081 2.13416 4.9081 2.13417L5.35053 1.02146M5.35053 1.02146C5.60377 0.751255 5.92635 0.624769 6.36141 0.562353L5.35053 1.02146ZM11.5405 1.23251C11.331 1.00892 11.0497 0.887981 10.6225 0.826714L11.5405 1.23251ZM16.0116 0.765509C14.9412 0.765509 14.1279 1.68142 14.1279 2.74194V10.335C14.1279 11.3955 14.9412 12.3114 16.0116 12.3114H16.407C16.4218 12.3114 16.4411 12.3169 16.4615 12.3387C16.4824 12.361 16.5 12.3971 16.5 12.4442C16.5 12.4912 16.4824 12.5274 16.4615 12.5497C16.4411 12.5714 16.4218 12.5769 16.407 12.5769H16.0116C14.8986 12.5769 13.9419 11.6042 13.9419 10.335V2.74194C13.9419 1.47272 14.8986 0.5 16.0116 0.5H16.407C16.4218 0.5 16.4411 0.505485 16.4615 0.527246C16.4824 0.549564 16.5 0.585684 16.5 0.632754C16.5 0.679825 16.4824 0.715944 16.4615 0.738262C16.4411 0.760023 16.4218 0.765509 16.407 0.765509H16.0116ZM0.5 0.632754C0.5 0.58568 0.517601 0.54956 0.538515 0.527245C0.558907 0.505487 0.578234 0.5 0.593023 0.5H0.988372C2.10143 0.5 3.05814 1.47271 3.05814 2.74194V10.335C3.05814 11.6042 2.10143 12.5769 0.988372 12.5769H0.593023C0.578239 12.5769 0.558911 12.5714 0.538517 12.5497C0.517599 12.5274 0.5 12.4912 0.5 12.4442C0.5 12.3971 0.517599 12.361 0.538517 12.3387C0.558911 12.3169 0.578239 12.3114 0.593023 12.3114H0.988372C2.05877 12.3114 2.87209 11.3955 2.87209 10.335V2.74194C2.87209 1.68142 2.05877 0.765509 0.988372 0.765509H0.593023C0.578234 0.765509 0.558907 0.760022 0.538515 0.738264C0.517601 0.715948 0.5 0.679829 0.5 0.632754Z" fill="#181927" stroke="#181927"/>
</svg>
