<svg width="19" height="13" viewBox="0 0 19 13" fill="none" xmlns="http://www.w3.org/2000/svg">
<path d="M1 9.67095V2.58762C1 2.08665 1.19901 1.60621 1.55324 1.25197C1.90748 0.897738 2.38792 0.69873 2.88889 0.69873H10.9167C11.4176 0.69873 11.8981 0.897738 12.2523 1.25197C12.6065 1.60621 12.8056 2.08665 12.8056 2.58762V9.67095C12.8056 10.1719 12.6065 10.6524 12.2523 11.0066C11.8981 11.3608 11.4176 11.5598 10.9167 11.5598H2.88889C2.38792 11.5598 1.90748 11.3608 1.55324 11.0066C1.19901 10.6524 1 10.1719 1 9.67095ZM17.2142 1.39856L13.4364 4.76362C13.3867 4.80783 13.3468 4.86208 13.3194 4.92279C13.2921 4.9835 13.2779 5.04931 13.2778 5.1159V6.79512C13.2779 6.86171 13.2921 6.92751 13.3194 6.98823C13.3468 7.04894 13.3867 7.10318 13.4364 7.1474L17.2142 10.5125C17.2823 10.5729 17.3664 10.6124 17.4563 10.6261C17.5463 10.6399 17.6384 10.6274 17.7214 10.5901C17.8044 10.5527 17.8749 10.4922 17.9243 10.4158C17.9737 10.3393 18 10.2503 18 10.1592V1.75179C18 1.66076 17.9737 1.57167 17.9243 1.49523C17.8749 1.41879 17.8044 1.35827 17.7214 1.32095C17.6384 1.28363 17.5463 1.2711 17.4563 1.28487C17.3664 1.29864 17.2823 1.33812 17.2142 1.39856Z" stroke="#1670F8" stroke-linecap="round" stroke-linejoin="round"/>
</svg>
